%TF.GenerationSoftware,KiCad,Pcbnew,5.1.8-db9833491~88~ubuntu16.04.1*%
%TF.CreationDate,2021-01-19T23:32:47+01:00*%
%TF.ProjectId,dual-mixer,6475616c-2d6d-4697-9865-722e6b696361,rev?*%
%TF.SameCoordinates,Original*%
%TF.FileFunction,Soldermask,Top*%
%TF.FilePolarity,Negative*%
%FSLAX46Y46*%
G04 Gerber Fmt 4.6, Leading zero omitted, Abs format (unit mm)*
G04 Created by KiCad (PCBNEW 5.1.8-db9833491~88~ubuntu16.04.1) date 2021-01-19 23:32:47*
%MOMM*%
%LPD*%
G01*
G04 APERTURE LIST*
%ADD10O,2.400000X1.600000*%
%ADD11R,2.400000X1.600000*%
%ADD12C,1.600000*%
%ADD13R,1.600000X1.600000*%
%ADD14O,1.600000X1.600000*%
%ADD15O,1.700000X1.700000*%
%ADD16R,1.700000X1.700000*%
%ADD17C,1.700000*%
G04 APERTURE END LIST*
D10*
%TO.C,U2*%
X126620000Y-71000000D03*
X119000000Y-78620000D03*
X126620000Y-73540000D03*
X119000000Y-76080000D03*
X126620000Y-76080000D03*
X119000000Y-73540000D03*
X126620000Y-78620000D03*
D11*
X119000000Y-71000000D03*
%TD*%
D12*
%TO.C,C4*%
X120000000Y-84000000D03*
X125000000Y-84000000D03*
%TD*%
%TO.C,C3*%
X120000000Y-107000000D03*
X125000000Y-107000000D03*
%TD*%
%TO.C,C2*%
X120500000Y-60000000D03*
D13*
X118000000Y-60000000D03*
%TD*%
D12*
%TO.C,C1*%
X125500000Y-60000000D03*
D13*
X128000000Y-60000000D03*
%TD*%
D14*
%TO.C,FB2*%
X136840000Y-76000000D03*
D12*
X147000000Y-76000000D03*
%TD*%
D14*
%TO.C,FB1*%
X136840000Y-72000000D03*
D12*
X147000000Y-72000000D03*
%TD*%
D15*
%TO.C,OUT_A1*%
X155000000Y-99080000D03*
X155000000Y-96540000D03*
D16*
X155000000Y-94000000D03*
%TD*%
D15*
%TO.C,OUT_B1*%
X155000000Y-88080000D03*
X155000000Y-85540000D03*
D16*
X155000000Y-83000000D03*
%TD*%
D15*
%TO.C,IN_A1*%
X92000000Y-106700000D03*
X92000000Y-104160000D03*
X92000000Y-101620000D03*
X92000000Y-99080000D03*
X92000000Y-96540000D03*
X92000000Y-94000000D03*
X92000000Y-91460000D03*
X92000000Y-88920000D03*
D16*
X92000000Y-86380000D03*
%TD*%
D15*
%TO.C,IN_B1*%
X92000000Y-79700000D03*
X92000000Y-77160000D03*
X92000000Y-74620000D03*
X92000000Y-72080000D03*
X92000000Y-69540000D03*
X92000000Y-67000000D03*
X92000000Y-64460000D03*
X92000000Y-61920000D03*
D16*
X92000000Y-59380000D03*
%TD*%
D10*
%TO.C,U1*%
X126620000Y-94000000D03*
X119000000Y-101620000D03*
X126620000Y-96540000D03*
X119000000Y-99080000D03*
X126620000Y-99080000D03*
X119000000Y-96540000D03*
X126620000Y-101620000D03*
D11*
X119000000Y-94000000D03*
%TD*%
D14*
%TO.C,R26*%
X138840000Y-99000000D03*
D12*
X149000000Y-99000000D03*
%TD*%
D14*
%TO.C,R25*%
X138840000Y-95000000D03*
D12*
X149000000Y-95000000D03*
%TD*%
D14*
%TO.C,R24*%
X138840000Y-88000000D03*
D12*
X149000000Y-88000000D03*
%TD*%
D14*
%TO.C,R23*%
X138840000Y-84000000D03*
D12*
X149000000Y-84000000D03*
%TD*%
D14*
%TO.C,R22*%
X132000000Y-103160000D03*
D12*
X132000000Y-93000000D03*
%TD*%
D14*
%TO.C,R21*%
X132000000Y-80160000D03*
D12*
X132000000Y-70000000D03*
%TD*%
D14*
%TO.C,R20*%
X117840000Y-89000000D03*
D12*
X128000000Y-89000000D03*
%TD*%
D14*
%TO.C,R19*%
X117840000Y-66000000D03*
D12*
X128000000Y-66000000D03*
%TD*%
D14*
%TO.C,R18*%
X114000000Y-103160000D03*
D12*
X114000000Y-93000000D03*
%TD*%
D14*
%TO.C,R17*%
X114000000Y-80160000D03*
D12*
X114000000Y-70000000D03*
%TD*%
D14*
%TO.C,R16*%
X97840000Y-86000000D03*
D12*
X108000000Y-86000000D03*
%TD*%
D14*
%TO.C,R15*%
X97840000Y-89000000D03*
D12*
X108000000Y-89000000D03*
%TD*%
D14*
%TO.C,R14*%
X97840000Y-92000000D03*
D12*
X108000000Y-92000000D03*
%TD*%
D14*
%TO.C,R13*%
X97840000Y-95000000D03*
D12*
X108000000Y-95000000D03*
%TD*%
D14*
%TO.C,R12*%
X97840000Y-98000000D03*
D12*
X108000000Y-98000000D03*
%TD*%
D14*
%TO.C,R11*%
X97840000Y-101000000D03*
D12*
X108000000Y-101000000D03*
%TD*%
D14*
%TO.C,R10*%
X97840000Y-104000000D03*
D12*
X108000000Y-104000000D03*
%TD*%
D14*
%TO.C,R9*%
X97840000Y-107000000D03*
D12*
X108000000Y-107000000D03*
%TD*%
D14*
%TO.C,R8*%
X97840000Y-59000000D03*
D12*
X108000000Y-59000000D03*
%TD*%
D14*
%TO.C,R7*%
X97840000Y-62000000D03*
D12*
X108000000Y-62000000D03*
%TD*%
D14*
%TO.C,R6*%
X97840000Y-65000000D03*
D12*
X108000000Y-65000000D03*
%TD*%
D14*
%TO.C,R5*%
X97840000Y-68000000D03*
D12*
X108000000Y-68000000D03*
%TD*%
D14*
%TO.C,R4*%
X97840000Y-71000000D03*
D12*
X108000000Y-71000000D03*
%TD*%
D14*
%TO.C,R3*%
X97840000Y-74000000D03*
D12*
X108000000Y-74000000D03*
%TD*%
D14*
%TO.C,R2*%
X97840000Y-77000000D03*
D12*
X108000000Y-77000000D03*
%TD*%
D14*
%TO.C,R1*%
X97840000Y-80000000D03*
D12*
X108000000Y-80000000D03*
%TD*%
D17*
%TO.C,POWER1*%
X148160000Y-60460000D03*
X145620000Y-60460000D03*
X143080000Y-60460000D03*
X140540000Y-60460000D03*
X138000000Y-60460000D03*
X148160000Y-63000000D03*
X145620000Y-63000000D03*
X143080000Y-63000000D03*
X140540000Y-63000000D03*
G36*
G01*
X138600000Y-63850000D02*
X137400000Y-63850000D01*
G75*
G02*
X137150000Y-63600000I0J250000D01*
G01*
X137150000Y-62400000D01*
G75*
G02*
X137400000Y-62150000I250000J0D01*
G01*
X138600000Y-62150000D01*
G75*
G02*
X138850000Y-62400000I0J-250000D01*
G01*
X138850000Y-63600000D01*
G75*
G02*
X138600000Y-63850000I-250000J0D01*
G01*
G37*
%TD*%
M02*
