%TF.GenerationSoftware,KiCad,Pcbnew,5.1.8-db9833491~88~ubuntu16.04.1*%
%TF.CreationDate,2021-01-19T23:32:47+01:00*%
%TF.ProjectId,dual-mixer,6475616c-2d6d-4697-9865-722e6b696361,rev?*%
%TF.SameCoordinates,Original*%
%TF.FileFunction,Copper,L2,Bot*%
%TF.FilePolarity,Positive*%
%FSLAX46Y46*%
G04 Gerber Fmt 4.6, Leading zero omitted, Abs format (unit mm)*
G04 Created by KiCad (PCBNEW 5.1.8-db9833491~88~ubuntu16.04.1) date 2021-01-19 23:32:47*
%MOMM*%
%LPD*%
G01*
G04 APERTURE LIST*
%TA.AperFunction,ComponentPad*%
%ADD10O,2.400000X1.600000*%
%TD*%
%TA.AperFunction,ComponentPad*%
%ADD11R,2.400000X1.600000*%
%TD*%
%TA.AperFunction,ComponentPad*%
%ADD12C,1.600000*%
%TD*%
%TA.AperFunction,ComponentPad*%
%ADD13R,1.600000X1.600000*%
%TD*%
%TA.AperFunction,ComponentPad*%
%ADD14O,1.600000X1.600000*%
%TD*%
%TA.AperFunction,ComponentPad*%
%ADD15O,1.700000X1.700000*%
%TD*%
%TA.AperFunction,ComponentPad*%
%ADD16R,1.700000X1.700000*%
%TD*%
%TA.AperFunction,ComponentPad*%
%ADD17C,1.700000*%
%TD*%
%TA.AperFunction,ViaPad*%
%ADD18C,4.000000*%
%TD*%
%TA.AperFunction,Conductor*%
%ADD19C,0.508000*%
%TD*%
%TA.AperFunction,Conductor*%
%ADD20C,0.889000*%
%TD*%
%TA.AperFunction,Conductor*%
%ADD21C,0.254000*%
%TD*%
%TA.AperFunction,Conductor*%
%ADD22C,0.100000*%
%TD*%
G04 APERTURE END LIST*
D10*
%TO.P,U2,8*%
%TO.N,+12V*%
X126620000Y-71000000D03*
%TO.P,U2,4*%
%TO.N,-12V*%
X119000000Y-78620000D03*
%TO.P,U2,7*%
%TO.N,Net-(R21-Pad1)*%
X126620000Y-73540000D03*
%TO.P,U2,3*%
%TO.N,GND*%
X119000000Y-76080000D03*
%TO.P,U2,6*%
%TO.N,Net-(R19-Pad1)*%
X126620000Y-76080000D03*
%TO.P,U2,2*%
%TO.N,Net-(R1-Pad1)*%
X119000000Y-73540000D03*
%TO.P,U2,5*%
%TO.N,GND*%
X126620000Y-78620000D03*
D11*
%TO.P,U2,1*%
%TO.N,INVERTED2*%
X119000000Y-71000000D03*
%TD*%
D12*
%TO.P,C4,2*%
%TO.N,-12V*%
X120000000Y-84000000D03*
%TO.P,C4,1*%
%TO.N,+12V*%
X125000000Y-84000000D03*
%TD*%
%TO.P,C3,2*%
%TO.N,-12V*%
X120000000Y-107000000D03*
%TO.P,C3,1*%
%TO.N,+12V*%
X125000000Y-107000000D03*
%TD*%
%TO.P,C2,2*%
%TO.N,-12V*%
X120500000Y-60000000D03*
D13*
%TO.P,C2,1*%
%TO.N,GND*%
X118000000Y-60000000D03*
%TD*%
D12*
%TO.P,C1,2*%
%TO.N,GND*%
X125500000Y-60000000D03*
D13*
%TO.P,C1,1*%
%TO.N,+12V*%
X128000000Y-60000000D03*
%TD*%
D14*
%TO.P,FB2,2*%
%TO.N,-12V*%
X136840000Y-76000000D03*
D12*
%TO.P,FB2,1*%
%TO.N,Net-(FB2-Pad1)*%
X147000000Y-76000000D03*
%TD*%
D14*
%TO.P,FB1,2*%
%TO.N,+12V*%
X136840000Y-72000000D03*
D12*
%TO.P,FB1,1*%
%TO.N,Net-(FB1-Pad1)*%
X147000000Y-72000000D03*
%TD*%
D15*
%TO.P,OUT_A1,3*%
%TO.N,Net-(OUT_A1-Pad3)*%
X155000000Y-99080000D03*
%TO.P,OUT_A1,2*%
%TO.N,Net-(OUT_A1-Pad2)*%
X155000000Y-96540000D03*
D16*
%TO.P,OUT_A1,1*%
%TO.N,GND*%
X155000000Y-94000000D03*
%TD*%
D15*
%TO.P,OUT_B1,3*%
%TO.N,Net-(OUT_B1-Pad3)*%
X155000000Y-88080000D03*
%TO.P,OUT_B1,2*%
%TO.N,Net-(OUT_B1-Pad2)*%
X155000000Y-85540000D03*
D16*
%TO.P,OUT_B1,1*%
%TO.N,GND*%
X155000000Y-83000000D03*
%TD*%
D15*
%TO.P,IN_A1,9*%
%TO.N,Net-(IN_A1-Pad9)*%
X92000000Y-106700000D03*
%TO.P,IN_A1,8*%
%TO.N,Net-(IN_A1-Pad8)*%
X92000000Y-104160000D03*
%TO.P,IN_A1,7*%
%TO.N,Net-(IN_A1-Pad7)*%
X92000000Y-101620000D03*
%TO.P,IN_A1,6*%
%TO.N,Net-(IN_A1-Pad6)*%
X92000000Y-99080000D03*
%TO.P,IN_A1,5*%
%TO.N,Net-(IN_A1-Pad5)*%
X92000000Y-96540000D03*
%TO.P,IN_A1,4*%
%TO.N,Net-(IN_A1-Pad4)*%
X92000000Y-94000000D03*
%TO.P,IN_A1,3*%
%TO.N,Net-(IN_A1-Pad3)*%
X92000000Y-91460000D03*
%TO.P,IN_A1,2*%
%TO.N,Net-(IN_A1-Pad2)*%
X92000000Y-88920000D03*
D16*
%TO.P,IN_A1,1*%
%TO.N,GND*%
X92000000Y-86380000D03*
%TD*%
D15*
%TO.P,IN_B1,9*%
%TO.N,Net-(IN_B1-Pad9)*%
X92000000Y-79700000D03*
%TO.P,IN_B1,8*%
%TO.N,Net-(IN_B1-Pad8)*%
X92000000Y-77160000D03*
%TO.P,IN_B1,7*%
%TO.N,Net-(IN_B1-Pad7)*%
X92000000Y-74620000D03*
%TO.P,IN_B1,6*%
%TO.N,Net-(IN_B1-Pad6)*%
X92000000Y-72080000D03*
%TO.P,IN_B1,5*%
%TO.N,Net-(IN_B1-Pad5)*%
X92000000Y-69540000D03*
%TO.P,IN_B1,4*%
%TO.N,Net-(IN_B1-Pad4)*%
X92000000Y-67000000D03*
%TO.P,IN_B1,3*%
%TO.N,Net-(IN_B1-Pad3)*%
X92000000Y-64460000D03*
%TO.P,IN_B1,2*%
%TO.N,Net-(IN_B1-Pad2)*%
X92000000Y-61920000D03*
D16*
%TO.P,IN_B1,1*%
%TO.N,GND*%
X92000000Y-59380000D03*
%TD*%
D10*
%TO.P,U1,8*%
%TO.N,+12V*%
X126620000Y-94000000D03*
%TO.P,U1,4*%
%TO.N,-12V*%
X119000000Y-101620000D03*
%TO.P,U1,7*%
%TO.N,Net-(R22-Pad1)*%
X126620000Y-96540000D03*
%TO.P,U1,3*%
%TO.N,GND*%
X119000000Y-99080000D03*
%TO.P,U1,6*%
%TO.N,Net-(R20-Pad1)*%
X126620000Y-99080000D03*
%TO.P,U1,2*%
%TO.N,Net-(R10-Pad1)*%
X119000000Y-96540000D03*
%TO.P,U1,5*%
%TO.N,GND*%
X126620000Y-101620000D03*
D11*
%TO.P,U1,1*%
%TO.N,INVERTED1*%
X119000000Y-94000000D03*
%TD*%
D14*
%TO.P,R26,2*%
%TO.N,INVERTED1*%
X138840000Y-99000000D03*
D12*
%TO.P,R26,1*%
%TO.N,Net-(OUT_A1-Pad3)*%
X149000000Y-99000000D03*
%TD*%
D14*
%TO.P,R25,2*%
%TO.N,Net-(R22-Pad1)*%
X138840000Y-95000000D03*
D12*
%TO.P,R25,1*%
%TO.N,Net-(OUT_A1-Pad2)*%
X149000000Y-95000000D03*
%TD*%
D14*
%TO.P,R24,2*%
%TO.N,INVERTED2*%
X138840000Y-88000000D03*
D12*
%TO.P,R24,1*%
%TO.N,Net-(OUT_B1-Pad3)*%
X149000000Y-88000000D03*
%TD*%
D14*
%TO.P,R23,2*%
%TO.N,Net-(R21-Pad1)*%
X138840000Y-84000000D03*
D12*
%TO.P,R23,1*%
%TO.N,Net-(OUT_B1-Pad2)*%
X149000000Y-84000000D03*
%TD*%
D14*
%TO.P,R22,2*%
%TO.N,Net-(R20-Pad1)*%
X132000000Y-103160000D03*
D12*
%TO.P,R22,1*%
%TO.N,Net-(R22-Pad1)*%
X132000000Y-93000000D03*
%TD*%
D14*
%TO.P,R21,2*%
%TO.N,Net-(R19-Pad1)*%
X132000000Y-80160000D03*
D12*
%TO.P,R21,1*%
%TO.N,Net-(R21-Pad1)*%
X132000000Y-70000000D03*
%TD*%
D14*
%TO.P,R20,2*%
%TO.N,INVERTED1*%
X117840000Y-89000000D03*
D12*
%TO.P,R20,1*%
%TO.N,Net-(R20-Pad1)*%
X128000000Y-89000000D03*
%TD*%
D14*
%TO.P,R19,2*%
%TO.N,INVERTED2*%
X117840000Y-66000000D03*
D12*
%TO.P,R19,1*%
%TO.N,Net-(R19-Pad1)*%
X128000000Y-66000000D03*
%TD*%
D14*
%TO.P,R18,2*%
%TO.N,Net-(R10-Pad1)*%
X114000000Y-103160000D03*
D12*
%TO.P,R18,1*%
%TO.N,INVERTED1*%
X114000000Y-93000000D03*
%TD*%
D14*
%TO.P,R17,2*%
%TO.N,Net-(R1-Pad1)*%
X114000000Y-80160000D03*
D12*
%TO.P,R17,1*%
%TO.N,INVERTED2*%
X114000000Y-70000000D03*
%TD*%
D14*
%TO.P,R16,2*%
%TO.N,Net-(IN_A1-Pad2)*%
X97840000Y-86000000D03*
D12*
%TO.P,R16,1*%
%TO.N,Net-(R10-Pad1)*%
X108000000Y-86000000D03*
%TD*%
D14*
%TO.P,R15,2*%
%TO.N,Net-(IN_A1-Pad3)*%
X97840000Y-89000000D03*
D12*
%TO.P,R15,1*%
%TO.N,Net-(R10-Pad1)*%
X108000000Y-89000000D03*
%TD*%
D14*
%TO.P,R14,2*%
%TO.N,Net-(IN_A1-Pad4)*%
X97840000Y-92000000D03*
D12*
%TO.P,R14,1*%
%TO.N,Net-(R10-Pad1)*%
X108000000Y-92000000D03*
%TD*%
D14*
%TO.P,R13,2*%
%TO.N,Net-(IN_A1-Pad5)*%
X97840000Y-95000000D03*
D12*
%TO.P,R13,1*%
%TO.N,Net-(R10-Pad1)*%
X108000000Y-95000000D03*
%TD*%
D14*
%TO.P,R12,2*%
%TO.N,Net-(IN_A1-Pad6)*%
X97840000Y-98000000D03*
D12*
%TO.P,R12,1*%
%TO.N,Net-(R10-Pad1)*%
X108000000Y-98000000D03*
%TD*%
D14*
%TO.P,R11,2*%
%TO.N,Net-(IN_A1-Pad7)*%
X97840000Y-101000000D03*
D12*
%TO.P,R11,1*%
%TO.N,Net-(R10-Pad1)*%
X108000000Y-101000000D03*
%TD*%
D14*
%TO.P,R10,2*%
%TO.N,Net-(IN_A1-Pad8)*%
X97840000Y-104000000D03*
D12*
%TO.P,R10,1*%
%TO.N,Net-(R10-Pad1)*%
X108000000Y-104000000D03*
%TD*%
D14*
%TO.P,R9,2*%
%TO.N,Net-(IN_A1-Pad9)*%
X97840000Y-107000000D03*
D12*
%TO.P,R9,1*%
%TO.N,Net-(R10-Pad1)*%
X108000000Y-107000000D03*
%TD*%
D14*
%TO.P,R8,2*%
%TO.N,Net-(IN_B1-Pad2)*%
X97840000Y-59000000D03*
D12*
%TO.P,R8,1*%
%TO.N,Net-(R1-Pad1)*%
X108000000Y-59000000D03*
%TD*%
D14*
%TO.P,R7,2*%
%TO.N,Net-(IN_B1-Pad3)*%
X97840000Y-62000000D03*
D12*
%TO.P,R7,1*%
%TO.N,Net-(R1-Pad1)*%
X108000000Y-62000000D03*
%TD*%
D14*
%TO.P,R6,2*%
%TO.N,Net-(IN_B1-Pad4)*%
X97840000Y-65000000D03*
D12*
%TO.P,R6,1*%
%TO.N,Net-(R1-Pad1)*%
X108000000Y-65000000D03*
%TD*%
D14*
%TO.P,R5,2*%
%TO.N,Net-(IN_B1-Pad5)*%
X97840000Y-68000000D03*
D12*
%TO.P,R5,1*%
%TO.N,Net-(R1-Pad1)*%
X108000000Y-68000000D03*
%TD*%
D14*
%TO.P,R4,2*%
%TO.N,Net-(IN_B1-Pad6)*%
X97840000Y-71000000D03*
D12*
%TO.P,R4,1*%
%TO.N,Net-(R1-Pad1)*%
X108000000Y-71000000D03*
%TD*%
D14*
%TO.P,R3,2*%
%TO.N,Net-(IN_B1-Pad7)*%
X97840000Y-74000000D03*
D12*
%TO.P,R3,1*%
%TO.N,Net-(R1-Pad1)*%
X108000000Y-74000000D03*
%TD*%
D14*
%TO.P,R2,2*%
%TO.N,Net-(IN_B1-Pad8)*%
X97840000Y-77000000D03*
D12*
%TO.P,R2,1*%
%TO.N,Net-(R1-Pad1)*%
X108000000Y-77000000D03*
%TD*%
D14*
%TO.P,R1,2*%
%TO.N,Net-(IN_B1-Pad9)*%
X97840000Y-80000000D03*
D12*
%TO.P,R1,1*%
%TO.N,Net-(R1-Pad1)*%
X108000000Y-80000000D03*
%TD*%
D17*
%TO.P,POWER1,10*%
%TO.N,Net-(FB1-Pad1)*%
X148160000Y-60460000D03*
%TO.P,POWER1,8*%
%TO.N,GND*%
X145620000Y-60460000D03*
%TO.P,POWER1,6*%
X143080000Y-60460000D03*
%TO.P,POWER1,4*%
X140540000Y-60460000D03*
%TO.P,POWER1,2*%
%TO.N,Net-(FB2-Pad1)*%
X138000000Y-60460000D03*
%TO.P,POWER1,9*%
%TO.N,Net-(FB1-Pad1)*%
X148160000Y-63000000D03*
%TO.P,POWER1,7*%
%TO.N,GND*%
X145620000Y-63000000D03*
%TO.P,POWER1,5*%
X143080000Y-63000000D03*
%TO.P,POWER1,3*%
X140540000Y-63000000D03*
%TO.P,POWER1,1*%
%TO.N,Net-(FB2-Pad1)*%
%TA.AperFunction,ComponentPad*%
G36*
G01*
X138600000Y-63850000D02*
X137400000Y-63850000D01*
G75*
G02*
X137150000Y-63600000I0J250000D01*
G01*
X137150000Y-62400000D01*
G75*
G02*
X137400000Y-62150000I250000J0D01*
G01*
X138600000Y-62150000D01*
G75*
G02*
X138850000Y-62400000I0J-250000D01*
G01*
X138850000Y-63600000D01*
G75*
G02*
X138600000Y-63850000I-250000J0D01*
G01*
G37*
%TD.AperFunction*%
%TD*%
D18*
%TO.N,GND*%
X157000000Y-58000000D03*
X157000000Y-107000000D03*
X86000000Y-107000000D03*
X86000000Y-58000000D03*
%TD*%
D19*
%TO.N,Net-(IN_B1-Pad9)*%
X97540000Y-79700000D02*
X97840000Y-80000000D01*
X92000000Y-79700000D02*
X97540000Y-79700000D01*
%TO.N,Net-(IN_B1-Pad8)*%
X92160000Y-77000000D02*
X92000000Y-77160000D01*
X97840000Y-77000000D02*
X92160000Y-77000000D01*
%TO.N,Net-(IN_B1-Pad7)*%
X97220000Y-74620000D02*
X97840000Y-74000000D01*
X92000000Y-74620000D02*
X97220000Y-74620000D01*
%TO.N,Net-(IN_B1-Pad6)*%
X93080000Y-71000000D02*
X92000000Y-72080000D01*
X97840000Y-71000000D02*
X93080000Y-71000000D01*
%TO.N,Net-(IN_B1-Pad5)*%
X96300000Y-69540000D02*
X97840000Y-68000000D01*
X92000000Y-69540000D02*
X96300000Y-69540000D01*
%TO.N,Net-(IN_B1-Pad4)*%
X95840000Y-67000000D02*
X92000000Y-67000000D01*
X97840000Y-65000000D02*
X95840000Y-67000000D01*
%TO.N,Net-(IN_B1-Pad3)*%
X95380000Y-64460000D02*
X92000000Y-64460000D01*
X97840000Y-62000000D02*
X95380000Y-64460000D01*
%TO.N,Net-(IN_B1-Pad2)*%
X94920000Y-61920000D02*
X97840000Y-59000000D01*
X92000000Y-61920000D02*
X94920000Y-61920000D01*
%TO.N,Net-(IN_A1-Pad9)*%
X97540000Y-106700000D02*
X97840000Y-107000000D01*
X92000000Y-106700000D02*
X97540000Y-106700000D01*
%TO.N,Net-(IN_A1-Pad8)*%
X97680000Y-104160000D02*
X97840000Y-104000000D01*
X92000000Y-104160000D02*
X97680000Y-104160000D01*
%TO.N,Net-(IN_A1-Pad7)*%
X97220000Y-101620000D02*
X97840000Y-101000000D01*
X92000000Y-101620000D02*
X97220000Y-101620000D01*
%TO.N,Net-(IN_A1-Pad6)*%
X96760000Y-99080000D02*
X97840000Y-98000000D01*
X92000000Y-99080000D02*
X96760000Y-99080000D01*
%TO.N,Net-(IN_A1-Pad5)*%
X96300000Y-96540000D02*
X97840000Y-95000000D01*
X92000000Y-96540000D02*
X96300000Y-96540000D01*
%TO.N,Net-(IN_A1-Pad4)*%
X95840000Y-94000000D02*
X97840000Y-92000000D01*
X92000000Y-94000000D02*
X95840000Y-94000000D01*
%TO.N,Net-(IN_A1-Pad3)*%
X95380000Y-91460000D02*
X97840000Y-89000000D01*
X92000000Y-91460000D02*
X95380000Y-91460000D01*
%TO.N,Net-(IN_A1-Pad2)*%
X94920000Y-88920000D02*
X97840000Y-86000000D01*
X92000000Y-88920000D02*
X94920000Y-88920000D01*
%TO.N,Net-(OUT_B1-Pad3)*%
X149080000Y-88080000D02*
X149000000Y-88000000D01*
X155000000Y-88080000D02*
X149080000Y-88080000D01*
%TO.N,Net-(OUT_B1-Pad2)*%
X150540000Y-85540000D02*
X149000000Y-84000000D01*
X155000000Y-85540000D02*
X150540000Y-85540000D01*
%TO.N,Net-(OUT_A1-Pad3)*%
X149080000Y-99080000D02*
X149000000Y-99000000D01*
X155000000Y-99080000D02*
X149080000Y-99080000D01*
%TO.N,Net-(OUT_A1-Pad2)*%
X150540000Y-96540000D02*
X149000000Y-95000000D01*
X155000000Y-96540000D02*
X150540000Y-96540000D01*
%TO.N,Net-(R1-Pad1)*%
X108000000Y-59000000D02*
X108000000Y-62000000D01*
X108000000Y-62000000D02*
X108000000Y-65000000D01*
X108000000Y-65000000D02*
X108000000Y-68000000D01*
X108000000Y-68000000D02*
X108000000Y-71000000D01*
X108000000Y-71000000D02*
X108000000Y-74000000D01*
X108000000Y-74000000D02*
X108000000Y-77000000D01*
X108000000Y-77000000D02*
X108000000Y-80000000D01*
X113840000Y-80000000D02*
X114000000Y-80160000D01*
X108000000Y-80000000D02*
X113840000Y-80000000D01*
X114000000Y-78540000D02*
X119000000Y-73540000D01*
X114000000Y-80160000D02*
X114000000Y-78540000D01*
%TO.N,Net-(R10-Pad1)*%
X108000000Y-86000000D02*
X108000000Y-89000000D01*
X108000000Y-89000000D02*
X108000000Y-92000000D01*
X108000000Y-92000000D02*
X108000000Y-95000000D01*
X108000000Y-95000000D02*
X108000000Y-98000000D01*
X108000000Y-98000000D02*
X108000000Y-101000000D01*
X108000000Y-101000000D02*
X108000000Y-104000000D01*
X108000000Y-104000000D02*
X108000000Y-107000000D01*
X113160000Y-104000000D02*
X114000000Y-103160000D01*
X108000000Y-104000000D02*
X113160000Y-104000000D01*
X114000000Y-101540000D02*
X114000000Y-103160000D01*
X119000000Y-96540000D02*
X114000000Y-101540000D01*
%TO.N,Net-(R19-Pad1)*%
X127920000Y-76080000D02*
X132000000Y-80160000D01*
X126620000Y-76080000D02*
X127920000Y-76080000D01*
%TO.N,Net-(R20-Pad1)*%
X127920000Y-99080000D02*
X132000000Y-103160000D01*
X126620000Y-99080000D02*
X127920000Y-99080000D01*
%TO.N,Net-(R21-Pad1)*%
X128460000Y-73540000D02*
X132000000Y-70000000D01*
X126620000Y-73540000D02*
X128460000Y-73540000D01*
X128460000Y-73620000D02*
X138840000Y-84000000D01*
X128460000Y-73540000D02*
X128460000Y-73620000D01*
%TO.N,Net-(R22-Pad1)*%
X128460000Y-96540000D02*
X132000000Y-93000000D01*
X126620000Y-96540000D02*
X128460000Y-96540000D01*
X134000000Y-95000000D02*
X132000000Y-93000000D01*
X138840000Y-95000000D02*
X134000000Y-95000000D01*
D20*
%TO.N,+12V*%
X124775490Y-83775490D02*
X125000000Y-84000000D01*
X124775490Y-72844510D02*
X124775490Y-83775490D01*
X126620000Y-71000000D02*
X124775490Y-72844510D01*
X124775490Y-106775490D02*
X125000000Y-107000000D01*
X124775490Y-95844510D02*
X124775490Y-106775490D01*
X126620000Y-94000000D02*
X124775490Y-95844510D01*
X125000000Y-90691000D02*
X125000000Y-84000000D01*
X126620000Y-92311000D02*
X125000000Y-90691000D01*
X126620000Y-94000000D02*
X126620000Y-92311000D01*
X136840000Y-68840000D02*
X128000000Y-60000000D01*
X136840000Y-72000000D02*
X136840000Y-68840000D01*
%TO.N,Net-(FB1-Pad1)*%
X148160000Y-60460000D02*
X148160000Y-63000000D01*
X148160000Y-70840000D02*
X147000000Y-72000000D01*
X148160000Y-63000000D02*
X148160000Y-70840000D01*
%TO.N,-12V*%
X121944501Y-61444501D02*
X120500000Y-60000000D01*
X127444501Y-61444501D02*
X121944501Y-61444501D01*
X121944501Y-75675499D02*
X119000000Y-78620000D01*
X121944501Y-61444501D02*
X121944501Y-75675499D01*
X119000000Y-83000000D02*
X120000000Y-84000000D01*
X119000000Y-78620000D02*
X119000000Y-83000000D01*
X120844510Y-99775490D02*
X119000000Y-101620000D01*
X120844510Y-84844510D02*
X120844510Y-99775490D01*
X120000000Y-84000000D02*
X120844510Y-84844510D01*
X119000000Y-106000000D02*
X120000000Y-107000000D01*
X119000000Y-101620000D02*
X119000000Y-106000000D01*
X135395499Y-69395499D02*
X127444501Y-61444501D01*
X135395499Y-74555499D02*
X135395499Y-69395499D01*
X136840000Y-76000000D02*
X135395499Y-74555499D01*
%TO.N,Net-(FB2-Pad1)*%
X138000000Y-60460000D02*
X138000000Y-63000000D01*
X138000000Y-67000000D02*
X147000000Y-76000000D01*
X138000000Y-63000000D02*
X138000000Y-67000000D01*
D19*
%TO.N,INVERTED2*%
X118000000Y-70000000D02*
X119000000Y-71000000D01*
X114000000Y-70000000D02*
X118000000Y-70000000D01*
X117840000Y-69840000D02*
X118000000Y-70000000D01*
X117840000Y-66000000D02*
X117840000Y-69840000D01*
%TO.N,INVERTED1*%
X118000000Y-93000000D02*
X119000000Y-94000000D01*
X114000000Y-93000000D02*
X118000000Y-93000000D01*
X117840000Y-92840000D02*
X118000000Y-93000000D01*
X117840000Y-89000000D02*
X117840000Y-92840000D01*
%TD*%
D21*
%TO.N,GND*%
X159340001Y-109340000D02*
X83660000Y-109340000D01*
X83660000Y-87230000D01*
X90511928Y-87230000D01*
X90524188Y-87354482D01*
X90560498Y-87474180D01*
X90619463Y-87584494D01*
X90698815Y-87681185D01*
X90795506Y-87760537D01*
X90905820Y-87819502D01*
X90978380Y-87841513D01*
X90846525Y-87973368D01*
X90684010Y-88216589D01*
X90572068Y-88486842D01*
X90515000Y-88773740D01*
X90515000Y-89066260D01*
X90572068Y-89353158D01*
X90684010Y-89623411D01*
X90846525Y-89866632D01*
X91053368Y-90073475D01*
X91227760Y-90190000D01*
X91053368Y-90306525D01*
X90846525Y-90513368D01*
X90684010Y-90756589D01*
X90572068Y-91026842D01*
X90515000Y-91313740D01*
X90515000Y-91606260D01*
X90572068Y-91893158D01*
X90684010Y-92163411D01*
X90846525Y-92406632D01*
X91053368Y-92613475D01*
X91227760Y-92730000D01*
X91053368Y-92846525D01*
X90846525Y-93053368D01*
X90684010Y-93296589D01*
X90572068Y-93566842D01*
X90515000Y-93853740D01*
X90515000Y-94146260D01*
X90572068Y-94433158D01*
X90684010Y-94703411D01*
X90846525Y-94946632D01*
X91053368Y-95153475D01*
X91227760Y-95270000D01*
X91053368Y-95386525D01*
X90846525Y-95593368D01*
X90684010Y-95836589D01*
X90572068Y-96106842D01*
X90515000Y-96393740D01*
X90515000Y-96686260D01*
X90572068Y-96973158D01*
X90684010Y-97243411D01*
X90846525Y-97486632D01*
X91053368Y-97693475D01*
X91227760Y-97810000D01*
X91053368Y-97926525D01*
X90846525Y-98133368D01*
X90684010Y-98376589D01*
X90572068Y-98646842D01*
X90515000Y-98933740D01*
X90515000Y-99226260D01*
X90572068Y-99513158D01*
X90684010Y-99783411D01*
X90846525Y-100026632D01*
X91053368Y-100233475D01*
X91227760Y-100350000D01*
X91053368Y-100466525D01*
X90846525Y-100673368D01*
X90684010Y-100916589D01*
X90572068Y-101186842D01*
X90515000Y-101473740D01*
X90515000Y-101766260D01*
X90572068Y-102053158D01*
X90684010Y-102323411D01*
X90846525Y-102566632D01*
X91053368Y-102773475D01*
X91227760Y-102890000D01*
X91053368Y-103006525D01*
X90846525Y-103213368D01*
X90684010Y-103456589D01*
X90572068Y-103726842D01*
X90515000Y-104013740D01*
X90515000Y-104306260D01*
X90572068Y-104593158D01*
X90684010Y-104863411D01*
X90846525Y-105106632D01*
X91053368Y-105313475D01*
X91227760Y-105430000D01*
X91053368Y-105546525D01*
X90846525Y-105753368D01*
X90684010Y-105996589D01*
X90572068Y-106266842D01*
X90515000Y-106553740D01*
X90515000Y-106846260D01*
X90572068Y-107133158D01*
X90684010Y-107403411D01*
X90846525Y-107646632D01*
X91053368Y-107853475D01*
X91296589Y-108015990D01*
X91566842Y-108127932D01*
X91853740Y-108185000D01*
X92146260Y-108185000D01*
X92433158Y-108127932D01*
X92703411Y-108015990D01*
X92946632Y-107853475D01*
X93153475Y-107646632D01*
X93191983Y-107589000D01*
X96530740Y-107589000D01*
X96568320Y-107679727D01*
X96725363Y-107914759D01*
X96925241Y-108114637D01*
X97160273Y-108271680D01*
X97421426Y-108379853D01*
X97698665Y-108435000D01*
X97981335Y-108435000D01*
X98258574Y-108379853D01*
X98519727Y-108271680D01*
X98754759Y-108114637D01*
X98954637Y-107914759D01*
X99111680Y-107679727D01*
X99219853Y-107418574D01*
X99275000Y-107141335D01*
X99275000Y-106858665D01*
X99219853Y-106581426D01*
X99111680Y-106320273D01*
X98954637Y-106085241D01*
X98754759Y-105885363D01*
X98519727Y-105728320D01*
X98258574Y-105620147D01*
X97981335Y-105565000D01*
X97698665Y-105565000D01*
X97421426Y-105620147D01*
X97160273Y-105728320D01*
X97036533Y-105811000D01*
X93191983Y-105811000D01*
X93153475Y-105753368D01*
X92946632Y-105546525D01*
X92772240Y-105430000D01*
X92946632Y-105313475D01*
X93153475Y-105106632D01*
X93191983Y-105049000D01*
X96859604Y-105049000D01*
X96925241Y-105114637D01*
X97160273Y-105271680D01*
X97421426Y-105379853D01*
X97698665Y-105435000D01*
X97981335Y-105435000D01*
X98258574Y-105379853D01*
X98519727Y-105271680D01*
X98754759Y-105114637D01*
X98954637Y-104914759D01*
X99111680Y-104679727D01*
X99219853Y-104418574D01*
X99275000Y-104141335D01*
X99275000Y-103858665D01*
X99219853Y-103581426D01*
X99111680Y-103320273D01*
X98954637Y-103085241D01*
X98754759Y-102885363D01*
X98519727Y-102728320D01*
X98258574Y-102620147D01*
X97981335Y-102565000D01*
X97698665Y-102565000D01*
X97421426Y-102620147D01*
X97160273Y-102728320D01*
X96925241Y-102885363D01*
X96725363Y-103085241D01*
X96601243Y-103271000D01*
X93191983Y-103271000D01*
X93153475Y-103213368D01*
X92946632Y-103006525D01*
X92772240Y-102890000D01*
X92946632Y-102773475D01*
X93153475Y-102566632D01*
X93191983Y-102509000D01*
X97176340Y-102509000D01*
X97220000Y-102513300D01*
X97263660Y-102509000D01*
X97263667Y-102509000D01*
X97394274Y-102496136D01*
X97561851Y-102445303D01*
X97613005Y-102417961D01*
X97698665Y-102435000D01*
X97981335Y-102435000D01*
X98258574Y-102379853D01*
X98519727Y-102271680D01*
X98754759Y-102114637D01*
X98954637Y-101914759D01*
X99111680Y-101679727D01*
X99219853Y-101418574D01*
X99275000Y-101141335D01*
X99275000Y-100858665D01*
X99219853Y-100581426D01*
X99111680Y-100320273D01*
X98954637Y-100085241D01*
X98754759Y-99885363D01*
X98519727Y-99728320D01*
X98258574Y-99620147D01*
X97981335Y-99565000D01*
X97698665Y-99565000D01*
X97490909Y-99606326D01*
X97668279Y-99428956D01*
X97698665Y-99435000D01*
X97981335Y-99435000D01*
X98258574Y-99379853D01*
X98519727Y-99271680D01*
X98754759Y-99114637D01*
X98954637Y-98914759D01*
X99111680Y-98679727D01*
X99219853Y-98418574D01*
X99275000Y-98141335D01*
X99275000Y-97858665D01*
X99219853Y-97581426D01*
X99111680Y-97320273D01*
X98954637Y-97085241D01*
X98754759Y-96885363D01*
X98519727Y-96728320D01*
X98258574Y-96620147D01*
X97981335Y-96565000D01*
X97698665Y-96565000D01*
X97490910Y-96606326D01*
X97668280Y-96428956D01*
X97698665Y-96435000D01*
X97981335Y-96435000D01*
X98258574Y-96379853D01*
X98519727Y-96271680D01*
X98754759Y-96114637D01*
X98954637Y-95914759D01*
X99111680Y-95679727D01*
X99219853Y-95418574D01*
X99275000Y-95141335D01*
X99275000Y-94858665D01*
X99219853Y-94581426D01*
X99111680Y-94320273D01*
X98954637Y-94085241D01*
X98754759Y-93885363D01*
X98519727Y-93728320D01*
X98258574Y-93620147D01*
X97981335Y-93565000D01*
X97698665Y-93565000D01*
X97490910Y-93606326D01*
X97668280Y-93428956D01*
X97698665Y-93435000D01*
X97981335Y-93435000D01*
X98258574Y-93379853D01*
X98519727Y-93271680D01*
X98754759Y-93114637D01*
X98954637Y-92914759D01*
X99111680Y-92679727D01*
X99219853Y-92418574D01*
X99275000Y-92141335D01*
X99275000Y-91858665D01*
X99219853Y-91581426D01*
X99111680Y-91320273D01*
X98954637Y-91085241D01*
X98754759Y-90885363D01*
X98519727Y-90728320D01*
X98258574Y-90620147D01*
X97981335Y-90565000D01*
X97698665Y-90565000D01*
X97490909Y-90606326D01*
X97668279Y-90428956D01*
X97698665Y-90435000D01*
X97981335Y-90435000D01*
X98258574Y-90379853D01*
X98519727Y-90271680D01*
X98754759Y-90114637D01*
X98954637Y-89914759D01*
X99111680Y-89679727D01*
X99219853Y-89418574D01*
X99275000Y-89141335D01*
X99275000Y-88858665D01*
X99219853Y-88581426D01*
X99111680Y-88320273D01*
X98954637Y-88085241D01*
X98754759Y-87885363D01*
X98519727Y-87728320D01*
X98258574Y-87620147D01*
X97981335Y-87565000D01*
X97698665Y-87565000D01*
X97490910Y-87606326D01*
X97668280Y-87428956D01*
X97698665Y-87435000D01*
X97981335Y-87435000D01*
X98258574Y-87379853D01*
X98519727Y-87271680D01*
X98754759Y-87114637D01*
X98954637Y-86914759D01*
X99111680Y-86679727D01*
X99219853Y-86418574D01*
X99275000Y-86141335D01*
X99275000Y-85858665D01*
X99219853Y-85581426D01*
X99111680Y-85320273D01*
X98954637Y-85085241D01*
X98754759Y-84885363D01*
X98519727Y-84728320D01*
X98258574Y-84620147D01*
X97981335Y-84565000D01*
X97698665Y-84565000D01*
X97421426Y-84620147D01*
X97160273Y-84728320D01*
X96925241Y-84885363D01*
X96725363Y-85085241D01*
X96568320Y-85320273D01*
X96460147Y-85581426D01*
X96405000Y-85858665D01*
X96405000Y-86141335D01*
X96411044Y-86171720D01*
X94551765Y-88031000D01*
X93191983Y-88031000D01*
X93153475Y-87973368D01*
X93021620Y-87841513D01*
X93094180Y-87819502D01*
X93204494Y-87760537D01*
X93301185Y-87681185D01*
X93380537Y-87584494D01*
X93439502Y-87474180D01*
X93475812Y-87354482D01*
X93488072Y-87230000D01*
X93485000Y-86665750D01*
X93326250Y-86507000D01*
X92127000Y-86507000D01*
X92127000Y-86527000D01*
X91873000Y-86527000D01*
X91873000Y-86507000D01*
X90673750Y-86507000D01*
X90515000Y-86665750D01*
X90511928Y-87230000D01*
X83660000Y-87230000D01*
X83660000Y-85530000D01*
X90511928Y-85530000D01*
X90515000Y-86094250D01*
X90673750Y-86253000D01*
X91873000Y-86253000D01*
X91873000Y-85053750D01*
X92127000Y-85053750D01*
X92127000Y-86253000D01*
X93326250Y-86253000D01*
X93485000Y-86094250D01*
X93488072Y-85530000D01*
X93475812Y-85405518D01*
X93439502Y-85285820D01*
X93380537Y-85175506D01*
X93301185Y-85078815D01*
X93204494Y-84999463D01*
X93094180Y-84940498D01*
X92974482Y-84904188D01*
X92850000Y-84891928D01*
X92285750Y-84895000D01*
X92127000Y-85053750D01*
X91873000Y-85053750D01*
X91714250Y-84895000D01*
X91150000Y-84891928D01*
X91025518Y-84904188D01*
X90905820Y-84940498D01*
X90795506Y-84999463D01*
X90698815Y-85078815D01*
X90619463Y-85175506D01*
X90560498Y-85285820D01*
X90524188Y-85405518D01*
X90511928Y-85530000D01*
X83660000Y-85530000D01*
X83660000Y-60230000D01*
X90511928Y-60230000D01*
X90524188Y-60354482D01*
X90560498Y-60474180D01*
X90619463Y-60584494D01*
X90698815Y-60681185D01*
X90795506Y-60760537D01*
X90905820Y-60819502D01*
X90978380Y-60841513D01*
X90846525Y-60973368D01*
X90684010Y-61216589D01*
X90572068Y-61486842D01*
X90515000Y-61773740D01*
X90515000Y-62066260D01*
X90572068Y-62353158D01*
X90684010Y-62623411D01*
X90846525Y-62866632D01*
X91053368Y-63073475D01*
X91227760Y-63190000D01*
X91053368Y-63306525D01*
X90846525Y-63513368D01*
X90684010Y-63756589D01*
X90572068Y-64026842D01*
X90515000Y-64313740D01*
X90515000Y-64606260D01*
X90572068Y-64893158D01*
X90684010Y-65163411D01*
X90846525Y-65406632D01*
X91053368Y-65613475D01*
X91227760Y-65730000D01*
X91053368Y-65846525D01*
X90846525Y-66053368D01*
X90684010Y-66296589D01*
X90572068Y-66566842D01*
X90515000Y-66853740D01*
X90515000Y-67146260D01*
X90572068Y-67433158D01*
X90684010Y-67703411D01*
X90846525Y-67946632D01*
X91053368Y-68153475D01*
X91227760Y-68270000D01*
X91053368Y-68386525D01*
X90846525Y-68593368D01*
X90684010Y-68836589D01*
X90572068Y-69106842D01*
X90515000Y-69393740D01*
X90515000Y-69686260D01*
X90572068Y-69973158D01*
X90684010Y-70243411D01*
X90846525Y-70486632D01*
X91053368Y-70693475D01*
X91227760Y-70810000D01*
X91053368Y-70926525D01*
X90846525Y-71133368D01*
X90684010Y-71376589D01*
X90572068Y-71646842D01*
X90515000Y-71933740D01*
X90515000Y-72226260D01*
X90572068Y-72513158D01*
X90684010Y-72783411D01*
X90846525Y-73026632D01*
X91053368Y-73233475D01*
X91227760Y-73350000D01*
X91053368Y-73466525D01*
X90846525Y-73673368D01*
X90684010Y-73916589D01*
X90572068Y-74186842D01*
X90515000Y-74473740D01*
X90515000Y-74766260D01*
X90572068Y-75053158D01*
X90684010Y-75323411D01*
X90846525Y-75566632D01*
X91053368Y-75773475D01*
X91227760Y-75890000D01*
X91053368Y-76006525D01*
X90846525Y-76213368D01*
X90684010Y-76456589D01*
X90572068Y-76726842D01*
X90515000Y-77013740D01*
X90515000Y-77306260D01*
X90572068Y-77593158D01*
X90684010Y-77863411D01*
X90846525Y-78106632D01*
X91053368Y-78313475D01*
X91227760Y-78430000D01*
X91053368Y-78546525D01*
X90846525Y-78753368D01*
X90684010Y-78996589D01*
X90572068Y-79266842D01*
X90515000Y-79553740D01*
X90515000Y-79846260D01*
X90572068Y-80133158D01*
X90684010Y-80403411D01*
X90846525Y-80646632D01*
X91053368Y-80853475D01*
X91296589Y-81015990D01*
X91566842Y-81127932D01*
X91853740Y-81185000D01*
X92146260Y-81185000D01*
X92433158Y-81127932D01*
X92703411Y-81015990D01*
X92946632Y-80853475D01*
X93153475Y-80646632D01*
X93191983Y-80589000D01*
X96530740Y-80589000D01*
X96568320Y-80679727D01*
X96725363Y-80914759D01*
X96925241Y-81114637D01*
X97160273Y-81271680D01*
X97421426Y-81379853D01*
X97698665Y-81435000D01*
X97981335Y-81435000D01*
X98258574Y-81379853D01*
X98519727Y-81271680D01*
X98754759Y-81114637D01*
X98954637Y-80914759D01*
X99111680Y-80679727D01*
X99219853Y-80418574D01*
X99275000Y-80141335D01*
X99275000Y-79858665D01*
X99219853Y-79581426D01*
X99111680Y-79320273D01*
X98954637Y-79085241D01*
X98754759Y-78885363D01*
X98519727Y-78728320D01*
X98258574Y-78620147D01*
X97981335Y-78565000D01*
X97698665Y-78565000D01*
X97421426Y-78620147D01*
X97160273Y-78728320D01*
X97036533Y-78811000D01*
X93191983Y-78811000D01*
X93153475Y-78753368D01*
X92946632Y-78546525D01*
X92772240Y-78430000D01*
X92946632Y-78313475D01*
X93153475Y-78106632D01*
X93298892Y-77889000D01*
X96708151Y-77889000D01*
X96725363Y-77914759D01*
X96925241Y-78114637D01*
X97160273Y-78271680D01*
X97421426Y-78379853D01*
X97698665Y-78435000D01*
X97981335Y-78435000D01*
X98258574Y-78379853D01*
X98519727Y-78271680D01*
X98754759Y-78114637D01*
X98954637Y-77914759D01*
X99111680Y-77679727D01*
X99219853Y-77418574D01*
X99275000Y-77141335D01*
X99275000Y-76858665D01*
X99219853Y-76581426D01*
X99111680Y-76320273D01*
X98954637Y-76085241D01*
X98754759Y-75885363D01*
X98519727Y-75728320D01*
X98258574Y-75620147D01*
X97981335Y-75565000D01*
X97698665Y-75565000D01*
X97421426Y-75620147D01*
X97160273Y-75728320D01*
X96925241Y-75885363D01*
X96725363Y-76085241D01*
X96708151Y-76111000D01*
X93051107Y-76111000D01*
X92946632Y-76006525D01*
X92772240Y-75890000D01*
X92946632Y-75773475D01*
X93153475Y-75566632D01*
X93191983Y-75509000D01*
X97176340Y-75509000D01*
X97220000Y-75513300D01*
X97263660Y-75509000D01*
X97263667Y-75509000D01*
X97394274Y-75496136D01*
X97561851Y-75445303D01*
X97613005Y-75417961D01*
X97698665Y-75435000D01*
X97981335Y-75435000D01*
X98258574Y-75379853D01*
X98519727Y-75271680D01*
X98754759Y-75114637D01*
X98954637Y-74914759D01*
X99111680Y-74679727D01*
X99219853Y-74418574D01*
X99275000Y-74141335D01*
X99275000Y-73858665D01*
X99219853Y-73581426D01*
X99111680Y-73320273D01*
X98954637Y-73085241D01*
X98754759Y-72885363D01*
X98519727Y-72728320D01*
X98258574Y-72620147D01*
X97981335Y-72565000D01*
X97698665Y-72565000D01*
X97421426Y-72620147D01*
X97160273Y-72728320D01*
X96925241Y-72885363D01*
X96725363Y-73085241D01*
X96568320Y-73320273D01*
X96460147Y-73581426D01*
X96430394Y-73731000D01*
X93191983Y-73731000D01*
X93153475Y-73673368D01*
X92946632Y-73466525D01*
X92772240Y-73350000D01*
X92946632Y-73233475D01*
X93153475Y-73026632D01*
X93315990Y-72783411D01*
X93427932Y-72513158D01*
X93485000Y-72226260D01*
X93485000Y-71933740D01*
X93476101Y-71889000D01*
X96708151Y-71889000D01*
X96725363Y-71914759D01*
X96925241Y-72114637D01*
X97160273Y-72271680D01*
X97421426Y-72379853D01*
X97698665Y-72435000D01*
X97981335Y-72435000D01*
X98258574Y-72379853D01*
X98519727Y-72271680D01*
X98754759Y-72114637D01*
X98954637Y-71914759D01*
X99111680Y-71679727D01*
X99219853Y-71418574D01*
X99275000Y-71141335D01*
X99275000Y-70858665D01*
X99219853Y-70581426D01*
X99111680Y-70320273D01*
X98954637Y-70085241D01*
X98754759Y-69885363D01*
X98519727Y-69728320D01*
X98258574Y-69620147D01*
X97981335Y-69565000D01*
X97698665Y-69565000D01*
X97490910Y-69606326D01*
X97668280Y-69428956D01*
X97698665Y-69435000D01*
X97981335Y-69435000D01*
X98258574Y-69379853D01*
X98519727Y-69271680D01*
X98754759Y-69114637D01*
X98954637Y-68914759D01*
X99111680Y-68679727D01*
X99219853Y-68418574D01*
X99275000Y-68141335D01*
X99275000Y-67858665D01*
X99219853Y-67581426D01*
X99111680Y-67320273D01*
X98954637Y-67085241D01*
X98754759Y-66885363D01*
X98519727Y-66728320D01*
X98258574Y-66620147D01*
X97981335Y-66565000D01*
X97698665Y-66565000D01*
X97490910Y-66606326D01*
X97668280Y-66428956D01*
X97698665Y-66435000D01*
X97981335Y-66435000D01*
X98258574Y-66379853D01*
X98519727Y-66271680D01*
X98754759Y-66114637D01*
X98954637Y-65914759D01*
X99111680Y-65679727D01*
X99219853Y-65418574D01*
X99275000Y-65141335D01*
X99275000Y-64858665D01*
X99219853Y-64581426D01*
X99111680Y-64320273D01*
X98954637Y-64085241D01*
X98754759Y-63885363D01*
X98519727Y-63728320D01*
X98258574Y-63620147D01*
X97981335Y-63565000D01*
X97698665Y-63565000D01*
X97490909Y-63606326D01*
X97668279Y-63428956D01*
X97698665Y-63435000D01*
X97981335Y-63435000D01*
X98258574Y-63379853D01*
X98519727Y-63271680D01*
X98754759Y-63114637D01*
X98954637Y-62914759D01*
X99111680Y-62679727D01*
X99219853Y-62418574D01*
X99275000Y-62141335D01*
X99275000Y-61858665D01*
X99219853Y-61581426D01*
X99111680Y-61320273D01*
X98954637Y-61085241D01*
X98754759Y-60885363D01*
X98519727Y-60728320D01*
X98258574Y-60620147D01*
X97981335Y-60565000D01*
X97698665Y-60565000D01*
X97490910Y-60606326D01*
X97668280Y-60428956D01*
X97698665Y-60435000D01*
X97981335Y-60435000D01*
X98258574Y-60379853D01*
X98519727Y-60271680D01*
X98754759Y-60114637D01*
X98954637Y-59914759D01*
X99111680Y-59679727D01*
X99219853Y-59418574D01*
X99275000Y-59141335D01*
X99275000Y-58858665D01*
X106565000Y-58858665D01*
X106565000Y-59141335D01*
X106620147Y-59418574D01*
X106728320Y-59679727D01*
X106885363Y-59914759D01*
X107085241Y-60114637D01*
X107111000Y-60131849D01*
X107111001Y-60868151D01*
X107085241Y-60885363D01*
X106885363Y-61085241D01*
X106728320Y-61320273D01*
X106620147Y-61581426D01*
X106565000Y-61858665D01*
X106565000Y-62141335D01*
X106620147Y-62418574D01*
X106728320Y-62679727D01*
X106885363Y-62914759D01*
X107085241Y-63114637D01*
X107111000Y-63131849D01*
X107111001Y-63868151D01*
X107085241Y-63885363D01*
X106885363Y-64085241D01*
X106728320Y-64320273D01*
X106620147Y-64581426D01*
X106565000Y-64858665D01*
X106565000Y-65141335D01*
X106620147Y-65418574D01*
X106728320Y-65679727D01*
X106885363Y-65914759D01*
X107085241Y-66114637D01*
X107111000Y-66131849D01*
X107111001Y-66868151D01*
X107085241Y-66885363D01*
X106885363Y-67085241D01*
X106728320Y-67320273D01*
X106620147Y-67581426D01*
X106565000Y-67858665D01*
X106565000Y-68141335D01*
X106620147Y-68418574D01*
X106728320Y-68679727D01*
X106885363Y-68914759D01*
X107085241Y-69114637D01*
X107111000Y-69131849D01*
X107111001Y-69868151D01*
X107085241Y-69885363D01*
X106885363Y-70085241D01*
X106728320Y-70320273D01*
X106620147Y-70581426D01*
X106565000Y-70858665D01*
X106565000Y-71141335D01*
X106620147Y-71418574D01*
X106728320Y-71679727D01*
X106885363Y-71914759D01*
X107085241Y-72114637D01*
X107111000Y-72131849D01*
X107111001Y-72868151D01*
X107085241Y-72885363D01*
X106885363Y-73085241D01*
X106728320Y-73320273D01*
X106620147Y-73581426D01*
X106565000Y-73858665D01*
X106565000Y-74141335D01*
X106620147Y-74418574D01*
X106728320Y-74679727D01*
X106885363Y-74914759D01*
X107085241Y-75114637D01*
X107111000Y-75131849D01*
X107111001Y-75868151D01*
X107085241Y-75885363D01*
X106885363Y-76085241D01*
X106728320Y-76320273D01*
X106620147Y-76581426D01*
X106565000Y-76858665D01*
X106565000Y-77141335D01*
X106620147Y-77418574D01*
X106728320Y-77679727D01*
X106885363Y-77914759D01*
X107085241Y-78114637D01*
X107111000Y-78131849D01*
X107111001Y-78868151D01*
X107085241Y-78885363D01*
X106885363Y-79085241D01*
X106728320Y-79320273D01*
X106620147Y-79581426D01*
X106565000Y-79858665D01*
X106565000Y-80141335D01*
X106620147Y-80418574D01*
X106728320Y-80679727D01*
X106885363Y-80914759D01*
X107085241Y-81114637D01*
X107320273Y-81271680D01*
X107581426Y-81379853D01*
X107858665Y-81435000D01*
X108141335Y-81435000D01*
X108418574Y-81379853D01*
X108679727Y-81271680D01*
X108914759Y-81114637D01*
X109114637Y-80914759D01*
X109131849Y-80889000D01*
X112761243Y-80889000D01*
X112885363Y-81074759D01*
X113085241Y-81274637D01*
X113320273Y-81431680D01*
X113581426Y-81539853D01*
X113858665Y-81595000D01*
X114141335Y-81595000D01*
X114418574Y-81539853D01*
X114679727Y-81431680D01*
X114914759Y-81274637D01*
X115114637Y-81074759D01*
X115271680Y-80839727D01*
X115379853Y-80578574D01*
X115435000Y-80301335D01*
X115435000Y-80018665D01*
X115379853Y-79741426D01*
X115271680Y-79480273D01*
X115114637Y-79245241D01*
X114914759Y-79045363D01*
X114889000Y-79028151D01*
X114889000Y-78908235D01*
X117243489Y-76553747D01*
X117336285Y-76771646D01*
X117495500Y-77004895D01*
X117697161Y-77202601D01*
X117926741Y-77352735D01*
X117798899Y-77421068D01*
X117580392Y-77600392D01*
X117401068Y-77818899D01*
X117267818Y-78068192D01*
X117185764Y-78338691D01*
X117158057Y-78620000D01*
X117185764Y-78901309D01*
X117267818Y-79171808D01*
X117401068Y-79421101D01*
X117580392Y-79639608D01*
X117798899Y-79818932D01*
X117920500Y-79883929D01*
X117920501Y-82946961D01*
X117915277Y-83000000D01*
X117936120Y-83211618D01*
X117997847Y-83415104D01*
X117997848Y-83415106D01*
X118098087Y-83602640D01*
X118232986Y-83767015D01*
X118274179Y-83800821D01*
X118565000Y-84091643D01*
X118565000Y-84141335D01*
X118620147Y-84418574D01*
X118728320Y-84679727D01*
X118885363Y-84914759D01*
X119085241Y-85114637D01*
X119320273Y-85271680D01*
X119581426Y-85379853D01*
X119765010Y-85416371D01*
X119765011Y-92561928D01*
X118819163Y-92561928D01*
X118729000Y-92471765D01*
X118729000Y-90131849D01*
X118754759Y-90114637D01*
X118954637Y-89914759D01*
X119111680Y-89679727D01*
X119219853Y-89418574D01*
X119275000Y-89141335D01*
X119275000Y-88858665D01*
X119219853Y-88581426D01*
X119111680Y-88320273D01*
X118954637Y-88085241D01*
X118754759Y-87885363D01*
X118519727Y-87728320D01*
X118258574Y-87620147D01*
X117981335Y-87565000D01*
X117698665Y-87565000D01*
X117421426Y-87620147D01*
X117160273Y-87728320D01*
X116925241Y-87885363D01*
X116725363Y-88085241D01*
X116568320Y-88320273D01*
X116460147Y-88581426D01*
X116405000Y-88858665D01*
X116405000Y-89141335D01*
X116460147Y-89418574D01*
X116568320Y-89679727D01*
X116725363Y-89914759D01*
X116925241Y-90114637D01*
X116951000Y-90131849D01*
X116951001Y-92111000D01*
X115131849Y-92111000D01*
X115114637Y-92085241D01*
X114914759Y-91885363D01*
X114679727Y-91728320D01*
X114418574Y-91620147D01*
X114141335Y-91565000D01*
X113858665Y-91565000D01*
X113581426Y-91620147D01*
X113320273Y-91728320D01*
X113085241Y-91885363D01*
X112885363Y-92085241D01*
X112728320Y-92320273D01*
X112620147Y-92581426D01*
X112565000Y-92858665D01*
X112565000Y-93141335D01*
X112620147Y-93418574D01*
X112728320Y-93679727D01*
X112885363Y-93914759D01*
X113085241Y-94114637D01*
X113320273Y-94271680D01*
X113581426Y-94379853D01*
X113858665Y-94435000D01*
X114141335Y-94435000D01*
X114418574Y-94379853D01*
X114679727Y-94271680D01*
X114914759Y-94114637D01*
X115114637Y-93914759D01*
X115131849Y-93889000D01*
X117161928Y-93889000D01*
X117161928Y-94800000D01*
X117174188Y-94924482D01*
X117210498Y-95044180D01*
X117269463Y-95154494D01*
X117348815Y-95251185D01*
X117445506Y-95330537D01*
X117555820Y-95389502D01*
X117675518Y-95425812D01*
X117693482Y-95427581D01*
X117580392Y-95520392D01*
X117401068Y-95738899D01*
X117267818Y-95988192D01*
X117185764Y-96258691D01*
X117158057Y-96540000D01*
X117185764Y-96821309D01*
X117249929Y-97032835D01*
X113402264Y-100880501D01*
X113368341Y-100908341D01*
X113257247Y-101043710D01*
X113174697Y-101198150D01*
X113150430Y-101278148D01*
X113131107Y-101341851D01*
X113123864Y-101365727D01*
X113111000Y-101496334D01*
X113111000Y-101496340D01*
X113106700Y-101540000D01*
X113111000Y-101583660D01*
X113111000Y-102028151D01*
X113085241Y-102045363D01*
X112885363Y-102245241D01*
X112728320Y-102480273D01*
X112620147Y-102741426D01*
X112565000Y-103018665D01*
X112565000Y-103111000D01*
X109131849Y-103111000D01*
X109114637Y-103085241D01*
X108914759Y-102885363D01*
X108889000Y-102868151D01*
X108889000Y-102131849D01*
X108914759Y-102114637D01*
X109114637Y-101914759D01*
X109271680Y-101679727D01*
X109379853Y-101418574D01*
X109435000Y-101141335D01*
X109435000Y-100858665D01*
X109379853Y-100581426D01*
X109271680Y-100320273D01*
X109114637Y-100085241D01*
X108914759Y-99885363D01*
X108889000Y-99868151D01*
X108889000Y-99131849D01*
X108914759Y-99114637D01*
X109114637Y-98914759D01*
X109271680Y-98679727D01*
X109379853Y-98418574D01*
X109435000Y-98141335D01*
X109435000Y-97858665D01*
X109379853Y-97581426D01*
X109271680Y-97320273D01*
X109114637Y-97085241D01*
X108914759Y-96885363D01*
X108889000Y-96868151D01*
X108889000Y-96131849D01*
X108914759Y-96114637D01*
X109114637Y-95914759D01*
X109271680Y-95679727D01*
X109379853Y-95418574D01*
X109435000Y-95141335D01*
X109435000Y-94858665D01*
X109379853Y-94581426D01*
X109271680Y-94320273D01*
X109114637Y-94085241D01*
X108914759Y-93885363D01*
X108889000Y-93868151D01*
X108889000Y-93131849D01*
X108914759Y-93114637D01*
X109114637Y-92914759D01*
X109271680Y-92679727D01*
X109379853Y-92418574D01*
X109435000Y-92141335D01*
X109435000Y-91858665D01*
X109379853Y-91581426D01*
X109271680Y-91320273D01*
X109114637Y-91085241D01*
X108914759Y-90885363D01*
X108889000Y-90868151D01*
X108889000Y-90131849D01*
X108914759Y-90114637D01*
X109114637Y-89914759D01*
X109271680Y-89679727D01*
X109379853Y-89418574D01*
X109435000Y-89141335D01*
X109435000Y-88858665D01*
X109379853Y-88581426D01*
X109271680Y-88320273D01*
X109114637Y-88085241D01*
X108914759Y-87885363D01*
X108889000Y-87868151D01*
X108889000Y-87131849D01*
X108914759Y-87114637D01*
X109114637Y-86914759D01*
X109271680Y-86679727D01*
X109379853Y-86418574D01*
X109435000Y-86141335D01*
X109435000Y-85858665D01*
X109379853Y-85581426D01*
X109271680Y-85320273D01*
X109114637Y-85085241D01*
X108914759Y-84885363D01*
X108679727Y-84728320D01*
X108418574Y-84620147D01*
X108141335Y-84565000D01*
X107858665Y-84565000D01*
X107581426Y-84620147D01*
X107320273Y-84728320D01*
X107085241Y-84885363D01*
X106885363Y-85085241D01*
X106728320Y-85320273D01*
X106620147Y-85581426D01*
X106565000Y-85858665D01*
X106565000Y-86141335D01*
X106620147Y-86418574D01*
X106728320Y-86679727D01*
X106885363Y-86914759D01*
X107085241Y-87114637D01*
X107111000Y-87131849D01*
X107111001Y-87868151D01*
X107085241Y-87885363D01*
X106885363Y-88085241D01*
X106728320Y-88320273D01*
X106620147Y-88581426D01*
X106565000Y-88858665D01*
X106565000Y-89141335D01*
X106620147Y-89418574D01*
X106728320Y-89679727D01*
X106885363Y-89914759D01*
X107085241Y-90114637D01*
X107111000Y-90131849D01*
X107111001Y-90868151D01*
X107085241Y-90885363D01*
X106885363Y-91085241D01*
X106728320Y-91320273D01*
X106620147Y-91581426D01*
X106565000Y-91858665D01*
X106565000Y-92141335D01*
X106620147Y-92418574D01*
X106728320Y-92679727D01*
X106885363Y-92914759D01*
X107085241Y-93114637D01*
X107111000Y-93131849D01*
X107111001Y-93868151D01*
X107085241Y-93885363D01*
X106885363Y-94085241D01*
X106728320Y-94320273D01*
X106620147Y-94581426D01*
X106565000Y-94858665D01*
X106565000Y-95141335D01*
X106620147Y-95418574D01*
X106728320Y-95679727D01*
X106885363Y-95914759D01*
X107085241Y-96114637D01*
X107111000Y-96131849D01*
X107111001Y-96868151D01*
X107085241Y-96885363D01*
X106885363Y-97085241D01*
X106728320Y-97320273D01*
X106620147Y-97581426D01*
X106565000Y-97858665D01*
X106565000Y-98141335D01*
X106620147Y-98418574D01*
X106728320Y-98679727D01*
X106885363Y-98914759D01*
X107085241Y-99114637D01*
X107111000Y-99131849D01*
X107111001Y-99868151D01*
X107085241Y-99885363D01*
X106885363Y-100085241D01*
X106728320Y-100320273D01*
X106620147Y-100581426D01*
X106565000Y-100858665D01*
X106565000Y-101141335D01*
X106620147Y-101418574D01*
X106728320Y-101679727D01*
X106885363Y-101914759D01*
X107085241Y-102114637D01*
X107111000Y-102131849D01*
X107111001Y-102868151D01*
X107085241Y-102885363D01*
X106885363Y-103085241D01*
X106728320Y-103320273D01*
X106620147Y-103581426D01*
X106565000Y-103858665D01*
X106565000Y-104141335D01*
X106620147Y-104418574D01*
X106728320Y-104679727D01*
X106885363Y-104914759D01*
X107085241Y-105114637D01*
X107111000Y-105131849D01*
X107111001Y-105868151D01*
X107085241Y-105885363D01*
X106885363Y-106085241D01*
X106728320Y-106320273D01*
X106620147Y-106581426D01*
X106565000Y-106858665D01*
X106565000Y-107141335D01*
X106620147Y-107418574D01*
X106728320Y-107679727D01*
X106885363Y-107914759D01*
X107085241Y-108114637D01*
X107320273Y-108271680D01*
X107581426Y-108379853D01*
X107858665Y-108435000D01*
X108141335Y-108435000D01*
X108418574Y-108379853D01*
X108679727Y-108271680D01*
X108914759Y-108114637D01*
X109114637Y-107914759D01*
X109271680Y-107679727D01*
X109379853Y-107418574D01*
X109435000Y-107141335D01*
X109435000Y-106858665D01*
X109379853Y-106581426D01*
X109271680Y-106320273D01*
X109114637Y-106085241D01*
X108914759Y-105885363D01*
X108889000Y-105868151D01*
X108889000Y-105131849D01*
X108914759Y-105114637D01*
X109114637Y-104914759D01*
X109131849Y-104889000D01*
X113116340Y-104889000D01*
X113160000Y-104893300D01*
X113203660Y-104889000D01*
X113203667Y-104889000D01*
X113334274Y-104876136D01*
X113501851Y-104825303D01*
X113656291Y-104742753D01*
X113791659Y-104631659D01*
X113819499Y-104597736D01*
X113828279Y-104588956D01*
X113858665Y-104595000D01*
X114141335Y-104595000D01*
X114418574Y-104539853D01*
X114679727Y-104431680D01*
X114914759Y-104274637D01*
X115114637Y-104074759D01*
X115271680Y-103839727D01*
X115379853Y-103578574D01*
X115435000Y-103301335D01*
X115435000Y-103018665D01*
X115379853Y-102741426D01*
X115271680Y-102480273D01*
X115114637Y-102245241D01*
X114914759Y-102045363D01*
X114889000Y-102028151D01*
X114889000Y-101908235D01*
X117243489Y-99553747D01*
X117336285Y-99771646D01*
X117495500Y-100004895D01*
X117697161Y-100202601D01*
X117926741Y-100352735D01*
X117798899Y-100421068D01*
X117580392Y-100600392D01*
X117401068Y-100818899D01*
X117267818Y-101068192D01*
X117185764Y-101338691D01*
X117158057Y-101620000D01*
X117185764Y-101901309D01*
X117267818Y-102171808D01*
X117401068Y-102421101D01*
X117580392Y-102639608D01*
X117798899Y-102818932D01*
X117920500Y-102883929D01*
X117920501Y-105946961D01*
X117915277Y-106000000D01*
X117936120Y-106211618D01*
X117992465Y-106397361D01*
X117997848Y-106415106D01*
X118098087Y-106602640D01*
X118232986Y-106767015D01*
X118274179Y-106800821D01*
X118565000Y-107091643D01*
X118565000Y-107141335D01*
X118620147Y-107418574D01*
X118728320Y-107679727D01*
X118885363Y-107914759D01*
X119085241Y-108114637D01*
X119320273Y-108271680D01*
X119581426Y-108379853D01*
X119858665Y-108435000D01*
X120141335Y-108435000D01*
X120418574Y-108379853D01*
X120679727Y-108271680D01*
X120914759Y-108114637D01*
X121114637Y-107914759D01*
X121271680Y-107679727D01*
X121379853Y-107418574D01*
X121435000Y-107141335D01*
X121435000Y-106858665D01*
X121379853Y-106581426D01*
X121271680Y-106320273D01*
X121114637Y-106085241D01*
X120914759Y-105885363D01*
X120679727Y-105728320D01*
X120418574Y-105620147D01*
X120141335Y-105565000D01*
X120091643Y-105565000D01*
X120079500Y-105552857D01*
X120079500Y-102883929D01*
X120201101Y-102818932D01*
X120419608Y-102639608D01*
X120598932Y-102421101D01*
X120732182Y-102171808D01*
X120814236Y-101901309D01*
X120841943Y-101620000D01*
X120814236Y-101338691D01*
X120812773Y-101333869D01*
X121570331Y-100576312D01*
X121611525Y-100542505D01*
X121746424Y-100378130D01*
X121846663Y-100190596D01*
X121908390Y-99987109D01*
X121924010Y-99828519D01*
X121924010Y-99828512D01*
X121929232Y-99775491D01*
X121924010Y-99722469D01*
X121924010Y-84897528D01*
X121929232Y-84844509D01*
X121924010Y-84791490D01*
X121924010Y-84791481D01*
X121908390Y-84632891D01*
X121846663Y-84429404D01*
X121746424Y-84241870D01*
X121611525Y-84077495D01*
X121570330Y-84043687D01*
X121435000Y-83908357D01*
X121435000Y-83858665D01*
X123565000Y-83858665D01*
X123565000Y-84141335D01*
X123620147Y-84418574D01*
X123728320Y-84679727D01*
X123885363Y-84914759D01*
X123920501Y-84949897D01*
X123920500Y-90637971D01*
X123915277Y-90691000D01*
X123936120Y-90902618D01*
X123997847Y-91106105D01*
X124098086Y-91293640D01*
X124232985Y-91458015D01*
X124274184Y-91491827D01*
X125526116Y-92743759D01*
X125418899Y-92801068D01*
X125200392Y-92980392D01*
X125021068Y-93198899D01*
X124887818Y-93448192D01*
X124805764Y-93718691D01*
X124778057Y-94000000D01*
X124805764Y-94281309D01*
X124807227Y-94286131D01*
X124049674Y-95043683D01*
X124008475Y-95077495D01*
X123873576Y-95241870D01*
X123773337Y-95429405D01*
X123722273Y-95597740D01*
X123711610Y-95632892D01*
X123690767Y-95844510D01*
X123695990Y-95897539D01*
X123695991Y-106398322D01*
X123620147Y-106581426D01*
X123565000Y-106858665D01*
X123565000Y-107141335D01*
X123620147Y-107418574D01*
X123728320Y-107679727D01*
X123885363Y-107914759D01*
X124085241Y-108114637D01*
X124320273Y-108271680D01*
X124581426Y-108379853D01*
X124858665Y-108435000D01*
X125141335Y-108435000D01*
X125418574Y-108379853D01*
X125679727Y-108271680D01*
X125914759Y-108114637D01*
X126114637Y-107914759D01*
X126271680Y-107679727D01*
X126379853Y-107418574D01*
X126435000Y-107141335D01*
X126435000Y-106858665D01*
X126379853Y-106581426D01*
X126271680Y-106320273D01*
X126114637Y-106085241D01*
X125914759Y-105885363D01*
X125854990Y-105845427D01*
X125854990Y-103010102D01*
X126093000Y-103055000D01*
X126493000Y-103055000D01*
X126493000Y-101747000D01*
X126747000Y-101747000D01*
X126747000Y-103055000D01*
X127147000Y-103055000D01*
X127424514Y-103002650D01*
X127686483Y-102897166D01*
X127922839Y-102742601D01*
X128124500Y-102544895D01*
X128283715Y-102311646D01*
X128394367Y-102051818D01*
X128411904Y-101969039D01*
X128289915Y-101747000D01*
X126747000Y-101747000D01*
X126493000Y-101747000D01*
X126473000Y-101747000D01*
X126473000Y-101493000D01*
X126493000Y-101493000D01*
X126493000Y-101473000D01*
X126747000Y-101473000D01*
X126747000Y-101493000D01*
X128289915Y-101493000D01*
X128411904Y-101270961D01*
X128394367Y-101188182D01*
X128283715Y-100928354D01*
X128124500Y-100695105D01*
X127922839Y-100497399D01*
X127693259Y-100347265D01*
X127821101Y-100278932D01*
X127843398Y-100260633D01*
X130571044Y-102988279D01*
X130565000Y-103018665D01*
X130565000Y-103301335D01*
X130620147Y-103578574D01*
X130728320Y-103839727D01*
X130885363Y-104074759D01*
X131085241Y-104274637D01*
X131320273Y-104431680D01*
X131581426Y-104539853D01*
X131858665Y-104595000D01*
X132141335Y-104595000D01*
X132418574Y-104539853D01*
X132679727Y-104431680D01*
X132914759Y-104274637D01*
X133114637Y-104074759D01*
X133271680Y-103839727D01*
X133379853Y-103578574D01*
X133435000Y-103301335D01*
X133435000Y-103018665D01*
X133379853Y-102741426D01*
X133271680Y-102480273D01*
X133114637Y-102245241D01*
X132914759Y-102045363D01*
X132679727Y-101888320D01*
X132418574Y-101780147D01*
X132141335Y-101725000D01*
X131858665Y-101725000D01*
X131828279Y-101731044D01*
X128955900Y-98858665D01*
X137405000Y-98858665D01*
X137405000Y-99141335D01*
X137460147Y-99418574D01*
X137568320Y-99679727D01*
X137725363Y-99914759D01*
X137925241Y-100114637D01*
X138160273Y-100271680D01*
X138421426Y-100379853D01*
X138698665Y-100435000D01*
X138981335Y-100435000D01*
X139258574Y-100379853D01*
X139519727Y-100271680D01*
X139754759Y-100114637D01*
X139954637Y-99914759D01*
X140111680Y-99679727D01*
X140219853Y-99418574D01*
X140275000Y-99141335D01*
X140275000Y-98858665D01*
X140219853Y-98581426D01*
X140111680Y-98320273D01*
X139954637Y-98085241D01*
X139754759Y-97885363D01*
X139519727Y-97728320D01*
X139258574Y-97620147D01*
X138981335Y-97565000D01*
X138698665Y-97565000D01*
X138421426Y-97620147D01*
X138160273Y-97728320D01*
X137925241Y-97885363D01*
X137725363Y-98085241D01*
X137568320Y-98320273D01*
X137460147Y-98581426D01*
X137405000Y-98858665D01*
X128955900Y-98858665D01*
X128579499Y-98482264D01*
X128551659Y-98448341D01*
X128416291Y-98337247D01*
X128261851Y-98254697D01*
X128178260Y-98229341D01*
X128039608Y-98060392D01*
X127821101Y-97881068D01*
X127688142Y-97810000D01*
X127821101Y-97738932D01*
X128039608Y-97559608D01*
X128146795Y-97429000D01*
X128416340Y-97429000D01*
X128460000Y-97433300D01*
X128503660Y-97429000D01*
X128503667Y-97429000D01*
X128634274Y-97416136D01*
X128801851Y-97365303D01*
X128956291Y-97282753D01*
X129091659Y-97171659D01*
X129119499Y-97137736D01*
X131828280Y-94428956D01*
X131858665Y-94435000D01*
X132141335Y-94435000D01*
X132171720Y-94428956D01*
X133340504Y-95597740D01*
X133368341Y-95631659D01*
X133503709Y-95742753D01*
X133658149Y-95825303D01*
X133695355Y-95836589D01*
X133825724Y-95876136D01*
X133858924Y-95879406D01*
X133956333Y-95889000D01*
X133956339Y-95889000D01*
X133999999Y-95893300D01*
X134043659Y-95889000D01*
X137708151Y-95889000D01*
X137725363Y-95914759D01*
X137925241Y-96114637D01*
X138160273Y-96271680D01*
X138421426Y-96379853D01*
X138698665Y-96435000D01*
X138981335Y-96435000D01*
X139258574Y-96379853D01*
X139519727Y-96271680D01*
X139754759Y-96114637D01*
X139954637Y-95914759D01*
X140111680Y-95679727D01*
X140219853Y-95418574D01*
X140275000Y-95141335D01*
X140275000Y-94858665D01*
X147565000Y-94858665D01*
X147565000Y-95141335D01*
X147620147Y-95418574D01*
X147728320Y-95679727D01*
X147885363Y-95914759D01*
X148085241Y-96114637D01*
X148320273Y-96271680D01*
X148581426Y-96379853D01*
X148858665Y-96435000D01*
X149141335Y-96435000D01*
X149171720Y-96428956D01*
X149880505Y-97137741D01*
X149908341Y-97171659D01*
X150043709Y-97282753D01*
X150198149Y-97365303D01*
X150292758Y-97394002D01*
X150365725Y-97416136D01*
X150382325Y-97417771D01*
X150496333Y-97429000D01*
X150496340Y-97429000D01*
X150540000Y-97433300D01*
X150583660Y-97429000D01*
X153808017Y-97429000D01*
X153846525Y-97486632D01*
X154053368Y-97693475D01*
X154227760Y-97810000D01*
X154053368Y-97926525D01*
X153846525Y-98133368D01*
X153808017Y-98191000D01*
X150185303Y-98191000D01*
X150114637Y-98085241D01*
X149914759Y-97885363D01*
X149679727Y-97728320D01*
X149418574Y-97620147D01*
X149141335Y-97565000D01*
X148858665Y-97565000D01*
X148581426Y-97620147D01*
X148320273Y-97728320D01*
X148085241Y-97885363D01*
X147885363Y-98085241D01*
X147728320Y-98320273D01*
X147620147Y-98581426D01*
X147565000Y-98858665D01*
X147565000Y-99141335D01*
X147620147Y-99418574D01*
X147728320Y-99679727D01*
X147885363Y-99914759D01*
X148085241Y-100114637D01*
X148320273Y-100271680D01*
X148581426Y-100379853D01*
X148858665Y-100435000D01*
X149141335Y-100435000D01*
X149418574Y-100379853D01*
X149679727Y-100271680D01*
X149914759Y-100114637D01*
X150060396Y-99969000D01*
X153808017Y-99969000D01*
X153846525Y-100026632D01*
X154053368Y-100233475D01*
X154296589Y-100395990D01*
X154566842Y-100507932D01*
X154853740Y-100565000D01*
X155146260Y-100565000D01*
X155433158Y-100507932D01*
X155703411Y-100395990D01*
X155946632Y-100233475D01*
X156153475Y-100026632D01*
X156315990Y-99783411D01*
X156427932Y-99513158D01*
X156485000Y-99226260D01*
X156485000Y-98933740D01*
X156427932Y-98646842D01*
X156315990Y-98376589D01*
X156153475Y-98133368D01*
X155946632Y-97926525D01*
X155772240Y-97810000D01*
X155946632Y-97693475D01*
X156153475Y-97486632D01*
X156315990Y-97243411D01*
X156427932Y-96973158D01*
X156485000Y-96686260D01*
X156485000Y-96393740D01*
X156427932Y-96106842D01*
X156315990Y-95836589D01*
X156153475Y-95593368D01*
X156021620Y-95461513D01*
X156094180Y-95439502D01*
X156204494Y-95380537D01*
X156301185Y-95301185D01*
X156380537Y-95204494D01*
X156439502Y-95094180D01*
X156475812Y-94974482D01*
X156488072Y-94850000D01*
X156485000Y-94285750D01*
X156326250Y-94127000D01*
X155127000Y-94127000D01*
X155127000Y-94147000D01*
X154873000Y-94147000D01*
X154873000Y-94127000D01*
X153673750Y-94127000D01*
X153515000Y-94285750D01*
X153511928Y-94850000D01*
X153524188Y-94974482D01*
X153560498Y-95094180D01*
X153619463Y-95204494D01*
X153698815Y-95301185D01*
X153795506Y-95380537D01*
X153905820Y-95439502D01*
X153978380Y-95461513D01*
X153846525Y-95593368D01*
X153808017Y-95651000D01*
X150908236Y-95651000D01*
X150428956Y-95171720D01*
X150435000Y-95141335D01*
X150435000Y-94858665D01*
X150379853Y-94581426D01*
X150271680Y-94320273D01*
X150114637Y-94085241D01*
X149914759Y-93885363D01*
X149679727Y-93728320D01*
X149418574Y-93620147D01*
X149141335Y-93565000D01*
X148858665Y-93565000D01*
X148581426Y-93620147D01*
X148320273Y-93728320D01*
X148085241Y-93885363D01*
X147885363Y-94085241D01*
X147728320Y-94320273D01*
X147620147Y-94581426D01*
X147565000Y-94858665D01*
X140275000Y-94858665D01*
X140219853Y-94581426D01*
X140111680Y-94320273D01*
X139954637Y-94085241D01*
X139754759Y-93885363D01*
X139519727Y-93728320D01*
X139258574Y-93620147D01*
X138981335Y-93565000D01*
X138698665Y-93565000D01*
X138421426Y-93620147D01*
X138160273Y-93728320D01*
X137925241Y-93885363D01*
X137725363Y-94085241D01*
X137708151Y-94111000D01*
X134368236Y-94111000D01*
X133428956Y-93171720D01*
X133433276Y-93150000D01*
X153511928Y-93150000D01*
X153515000Y-93714250D01*
X153673750Y-93873000D01*
X154873000Y-93873000D01*
X154873000Y-92673750D01*
X155127000Y-92673750D01*
X155127000Y-93873000D01*
X156326250Y-93873000D01*
X156485000Y-93714250D01*
X156488072Y-93150000D01*
X156475812Y-93025518D01*
X156439502Y-92905820D01*
X156380537Y-92795506D01*
X156301185Y-92698815D01*
X156204494Y-92619463D01*
X156094180Y-92560498D01*
X155974482Y-92524188D01*
X155850000Y-92511928D01*
X155285750Y-92515000D01*
X155127000Y-92673750D01*
X154873000Y-92673750D01*
X154714250Y-92515000D01*
X154150000Y-92511928D01*
X154025518Y-92524188D01*
X153905820Y-92560498D01*
X153795506Y-92619463D01*
X153698815Y-92698815D01*
X153619463Y-92795506D01*
X153560498Y-92905820D01*
X153524188Y-93025518D01*
X153511928Y-93150000D01*
X133433276Y-93150000D01*
X133435000Y-93141335D01*
X133435000Y-92858665D01*
X133379853Y-92581426D01*
X133271680Y-92320273D01*
X133114637Y-92085241D01*
X132914759Y-91885363D01*
X132679727Y-91728320D01*
X132418574Y-91620147D01*
X132141335Y-91565000D01*
X131858665Y-91565000D01*
X131581426Y-91620147D01*
X131320273Y-91728320D01*
X131085241Y-91885363D01*
X130885363Y-92085241D01*
X130728320Y-92320273D01*
X130620147Y-92581426D01*
X130565000Y-92858665D01*
X130565000Y-93141335D01*
X130571044Y-93171720D01*
X128121990Y-95620775D01*
X128039608Y-95520392D01*
X127821101Y-95341068D01*
X127688142Y-95270000D01*
X127821101Y-95198932D01*
X128039608Y-95019608D01*
X128218932Y-94801101D01*
X128352182Y-94551808D01*
X128434236Y-94281309D01*
X128461943Y-94000000D01*
X128434236Y-93718691D01*
X128352182Y-93448192D01*
X128218932Y-93198899D01*
X128039608Y-92980392D01*
X127821101Y-92801068D01*
X127699500Y-92736071D01*
X127699500Y-92364029D01*
X127704723Y-92311000D01*
X127683880Y-92099381D01*
X127622153Y-91895895D01*
X127622153Y-91895894D01*
X127521914Y-91708360D01*
X127387015Y-91543985D01*
X127345821Y-91510178D01*
X126079500Y-90243858D01*
X126079500Y-88858665D01*
X126565000Y-88858665D01*
X126565000Y-89141335D01*
X126620147Y-89418574D01*
X126728320Y-89679727D01*
X126885363Y-89914759D01*
X127085241Y-90114637D01*
X127320273Y-90271680D01*
X127581426Y-90379853D01*
X127858665Y-90435000D01*
X128141335Y-90435000D01*
X128418574Y-90379853D01*
X128679727Y-90271680D01*
X128914759Y-90114637D01*
X129114637Y-89914759D01*
X129271680Y-89679727D01*
X129379853Y-89418574D01*
X129435000Y-89141335D01*
X129435000Y-88858665D01*
X129379853Y-88581426D01*
X129271680Y-88320273D01*
X129114637Y-88085241D01*
X128914759Y-87885363D01*
X128874803Y-87858665D01*
X137405000Y-87858665D01*
X137405000Y-88141335D01*
X137460147Y-88418574D01*
X137568320Y-88679727D01*
X137725363Y-88914759D01*
X137925241Y-89114637D01*
X138160273Y-89271680D01*
X138421426Y-89379853D01*
X138698665Y-89435000D01*
X138981335Y-89435000D01*
X139258574Y-89379853D01*
X139519727Y-89271680D01*
X139754759Y-89114637D01*
X139954637Y-88914759D01*
X140111680Y-88679727D01*
X140219853Y-88418574D01*
X140275000Y-88141335D01*
X140275000Y-87858665D01*
X140219853Y-87581426D01*
X140111680Y-87320273D01*
X139954637Y-87085241D01*
X139754759Y-86885363D01*
X139519727Y-86728320D01*
X139258574Y-86620147D01*
X138981335Y-86565000D01*
X138698665Y-86565000D01*
X138421426Y-86620147D01*
X138160273Y-86728320D01*
X137925241Y-86885363D01*
X137725363Y-87085241D01*
X137568320Y-87320273D01*
X137460147Y-87581426D01*
X137405000Y-87858665D01*
X128874803Y-87858665D01*
X128679727Y-87728320D01*
X128418574Y-87620147D01*
X128141335Y-87565000D01*
X127858665Y-87565000D01*
X127581426Y-87620147D01*
X127320273Y-87728320D01*
X127085241Y-87885363D01*
X126885363Y-88085241D01*
X126728320Y-88320273D01*
X126620147Y-88581426D01*
X126565000Y-88858665D01*
X126079500Y-88858665D01*
X126079500Y-84949896D01*
X126114637Y-84914759D01*
X126271680Y-84679727D01*
X126379853Y-84418574D01*
X126435000Y-84141335D01*
X126435000Y-83858665D01*
X126379853Y-83581426D01*
X126271680Y-83320273D01*
X126114637Y-83085241D01*
X125914759Y-82885363D01*
X125854990Y-82845427D01*
X125854990Y-80010102D01*
X126093000Y-80055000D01*
X126493000Y-80055000D01*
X126493000Y-78747000D01*
X126747000Y-78747000D01*
X126747000Y-80055000D01*
X127147000Y-80055000D01*
X127424514Y-80002650D01*
X127686483Y-79897166D01*
X127922839Y-79742601D01*
X128124500Y-79544895D01*
X128283715Y-79311646D01*
X128394367Y-79051818D01*
X128411904Y-78969039D01*
X128289915Y-78747000D01*
X126747000Y-78747000D01*
X126493000Y-78747000D01*
X126473000Y-78747000D01*
X126473000Y-78493000D01*
X126493000Y-78493000D01*
X126493000Y-78473000D01*
X126747000Y-78473000D01*
X126747000Y-78493000D01*
X128289915Y-78493000D01*
X128411904Y-78270961D01*
X128394367Y-78188182D01*
X128283715Y-77928354D01*
X128124500Y-77695105D01*
X127922839Y-77497399D01*
X127693259Y-77347265D01*
X127821101Y-77278932D01*
X127843398Y-77260633D01*
X130571044Y-79988279D01*
X130565000Y-80018665D01*
X130565000Y-80301335D01*
X130620147Y-80578574D01*
X130728320Y-80839727D01*
X130885363Y-81074759D01*
X131085241Y-81274637D01*
X131320273Y-81431680D01*
X131581426Y-81539853D01*
X131858665Y-81595000D01*
X132141335Y-81595000D01*
X132418574Y-81539853D01*
X132679727Y-81431680D01*
X132914759Y-81274637D01*
X133114637Y-81074759D01*
X133271680Y-80839727D01*
X133379853Y-80578574D01*
X133435000Y-80301335D01*
X133435000Y-80018665D01*
X133393674Y-79810910D01*
X137411044Y-83828280D01*
X137405000Y-83858665D01*
X137405000Y-84141335D01*
X137460147Y-84418574D01*
X137568320Y-84679727D01*
X137725363Y-84914759D01*
X137925241Y-85114637D01*
X138160273Y-85271680D01*
X138421426Y-85379853D01*
X138698665Y-85435000D01*
X138981335Y-85435000D01*
X139258574Y-85379853D01*
X139519727Y-85271680D01*
X139754759Y-85114637D01*
X139954637Y-84914759D01*
X140111680Y-84679727D01*
X140219853Y-84418574D01*
X140275000Y-84141335D01*
X140275000Y-83858665D01*
X147565000Y-83858665D01*
X147565000Y-84141335D01*
X147620147Y-84418574D01*
X147728320Y-84679727D01*
X147885363Y-84914759D01*
X148085241Y-85114637D01*
X148320273Y-85271680D01*
X148581426Y-85379853D01*
X148858665Y-85435000D01*
X149141335Y-85435000D01*
X149171720Y-85428956D01*
X149880506Y-86137742D01*
X149908341Y-86171659D01*
X150043709Y-86282753D01*
X150198149Y-86365303D01*
X150292758Y-86394002D01*
X150365725Y-86416136D01*
X150382325Y-86417771D01*
X150496333Y-86429000D01*
X150496340Y-86429000D01*
X150540000Y-86433300D01*
X150583660Y-86429000D01*
X153808017Y-86429000D01*
X153846525Y-86486632D01*
X154053368Y-86693475D01*
X154227760Y-86810000D01*
X154053368Y-86926525D01*
X153846525Y-87133368D01*
X153808017Y-87191000D01*
X150185303Y-87191000D01*
X150114637Y-87085241D01*
X149914759Y-86885363D01*
X149679727Y-86728320D01*
X149418574Y-86620147D01*
X149141335Y-86565000D01*
X148858665Y-86565000D01*
X148581426Y-86620147D01*
X148320273Y-86728320D01*
X148085241Y-86885363D01*
X147885363Y-87085241D01*
X147728320Y-87320273D01*
X147620147Y-87581426D01*
X147565000Y-87858665D01*
X147565000Y-88141335D01*
X147620147Y-88418574D01*
X147728320Y-88679727D01*
X147885363Y-88914759D01*
X148085241Y-89114637D01*
X148320273Y-89271680D01*
X148581426Y-89379853D01*
X148858665Y-89435000D01*
X149141335Y-89435000D01*
X149418574Y-89379853D01*
X149679727Y-89271680D01*
X149914759Y-89114637D01*
X150060396Y-88969000D01*
X153808017Y-88969000D01*
X153846525Y-89026632D01*
X154053368Y-89233475D01*
X154296589Y-89395990D01*
X154566842Y-89507932D01*
X154853740Y-89565000D01*
X155146260Y-89565000D01*
X155433158Y-89507932D01*
X155703411Y-89395990D01*
X155946632Y-89233475D01*
X156153475Y-89026632D01*
X156315990Y-88783411D01*
X156427932Y-88513158D01*
X156485000Y-88226260D01*
X156485000Y-87933740D01*
X156427932Y-87646842D01*
X156315990Y-87376589D01*
X156153475Y-87133368D01*
X155946632Y-86926525D01*
X155772240Y-86810000D01*
X155946632Y-86693475D01*
X156153475Y-86486632D01*
X156315990Y-86243411D01*
X156427932Y-85973158D01*
X156485000Y-85686260D01*
X156485000Y-85393740D01*
X156427932Y-85106842D01*
X156315990Y-84836589D01*
X156153475Y-84593368D01*
X156021620Y-84461513D01*
X156094180Y-84439502D01*
X156204494Y-84380537D01*
X156301185Y-84301185D01*
X156380537Y-84204494D01*
X156439502Y-84094180D01*
X156475812Y-83974482D01*
X156488072Y-83850000D01*
X156485000Y-83285750D01*
X156326250Y-83127000D01*
X155127000Y-83127000D01*
X155127000Y-83147000D01*
X154873000Y-83147000D01*
X154873000Y-83127000D01*
X153673750Y-83127000D01*
X153515000Y-83285750D01*
X153511928Y-83850000D01*
X153524188Y-83974482D01*
X153560498Y-84094180D01*
X153619463Y-84204494D01*
X153698815Y-84301185D01*
X153795506Y-84380537D01*
X153905820Y-84439502D01*
X153978380Y-84461513D01*
X153846525Y-84593368D01*
X153808017Y-84651000D01*
X150908236Y-84651000D01*
X150428956Y-84171720D01*
X150435000Y-84141335D01*
X150435000Y-83858665D01*
X150379853Y-83581426D01*
X150271680Y-83320273D01*
X150114637Y-83085241D01*
X149914759Y-82885363D01*
X149679727Y-82728320D01*
X149418574Y-82620147D01*
X149141335Y-82565000D01*
X148858665Y-82565000D01*
X148581426Y-82620147D01*
X148320273Y-82728320D01*
X148085241Y-82885363D01*
X147885363Y-83085241D01*
X147728320Y-83320273D01*
X147620147Y-83581426D01*
X147565000Y-83858665D01*
X140275000Y-83858665D01*
X140219853Y-83581426D01*
X140111680Y-83320273D01*
X139954637Y-83085241D01*
X139754759Y-82885363D01*
X139519727Y-82728320D01*
X139258574Y-82620147D01*
X138981335Y-82565000D01*
X138698665Y-82565000D01*
X138668280Y-82571044D01*
X138247236Y-82150000D01*
X153511928Y-82150000D01*
X153515000Y-82714250D01*
X153673750Y-82873000D01*
X154873000Y-82873000D01*
X154873000Y-81673750D01*
X155127000Y-81673750D01*
X155127000Y-82873000D01*
X156326250Y-82873000D01*
X156485000Y-82714250D01*
X156488072Y-82150000D01*
X156475812Y-82025518D01*
X156439502Y-81905820D01*
X156380537Y-81795506D01*
X156301185Y-81698815D01*
X156204494Y-81619463D01*
X156094180Y-81560498D01*
X155974482Y-81524188D01*
X155850000Y-81511928D01*
X155285750Y-81515000D01*
X155127000Y-81673750D01*
X154873000Y-81673750D01*
X154714250Y-81515000D01*
X154150000Y-81511928D01*
X154025518Y-81524188D01*
X153905820Y-81560498D01*
X153795506Y-81619463D01*
X153698815Y-81698815D01*
X153619463Y-81795506D01*
X153560498Y-81905820D01*
X153524188Y-82025518D01*
X153511928Y-82150000D01*
X138247236Y-82150000D01*
X129677235Y-73580000D01*
X131828280Y-71428956D01*
X131858665Y-71435000D01*
X132141335Y-71435000D01*
X132418574Y-71379853D01*
X132679727Y-71271680D01*
X132914759Y-71114637D01*
X133114637Y-70914759D01*
X133271680Y-70679727D01*
X133379853Y-70418574D01*
X133435000Y-70141335D01*
X133435000Y-69858665D01*
X133379853Y-69581426D01*
X133271680Y-69320273D01*
X133114637Y-69085241D01*
X132914759Y-68885363D01*
X132679727Y-68728320D01*
X132418574Y-68620147D01*
X132141335Y-68565000D01*
X131858665Y-68565000D01*
X131581426Y-68620147D01*
X131320273Y-68728320D01*
X131085241Y-68885363D01*
X130885363Y-69085241D01*
X130728320Y-69320273D01*
X130620147Y-69581426D01*
X130565000Y-69858665D01*
X130565000Y-70141335D01*
X130571044Y-70171720D01*
X128121990Y-72620775D01*
X128039608Y-72520392D01*
X127821101Y-72341068D01*
X127688142Y-72270000D01*
X127821101Y-72198932D01*
X128039608Y-72019608D01*
X128218932Y-71801101D01*
X128352182Y-71551808D01*
X128434236Y-71281309D01*
X128461943Y-71000000D01*
X128434236Y-70718691D01*
X128352182Y-70448192D01*
X128218932Y-70198899D01*
X128039608Y-69980392D01*
X127821101Y-69801068D01*
X127571808Y-69667818D01*
X127301309Y-69585764D01*
X127090492Y-69565000D01*
X126149508Y-69565000D01*
X125938691Y-69585764D01*
X125668192Y-69667818D01*
X125418899Y-69801068D01*
X125200392Y-69980392D01*
X125021068Y-70198899D01*
X124887818Y-70448192D01*
X124805764Y-70718691D01*
X124778057Y-71000000D01*
X124805764Y-71281309D01*
X124807227Y-71286131D01*
X124049674Y-72043683D01*
X124008475Y-72077495D01*
X123873576Y-72241870D01*
X123773337Y-72429405D01*
X123732205Y-72565000D01*
X123711610Y-72632892D01*
X123690767Y-72844510D01*
X123695990Y-72897539D01*
X123695991Y-83398322D01*
X123620147Y-83581426D01*
X123565000Y-83858665D01*
X121435000Y-83858665D01*
X121379853Y-83581426D01*
X121271680Y-83320273D01*
X121114637Y-83085241D01*
X120914759Y-82885363D01*
X120679727Y-82728320D01*
X120418574Y-82620147D01*
X120141335Y-82565000D01*
X120091643Y-82565000D01*
X120079500Y-82552857D01*
X120079500Y-79883929D01*
X120201101Y-79818932D01*
X120419608Y-79639608D01*
X120598932Y-79421101D01*
X120732182Y-79171808D01*
X120814236Y-78901309D01*
X120841943Y-78620000D01*
X120814236Y-78338691D01*
X120812773Y-78333869D01*
X122670322Y-76476321D01*
X122711516Y-76442514D01*
X122846415Y-76278139D01*
X122946654Y-76090605D01*
X123008381Y-75887118D01*
X123024001Y-75728528D01*
X123024001Y-75728521D01*
X123029223Y-75675500D01*
X123024001Y-75622478D01*
X123024001Y-65858665D01*
X126565000Y-65858665D01*
X126565000Y-66141335D01*
X126620147Y-66418574D01*
X126728320Y-66679727D01*
X126885363Y-66914759D01*
X127085241Y-67114637D01*
X127320273Y-67271680D01*
X127581426Y-67379853D01*
X127858665Y-67435000D01*
X128141335Y-67435000D01*
X128418574Y-67379853D01*
X128679727Y-67271680D01*
X128914759Y-67114637D01*
X129114637Y-66914759D01*
X129271680Y-66679727D01*
X129379853Y-66418574D01*
X129435000Y-66141335D01*
X129435000Y-65858665D01*
X129379853Y-65581426D01*
X129271680Y-65320273D01*
X129114637Y-65085241D01*
X128914759Y-64885363D01*
X128679727Y-64728320D01*
X128418574Y-64620147D01*
X128141335Y-64565000D01*
X127858665Y-64565000D01*
X127581426Y-64620147D01*
X127320273Y-64728320D01*
X127085241Y-64885363D01*
X126885363Y-65085241D01*
X126728320Y-65320273D01*
X126620147Y-65581426D01*
X126565000Y-65858665D01*
X123024001Y-65858665D01*
X123024001Y-62524001D01*
X126997359Y-62524001D01*
X134316000Y-69842643D01*
X134315999Y-74502470D01*
X134310776Y-74555499D01*
X134317129Y-74620000D01*
X134331619Y-74767117D01*
X134393346Y-74970604D01*
X134493585Y-75158139D01*
X134628484Y-75322514D01*
X134669683Y-75356325D01*
X135405000Y-76091643D01*
X135405000Y-76141335D01*
X135460147Y-76418574D01*
X135568320Y-76679727D01*
X135725363Y-76914759D01*
X135925241Y-77114637D01*
X136160273Y-77271680D01*
X136421426Y-77379853D01*
X136698665Y-77435000D01*
X136981335Y-77435000D01*
X137258574Y-77379853D01*
X137519727Y-77271680D01*
X137754759Y-77114637D01*
X137954637Y-76914759D01*
X138111680Y-76679727D01*
X138219853Y-76418574D01*
X138275000Y-76141335D01*
X138275000Y-75858665D01*
X138219853Y-75581426D01*
X138111680Y-75320273D01*
X137954637Y-75085241D01*
X137754759Y-74885363D01*
X137519727Y-74728320D01*
X137258574Y-74620147D01*
X136981335Y-74565000D01*
X136931643Y-74565000D01*
X136474999Y-74108357D01*
X136474999Y-73390509D01*
X136698665Y-73435000D01*
X136981335Y-73435000D01*
X137258574Y-73379853D01*
X137519727Y-73271680D01*
X137754759Y-73114637D01*
X137954637Y-72914759D01*
X138111680Y-72679727D01*
X138219853Y-72418574D01*
X138275000Y-72141335D01*
X138275000Y-71858665D01*
X138219853Y-71581426D01*
X138111680Y-71320273D01*
X137954637Y-71085241D01*
X137919500Y-71050104D01*
X137919500Y-68893029D01*
X137924723Y-68840000D01*
X137903880Y-68628381D01*
X137860386Y-68485000D01*
X137842153Y-68424894D01*
X137777736Y-68304378D01*
X145565000Y-76091643D01*
X145565000Y-76141335D01*
X145620147Y-76418574D01*
X145728320Y-76679727D01*
X145885363Y-76914759D01*
X146085241Y-77114637D01*
X146320273Y-77271680D01*
X146581426Y-77379853D01*
X146858665Y-77435000D01*
X147141335Y-77435000D01*
X147418574Y-77379853D01*
X147679727Y-77271680D01*
X147914759Y-77114637D01*
X148114637Y-76914759D01*
X148271680Y-76679727D01*
X148379853Y-76418574D01*
X148435000Y-76141335D01*
X148435000Y-75858665D01*
X148379853Y-75581426D01*
X148271680Y-75320273D01*
X148114637Y-75085241D01*
X147914759Y-74885363D01*
X147679727Y-74728320D01*
X147418574Y-74620147D01*
X147141335Y-74565000D01*
X147091643Y-74565000D01*
X144385308Y-71858665D01*
X145565000Y-71858665D01*
X145565000Y-72141335D01*
X145620147Y-72418574D01*
X145728320Y-72679727D01*
X145885363Y-72914759D01*
X146085241Y-73114637D01*
X146320273Y-73271680D01*
X146581426Y-73379853D01*
X146858665Y-73435000D01*
X147141335Y-73435000D01*
X147418574Y-73379853D01*
X147679727Y-73271680D01*
X147914759Y-73114637D01*
X148114637Y-72914759D01*
X148271680Y-72679727D01*
X148379853Y-72418574D01*
X148435000Y-72141335D01*
X148435000Y-72091643D01*
X148885826Y-71640818D01*
X148927015Y-71607015D01*
X149061914Y-71442640D01*
X149162153Y-71255106D01*
X149223880Y-71051619D01*
X149239500Y-70893029D01*
X149244723Y-70840000D01*
X149239500Y-70786971D01*
X149239500Y-64020607D01*
X149313475Y-63946632D01*
X149475990Y-63703411D01*
X149587932Y-63433158D01*
X149645000Y-63146260D01*
X149645000Y-62853740D01*
X149587932Y-62566842D01*
X149475990Y-62296589D01*
X149313475Y-62053368D01*
X149239500Y-61979393D01*
X149239500Y-61480607D01*
X149313475Y-61406632D01*
X149475990Y-61163411D01*
X149587932Y-60893158D01*
X149645000Y-60606260D01*
X149645000Y-60313740D01*
X149587932Y-60026842D01*
X149475990Y-59756589D01*
X149313475Y-59513368D01*
X149106632Y-59306525D01*
X148863411Y-59144010D01*
X148593158Y-59032068D01*
X148306260Y-58975000D01*
X148013740Y-58975000D01*
X147726842Y-59032068D01*
X147456589Y-59144010D01*
X147213368Y-59306525D01*
X147006525Y-59513368D01*
X146890689Y-59686729D01*
X146648397Y-59611208D01*
X145799605Y-60460000D01*
X146648397Y-61308792D01*
X146890689Y-61233271D01*
X147006525Y-61406632D01*
X147080500Y-61480607D01*
X147080501Y-61979392D01*
X147006525Y-62053368D01*
X146890689Y-62226729D01*
X146648397Y-62151208D01*
X145799605Y-63000000D01*
X146648397Y-63848792D01*
X146890689Y-63773271D01*
X147006525Y-63946632D01*
X147080500Y-64020607D01*
X147080501Y-70392856D01*
X146908357Y-70565000D01*
X146858665Y-70565000D01*
X146581426Y-70620147D01*
X146320273Y-70728320D01*
X146085241Y-70885363D01*
X145885363Y-71085241D01*
X145728320Y-71320273D01*
X145620147Y-71581426D01*
X145565000Y-71858665D01*
X144385308Y-71858665D01*
X139079500Y-66552858D01*
X139079500Y-64345827D01*
X139093386Y-64338405D01*
X139227962Y-64227962D01*
X139338405Y-64093386D01*
X139373142Y-64028397D01*
X139691208Y-64028397D01*
X139768843Y-64277472D01*
X140032883Y-64403371D01*
X140316411Y-64475339D01*
X140608531Y-64490611D01*
X140898019Y-64448599D01*
X141173747Y-64350919D01*
X141311157Y-64277472D01*
X141388792Y-64028397D01*
X142231208Y-64028397D01*
X142308843Y-64277472D01*
X142572883Y-64403371D01*
X142856411Y-64475339D01*
X143148531Y-64490611D01*
X143438019Y-64448599D01*
X143713747Y-64350919D01*
X143851157Y-64277472D01*
X143928792Y-64028397D01*
X144771208Y-64028397D01*
X144848843Y-64277472D01*
X145112883Y-64403371D01*
X145396411Y-64475339D01*
X145688531Y-64490611D01*
X145978019Y-64448599D01*
X146253747Y-64350919D01*
X146391157Y-64277472D01*
X146468792Y-64028397D01*
X145620000Y-63179605D01*
X144771208Y-64028397D01*
X143928792Y-64028397D01*
X143080000Y-63179605D01*
X142231208Y-64028397D01*
X141388792Y-64028397D01*
X140540000Y-63179605D01*
X139691208Y-64028397D01*
X139373142Y-64028397D01*
X139420472Y-63939850D01*
X139453580Y-63830707D01*
X139511603Y-63848792D01*
X140360395Y-63000000D01*
X140719605Y-63000000D01*
X141568397Y-63848792D01*
X141810000Y-63773486D01*
X142051603Y-63848792D01*
X142900395Y-63000000D01*
X143259605Y-63000000D01*
X144108397Y-63848792D01*
X144350000Y-63773486D01*
X144591603Y-63848792D01*
X145440395Y-63000000D01*
X144591603Y-62151208D01*
X144350000Y-62226514D01*
X144108397Y-62151208D01*
X143259605Y-63000000D01*
X142900395Y-63000000D01*
X142051603Y-62151208D01*
X141810000Y-62226514D01*
X141568397Y-62151208D01*
X140719605Y-63000000D01*
X140360395Y-63000000D01*
X139511603Y-62151208D01*
X139453580Y-62169293D01*
X139420472Y-62060150D01*
X139338405Y-61906614D01*
X139227962Y-61772038D01*
X139093386Y-61661595D01*
X139079500Y-61654173D01*
X139079500Y-61488397D01*
X139691208Y-61488397D01*
X139766514Y-61730000D01*
X139691208Y-61971603D01*
X140540000Y-62820395D01*
X141388792Y-61971603D01*
X141313486Y-61730000D01*
X141388792Y-61488397D01*
X142231208Y-61488397D01*
X142306514Y-61730000D01*
X142231208Y-61971603D01*
X143080000Y-62820395D01*
X143928792Y-61971603D01*
X143853486Y-61730000D01*
X143928792Y-61488397D01*
X144771208Y-61488397D01*
X144846514Y-61730000D01*
X144771208Y-61971603D01*
X145620000Y-62820395D01*
X146468792Y-61971603D01*
X146393486Y-61730000D01*
X146468792Y-61488397D01*
X145620000Y-60639605D01*
X144771208Y-61488397D01*
X143928792Y-61488397D01*
X143080000Y-60639605D01*
X142231208Y-61488397D01*
X141388792Y-61488397D01*
X140540000Y-60639605D01*
X139691208Y-61488397D01*
X139079500Y-61488397D01*
X139079500Y-61480607D01*
X139153475Y-61406632D01*
X139269311Y-61233271D01*
X139511603Y-61308792D01*
X140360395Y-60460000D01*
X140719605Y-60460000D01*
X141568397Y-61308792D01*
X141810000Y-61233486D01*
X142051603Y-61308792D01*
X142900395Y-60460000D01*
X143259605Y-60460000D01*
X144108397Y-61308792D01*
X144350000Y-61233486D01*
X144591603Y-61308792D01*
X145440395Y-60460000D01*
X144591603Y-59611208D01*
X144350000Y-59686514D01*
X144108397Y-59611208D01*
X143259605Y-60460000D01*
X142900395Y-60460000D01*
X142051603Y-59611208D01*
X141810000Y-59686514D01*
X141568397Y-59611208D01*
X140719605Y-60460000D01*
X140360395Y-60460000D01*
X139511603Y-59611208D01*
X139269311Y-59686729D01*
X139153475Y-59513368D01*
X139071710Y-59431603D01*
X139691208Y-59431603D01*
X140540000Y-60280395D01*
X141388792Y-59431603D01*
X142231208Y-59431603D01*
X143080000Y-60280395D01*
X143928792Y-59431603D01*
X144771208Y-59431603D01*
X145620000Y-60280395D01*
X146468792Y-59431603D01*
X146391157Y-59182528D01*
X146127117Y-59056629D01*
X145843589Y-58984661D01*
X145551469Y-58969389D01*
X145261981Y-59011401D01*
X144986253Y-59109081D01*
X144848843Y-59182528D01*
X144771208Y-59431603D01*
X143928792Y-59431603D01*
X143851157Y-59182528D01*
X143587117Y-59056629D01*
X143303589Y-58984661D01*
X143011469Y-58969389D01*
X142721981Y-59011401D01*
X142446253Y-59109081D01*
X142308843Y-59182528D01*
X142231208Y-59431603D01*
X141388792Y-59431603D01*
X141311157Y-59182528D01*
X141047117Y-59056629D01*
X140763589Y-58984661D01*
X140471469Y-58969389D01*
X140181981Y-59011401D01*
X139906253Y-59109081D01*
X139768843Y-59182528D01*
X139691208Y-59431603D01*
X139071710Y-59431603D01*
X138946632Y-59306525D01*
X138703411Y-59144010D01*
X138433158Y-59032068D01*
X138146260Y-58975000D01*
X137853740Y-58975000D01*
X137566842Y-59032068D01*
X137296589Y-59144010D01*
X137053368Y-59306525D01*
X136846525Y-59513368D01*
X136684010Y-59756589D01*
X136572068Y-60026842D01*
X136515000Y-60313740D01*
X136515000Y-60606260D01*
X136572068Y-60893158D01*
X136684010Y-61163411D01*
X136846525Y-61406632D01*
X136920500Y-61480607D01*
X136920500Y-61654172D01*
X136906614Y-61661595D01*
X136772038Y-61772038D01*
X136661595Y-61906614D01*
X136579528Y-62060150D01*
X136528992Y-62226746D01*
X136511928Y-62400000D01*
X136511928Y-63600000D01*
X136528992Y-63773254D01*
X136579528Y-63939850D01*
X136661595Y-64093386D01*
X136772038Y-64227962D01*
X136906614Y-64338405D01*
X136920500Y-64345827D01*
X136920501Y-66946961D01*
X136915277Y-67000000D01*
X136936120Y-67211618D01*
X136983662Y-67368341D01*
X136997848Y-67415106D01*
X137062264Y-67535620D01*
X129438072Y-59911430D01*
X129438072Y-59200000D01*
X129425812Y-59075518D01*
X129389502Y-58955820D01*
X129330537Y-58845506D01*
X129251185Y-58748815D01*
X129154494Y-58669463D01*
X129044180Y-58610498D01*
X128924482Y-58574188D01*
X128800000Y-58561928D01*
X127200000Y-58561928D01*
X127075518Y-58574188D01*
X126955820Y-58610498D01*
X126845506Y-58669463D01*
X126748815Y-58748815D01*
X126669463Y-58845506D01*
X126610498Y-58955820D01*
X126574188Y-59075518D01*
X126561928Y-59200000D01*
X126561928Y-59207215D01*
X126492702Y-59186903D01*
X125679605Y-60000000D01*
X125693748Y-60014143D01*
X125514143Y-60193748D01*
X125500000Y-60179605D01*
X125485858Y-60193748D01*
X125306253Y-60014143D01*
X125320395Y-60000000D01*
X124507298Y-59186903D01*
X124263329Y-59258486D01*
X124142429Y-59513996D01*
X124073700Y-59788184D01*
X124059783Y-60070512D01*
X124101213Y-60350130D01*
X124106531Y-60365001D01*
X122391645Y-60365001D01*
X121935000Y-59908357D01*
X121935000Y-59858665D01*
X121879853Y-59581426D01*
X121771680Y-59320273D01*
X121614637Y-59085241D01*
X121536694Y-59007298D01*
X124686903Y-59007298D01*
X125500000Y-59820395D01*
X126313097Y-59007298D01*
X126241514Y-58763329D01*
X125986004Y-58642429D01*
X125711816Y-58573700D01*
X125429488Y-58559783D01*
X125149870Y-58601213D01*
X124883708Y-58696397D01*
X124758486Y-58763329D01*
X124686903Y-59007298D01*
X121536694Y-59007298D01*
X121414759Y-58885363D01*
X121179727Y-58728320D01*
X120918574Y-58620147D01*
X120641335Y-58565000D01*
X120358665Y-58565000D01*
X120081426Y-58620147D01*
X119820273Y-58728320D01*
X119585241Y-58885363D01*
X119418661Y-59051943D01*
X119389502Y-58955820D01*
X119330537Y-58845506D01*
X119251185Y-58748815D01*
X119154494Y-58669463D01*
X119044180Y-58610498D01*
X118924482Y-58574188D01*
X118800000Y-58561928D01*
X118285750Y-58565000D01*
X118127000Y-58723750D01*
X118127000Y-59873000D01*
X118147000Y-59873000D01*
X118147000Y-60127000D01*
X118127000Y-60127000D01*
X118127000Y-61276250D01*
X118285750Y-61435000D01*
X118800000Y-61438072D01*
X118924482Y-61425812D01*
X119044180Y-61389502D01*
X119154494Y-61330537D01*
X119251185Y-61251185D01*
X119330537Y-61154494D01*
X119389502Y-61044180D01*
X119418661Y-60948057D01*
X119585241Y-61114637D01*
X119820273Y-61271680D01*
X120081426Y-61379853D01*
X120358665Y-61435000D01*
X120408357Y-61435000D01*
X120865001Y-61891645D01*
X120865002Y-75228355D01*
X120676047Y-75417311D01*
X120663715Y-75388354D01*
X120504500Y-75155105D01*
X120302839Y-74957399D01*
X120073259Y-74807265D01*
X120201101Y-74738932D01*
X120419608Y-74559608D01*
X120598932Y-74341101D01*
X120732182Y-74091808D01*
X120814236Y-73821309D01*
X120841943Y-73540000D01*
X120814236Y-73258691D01*
X120732182Y-72988192D01*
X120598932Y-72738899D01*
X120419608Y-72520392D01*
X120306518Y-72427581D01*
X120324482Y-72425812D01*
X120444180Y-72389502D01*
X120554494Y-72330537D01*
X120651185Y-72251185D01*
X120730537Y-72154494D01*
X120789502Y-72044180D01*
X120825812Y-71924482D01*
X120838072Y-71800000D01*
X120838072Y-70200000D01*
X120825812Y-70075518D01*
X120789502Y-69955820D01*
X120730537Y-69845506D01*
X120651185Y-69748815D01*
X120554494Y-69669463D01*
X120444180Y-69610498D01*
X120324482Y-69574188D01*
X120200000Y-69561928D01*
X118819163Y-69561928D01*
X118729000Y-69471765D01*
X118729000Y-67131849D01*
X118754759Y-67114637D01*
X118954637Y-66914759D01*
X119111680Y-66679727D01*
X119219853Y-66418574D01*
X119275000Y-66141335D01*
X119275000Y-65858665D01*
X119219853Y-65581426D01*
X119111680Y-65320273D01*
X118954637Y-65085241D01*
X118754759Y-64885363D01*
X118519727Y-64728320D01*
X118258574Y-64620147D01*
X117981335Y-64565000D01*
X117698665Y-64565000D01*
X117421426Y-64620147D01*
X117160273Y-64728320D01*
X116925241Y-64885363D01*
X116725363Y-65085241D01*
X116568320Y-65320273D01*
X116460147Y-65581426D01*
X116405000Y-65858665D01*
X116405000Y-66141335D01*
X116460147Y-66418574D01*
X116568320Y-66679727D01*
X116725363Y-66914759D01*
X116925241Y-67114637D01*
X116951000Y-67131849D01*
X116951001Y-69111000D01*
X115131849Y-69111000D01*
X115114637Y-69085241D01*
X114914759Y-68885363D01*
X114679727Y-68728320D01*
X114418574Y-68620147D01*
X114141335Y-68565000D01*
X113858665Y-68565000D01*
X113581426Y-68620147D01*
X113320273Y-68728320D01*
X113085241Y-68885363D01*
X112885363Y-69085241D01*
X112728320Y-69320273D01*
X112620147Y-69581426D01*
X112565000Y-69858665D01*
X112565000Y-70141335D01*
X112620147Y-70418574D01*
X112728320Y-70679727D01*
X112885363Y-70914759D01*
X113085241Y-71114637D01*
X113320273Y-71271680D01*
X113581426Y-71379853D01*
X113858665Y-71435000D01*
X114141335Y-71435000D01*
X114418574Y-71379853D01*
X114679727Y-71271680D01*
X114914759Y-71114637D01*
X115114637Y-70914759D01*
X115131849Y-70889000D01*
X117161928Y-70889000D01*
X117161928Y-71800000D01*
X117174188Y-71924482D01*
X117210498Y-72044180D01*
X117269463Y-72154494D01*
X117348815Y-72251185D01*
X117445506Y-72330537D01*
X117555820Y-72389502D01*
X117675518Y-72425812D01*
X117693482Y-72427581D01*
X117580392Y-72520392D01*
X117401068Y-72738899D01*
X117267818Y-72988192D01*
X117185764Y-73258691D01*
X117158057Y-73540000D01*
X117185764Y-73821309D01*
X117249929Y-74032835D01*
X113402259Y-77880506D01*
X113368342Y-77908341D01*
X113340507Y-77942258D01*
X113340505Y-77942260D01*
X113257248Y-78043709D01*
X113174698Y-78198148D01*
X113123864Y-78365726D01*
X113106700Y-78540000D01*
X113111001Y-78583670D01*
X113111001Y-79028151D01*
X113085241Y-79045363D01*
X113019604Y-79111000D01*
X109131849Y-79111000D01*
X109114637Y-79085241D01*
X108914759Y-78885363D01*
X108889000Y-78868151D01*
X108889000Y-78131849D01*
X108914759Y-78114637D01*
X109114637Y-77914759D01*
X109271680Y-77679727D01*
X109379853Y-77418574D01*
X109435000Y-77141335D01*
X109435000Y-76858665D01*
X109379853Y-76581426D01*
X109271680Y-76320273D01*
X109114637Y-76085241D01*
X108914759Y-75885363D01*
X108889000Y-75868151D01*
X108889000Y-75131849D01*
X108914759Y-75114637D01*
X109114637Y-74914759D01*
X109271680Y-74679727D01*
X109379853Y-74418574D01*
X109435000Y-74141335D01*
X109435000Y-73858665D01*
X109379853Y-73581426D01*
X109271680Y-73320273D01*
X109114637Y-73085241D01*
X108914759Y-72885363D01*
X108889000Y-72868151D01*
X108889000Y-72131849D01*
X108914759Y-72114637D01*
X109114637Y-71914759D01*
X109271680Y-71679727D01*
X109379853Y-71418574D01*
X109435000Y-71141335D01*
X109435000Y-70858665D01*
X109379853Y-70581426D01*
X109271680Y-70320273D01*
X109114637Y-70085241D01*
X108914759Y-69885363D01*
X108889000Y-69868151D01*
X108889000Y-69131849D01*
X108914759Y-69114637D01*
X109114637Y-68914759D01*
X109271680Y-68679727D01*
X109379853Y-68418574D01*
X109435000Y-68141335D01*
X109435000Y-67858665D01*
X109379853Y-67581426D01*
X109271680Y-67320273D01*
X109114637Y-67085241D01*
X108914759Y-66885363D01*
X108889000Y-66868151D01*
X108889000Y-66131849D01*
X108914759Y-66114637D01*
X109114637Y-65914759D01*
X109271680Y-65679727D01*
X109379853Y-65418574D01*
X109435000Y-65141335D01*
X109435000Y-64858665D01*
X109379853Y-64581426D01*
X109271680Y-64320273D01*
X109114637Y-64085241D01*
X108914759Y-63885363D01*
X108889000Y-63868151D01*
X108889000Y-63131849D01*
X108914759Y-63114637D01*
X109114637Y-62914759D01*
X109271680Y-62679727D01*
X109379853Y-62418574D01*
X109435000Y-62141335D01*
X109435000Y-61858665D01*
X109379853Y-61581426D01*
X109271680Y-61320273D01*
X109114637Y-61085241D01*
X108914759Y-60885363D01*
X108889000Y-60868151D01*
X108889000Y-60800000D01*
X116561928Y-60800000D01*
X116574188Y-60924482D01*
X116610498Y-61044180D01*
X116669463Y-61154494D01*
X116748815Y-61251185D01*
X116845506Y-61330537D01*
X116955820Y-61389502D01*
X117075518Y-61425812D01*
X117200000Y-61438072D01*
X117714250Y-61435000D01*
X117873000Y-61276250D01*
X117873000Y-60127000D01*
X116723750Y-60127000D01*
X116565000Y-60285750D01*
X116561928Y-60800000D01*
X108889000Y-60800000D01*
X108889000Y-60131849D01*
X108914759Y-60114637D01*
X109114637Y-59914759D01*
X109271680Y-59679727D01*
X109379853Y-59418574D01*
X109423330Y-59200000D01*
X116561928Y-59200000D01*
X116565000Y-59714250D01*
X116723750Y-59873000D01*
X117873000Y-59873000D01*
X117873000Y-58723750D01*
X117714250Y-58565000D01*
X117200000Y-58561928D01*
X117075518Y-58574188D01*
X116955820Y-58610498D01*
X116845506Y-58669463D01*
X116748815Y-58748815D01*
X116669463Y-58845506D01*
X116610498Y-58955820D01*
X116574188Y-59075518D01*
X116561928Y-59200000D01*
X109423330Y-59200000D01*
X109435000Y-59141335D01*
X109435000Y-58858665D01*
X109379853Y-58581426D01*
X109271680Y-58320273D01*
X109114637Y-58085241D01*
X108914759Y-57885363D01*
X108679727Y-57728320D01*
X108418574Y-57620147D01*
X108141335Y-57565000D01*
X107858665Y-57565000D01*
X107581426Y-57620147D01*
X107320273Y-57728320D01*
X107085241Y-57885363D01*
X106885363Y-58085241D01*
X106728320Y-58320273D01*
X106620147Y-58581426D01*
X106565000Y-58858665D01*
X99275000Y-58858665D01*
X99219853Y-58581426D01*
X99111680Y-58320273D01*
X98954637Y-58085241D01*
X98754759Y-57885363D01*
X98519727Y-57728320D01*
X98258574Y-57620147D01*
X97981335Y-57565000D01*
X97698665Y-57565000D01*
X97421426Y-57620147D01*
X97160273Y-57728320D01*
X96925241Y-57885363D01*
X96725363Y-58085241D01*
X96568320Y-58320273D01*
X96460147Y-58581426D01*
X96405000Y-58858665D01*
X96405000Y-59141335D01*
X96411044Y-59171720D01*
X94551765Y-61031000D01*
X93191983Y-61031000D01*
X93153475Y-60973368D01*
X93021620Y-60841513D01*
X93094180Y-60819502D01*
X93204494Y-60760537D01*
X93301185Y-60681185D01*
X93380537Y-60584494D01*
X93439502Y-60474180D01*
X93475812Y-60354482D01*
X93488072Y-60230000D01*
X93485000Y-59665750D01*
X93326250Y-59507000D01*
X92127000Y-59507000D01*
X92127000Y-59527000D01*
X91873000Y-59527000D01*
X91873000Y-59507000D01*
X90673750Y-59507000D01*
X90515000Y-59665750D01*
X90511928Y-60230000D01*
X83660000Y-60230000D01*
X83660000Y-58530000D01*
X90511928Y-58530000D01*
X90515000Y-59094250D01*
X90673750Y-59253000D01*
X91873000Y-59253000D01*
X91873000Y-58053750D01*
X92127000Y-58053750D01*
X92127000Y-59253000D01*
X93326250Y-59253000D01*
X93485000Y-59094250D01*
X93488072Y-58530000D01*
X93475812Y-58405518D01*
X93439502Y-58285820D01*
X93380537Y-58175506D01*
X93301185Y-58078815D01*
X93204494Y-57999463D01*
X93094180Y-57940498D01*
X92974482Y-57904188D01*
X92850000Y-57891928D01*
X92285750Y-57895000D01*
X92127000Y-58053750D01*
X91873000Y-58053750D01*
X91714250Y-57895000D01*
X91150000Y-57891928D01*
X91025518Y-57904188D01*
X90905820Y-57940498D01*
X90795506Y-57999463D01*
X90698815Y-58078815D01*
X90619463Y-58175506D01*
X90560498Y-58285820D01*
X90524188Y-58405518D01*
X90511928Y-58530000D01*
X83660000Y-58530000D01*
X83660000Y-55660000D01*
X159340000Y-55660000D01*
X159340001Y-109340000D01*
%TA.AperFunction,Conductor*%
D22*
G36*
X159340001Y-109340000D02*
G01*
X83660000Y-109340000D01*
X83660000Y-87230000D01*
X90511928Y-87230000D01*
X90524188Y-87354482D01*
X90560498Y-87474180D01*
X90619463Y-87584494D01*
X90698815Y-87681185D01*
X90795506Y-87760537D01*
X90905820Y-87819502D01*
X90978380Y-87841513D01*
X90846525Y-87973368D01*
X90684010Y-88216589D01*
X90572068Y-88486842D01*
X90515000Y-88773740D01*
X90515000Y-89066260D01*
X90572068Y-89353158D01*
X90684010Y-89623411D01*
X90846525Y-89866632D01*
X91053368Y-90073475D01*
X91227760Y-90190000D01*
X91053368Y-90306525D01*
X90846525Y-90513368D01*
X90684010Y-90756589D01*
X90572068Y-91026842D01*
X90515000Y-91313740D01*
X90515000Y-91606260D01*
X90572068Y-91893158D01*
X90684010Y-92163411D01*
X90846525Y-92406632D01*
X91053368Y-92613475D01*
X91227760Y-92730000D01*
X91053368Y-92846525D01*
X90846525Y-93053368D01*
X90684010Y-93296589D01*
X90572068Y-93566842D01*
X90515000Y-93853740D01*
X90515000Y-94146260D01*
X90572068Y-94433158D01*
X90684010Y-94703411D01*
X90846525Y-94946632D01*
X91053368Y-95153475D01*
X91227760Y-95270000D01*
X91053368Y-95386525D01*
X90846525Y-95593368D01*
X90684010Y-95836589D01*
X90572068Y-96106842D01*
X90515000Y-96393740D01*
X90515000Y-96686260D01*
X90572068Y-96973158D01*
X90684010Y-97243411D01*
X90846525Y-97486632D01*
X91053368Y-97693475D01*
X91227760Y-97810000D01*
X91053368Y-97926525D01*
X90846525Y-98133368D01*
X90684010Y-98376589D01*
X90572068Y-98646842D01*
X90515000Y-98933740D01*
X90515000Y-99226260D01*
X90572068Y-99513158D01*
X90684010Y-99783411D01*
X90846525Y-100026632D01*
X91053368Y-100233475D01*
X91227760Y-100350000D01*
X91053368Y-100466525D01*
X90846525Y-100673368D01*
X90684010Y-100916589D01*
X90572068Y-101186842D01*
X90515000Y-101473740D01*
X90515000Y-101766260D01*
X90572068Y-102053158D01*
X90684010Y-102323411D01*
X90846525Y-102566632D01*
X91053368Y-102773475D01*
X91227760Y-102890000D01*
X91053368Y-103006525D01*
X90846525Y-103213368D01*
X90684010Y-103456589D01*
X90572068Y-103726842D01*
X90515000Y-104013740D01*
X90515000Y-104306260D01*
X90572068Y-104593158D01*
X90684010Y-104863411D01*
X90846525Y-105106632D01*
X91053368Y-105313475D01*
X91227760Y-105430000D01*
X91053368Y-105546525D01*
X90846525Y-105753368D01*
X90684010Y-105996589D01*
X90572068Y-106266842D01*
X90515000Y-106553740D01*
X90515000Y-106846260D01*
X90572068Y-107133158D01*
X90684010Y-107403411D01*
X90846525Y-107646632D01*
X91053368Y-107853475D01*
X91296589Y-108015990D01*
X91566842Y-108127932D01*
X91853740Y-108185000D01*
X92146260Y-108185000D01*
X92433158Y-108127932D01*
X92703411Y-108015990D01*
X92946632Y-107853475D01*
X93153475Y-107646632D01*
X93191983Y-107589000D01*
X96530740Y-107589000D01*
X96568320Y-107679727D01*
X96725363Y-107914759D01*
X96925241Y-108114637D01*
X97160273Y-108271680D01*
X97421426Y-108379853D01*
X97698665Y-108435000D01*
X97981335Y-108435000D01*
X98258574Y-108379853D01*
X98519727Y-108271680D01*
X98754759Y-108114637D01*
X98954637Y-107914759D01*
X99111680Y-107679727D01*
X99219853Y-107418574D01*
X99275000Y-107141335D01*
X99275000Y-106858665D01*
X99219853Y-106581426D01*
X99111680Y-106320273D01*
X98954637Y-106085241D01*
X98754759Y-105885363D01*
X98519727Y-105728320D01*
X98258574Y-105620147D01*
X97981335Y-105565000D01*
X97698665Y-105565000D01*
X97421426Y-105620147D01*
X97160273Y-105728320D01*
X97036533Y-105811000D01*
X93191983Y-105811000D01*
X93153475Y-105753368D01*
X92946632Y-105546525D01*
X92772240Y-105430000D01*
X92946632Y-105313475D01*
X93153475Y-105106632D01*
X93191983Y-105049000D01*
X96859604Y-105049000D01*
X96925241Y-105114637D01*
X97160273Y-105271680D01*
X97421426Y-105379853D01*
X97698665Y-105435000D01*
X97981335Y-105435000D01*
X98258574Y-105379853D01*
X98519727Y-105271680D01*
X98754759Y-105114637D01*
X98954637Y-104914759D01*
X99111680Y-104679727D01*
X99219853Y-104418574D01*
X99275000Y-104141335D01*
X99275000Y-103858665D01*
X99219853Y-103581426D01*
X99111680Y-103320273D01*
X98954637Y-103085241D01*
X98754759Y-102885363D01*
X98519727Y-102728320D01*
X98258574Y-102620147D01*
X97981335Y-102565000D01*
X97698665Y-102565000D01*
X97421426Y-102620147D01*
X97160273Y-102728320D01*
X96925241Y-102885363D01*
X96725363Y-103085241D01*
X96601243Y-103271000D01*
X93191983Y-103271000D01*
X93153475Y-103213368D01*
X92946632Y-103006525D01*
X92772240Y-102890000D01*
X92946632Y-102773475D01*
X93153475Y-102566632D01*
X93191983Y-102509000D01*
X97176340Y-102509000D01*
X97220000Y-102513300D01*
X97263660Y-102509000D01*
X97263667Y-102509000D01*
X97394274Y-102496136D01*
X97561851Y-102445303D01*
X97613005Y-102417961D01*
X97698665Y-102435000D01*
X97981335Y-102435000D01*
X98258574Y-102379853D01*
X98519727Y-102271680D01*
X98754759Y-102114637D01*
X98954637Y-101914759D01*
X99111680Y-101679727D01*
X99219853Y-101418574D01*
X99275000Y-101141335D01*
X99275000Y-100858665D01*
X99219853Y-100581426D01*
X99111680Y-100320273D01*
X98954637Y-100085241D01*
X98754759Y-99885363D01*
X98519727Y-99728320D01*
X98258574Y-99620147D01*
X97981335Y-99565000D01*
X97698665Y-99565000D01*
X97490909Y-99606326D01*
X97668279Y-99428956D01*
X97698665Y-99435000D01*
X97981335Y-99435000D01*
X98258574Y-99379853D01*
X98519727Y-99271680D01*
X98754759Y-99114637D01*
X98954637Y-98914759D01*
X99111680Y-98679727D01*
X99219853Y-98418574D01*
X99275000Y-98141335D01*
X99275000Y-97858665D01*
X99219853Y-97581426D01*
X99111680Y-97320273D01*
X98954637Y-97085241D01*
X98754759Y-96885363D01*
X98519727Y-96728320D01*
X98258574Y-96620147D01*
X97981335Y-96565000D01*
X97698665Y-96565000D01*
X97490910Y-96606326D01*
X97668280Y-96428956D01*
X97698665Y-96435000D01*
X97981335Y-96435000D01*
X98258574Y-96379853D01*
X98519727Y-96271680D01*
X98754759Y-96114637D01*
X98954637Y-95914759D01*
X99111680Y-95679727D01*
X99219853Y-95418574D01*
X99275000Y-95141335D01*
X99275000Y-94858665D01*
X99219853Y-94581426D01*
X99111680Y-94320273D01*
X98954637Y-94085241D01*
X98754759Y-93885363D01*
X98519727Y-93728320D01*
X98258574Y-93620147D01*
X97981335Y-93565000D01*
X97698665Y-93565000D01*
X97490910Y-93606326D01*
X97668280Y-93428956D01*
X97698665Y-93435000D01*
X97981335Y-93435000D01*
X98258574Y-93379853D01*
X98519727Y-93271680D01*
X98754759Y-93114637D01*
X98954637Y-92914759D01*
X99111680Y-92679727D01*
X99219853Y-92418574D01*
X99275000Y-92141335D01*
X99275000Y-91858665D01*
X99219853Y-91581426D01*
X99111680Y-91320273D01*
X98954637Y-91085241D01*
X98754759Y-90885363D01*
X98519727Y-90728320D01*
X98258574Y-90620147D01*
X97981335Y-90565000D01*
X97698665Y-90565000D01*
X97490909Y-90606326D01*
X97668279Y-90428956D01*
X97698665Y-90435000D01*
X97981335Y-90435000D01*
X98258574Y-90379853D01*
X98519727Y-90271680D01*
X98754759Y-90114637D01*
X98954637Y-89914759D01*
X99111680Y-89679727D01*
X99219853Y-89418574D01*
X99275000Y-89141335D01*
X99275000Y-88858665D01*
X99219853Y-88581426D01*
X99111680Y-88320273D01*
X98954637Y-88085241D01*
X98754759Y-87885363D01*
X98519727Y-87728320D01*
X98258574Y-87620147D01*
X97981335Y-87565000D01*
X97698665Y-87565000D01*
X97490910Y-87606326D01*
X97668280Y-87428956D01*
X97698665Y-87435000D01*
X97981335Y-87435000D01*
X98258574Y-87379853D01*
X98519727Y-87271680D01*
X98754759Y-87114637D01*
X98954637Y-86914759D01*
X99111680Y-86679727D01*
X99219853Y-86418574D01*
X99275000Y-86141335D01*
X99275000Y-85858665D01*
X99219853Y-85581426D01*
X99111680Y-85320273D01*
X98954637Y-85085241D01*
X98754759Y-84885363D01*
X98519727Y-84728320D01*
X98258574Y-84620147D01*
X97981335Y-84565000D01*
X97698665Y-84565000D01*
X97421426Y-84620147D01*
X97160273Y-84728320D01*
X96925241Y-84885363D01*
X96725363Y-85085241D01*
X96568320Y-85320273D01*
X96460147Y-85581426D01*
X96405000Y-85858665D01*
X96405000Y-86141335D01*
X96411044Y-86171720D01*
X94551765Y-88031000D01*
X93191983Y-88031000D01*
X93153475Y-87973368D01*
X93021620Y-87841513D01*
X93094180Y-87819502D01*
X93204494Y-87760537D01*
X93301185Y-87681185D01*
X93380537Y-87584494D01*
X93439502Y-87474180D01*
X93475812Y-87354482D01*
X93488072Y-87230000D01*
X93485000Y-86665750D01*
X93326250Y-86507000D01*
X92127000Y-86507000D01*
X92127000Y-86527000D01*
X91873000Y-86527000D01*
X91873000Y-86507000D01*
X90673750Y-86507000D01*
X90515000Y-86665750D01*
X90511928Y-87230000D01*
X83660000Y-87230000D01*
X83660000Y-85530000D01*
X90511928Y-85530000D01*
X90515000Y-86094250D01*
X90673750Y-86253000D01*
X91873000Y-86253000D01*
X91873000Y-85053750D01*
X92127000Y-85053750D01*
X92127000Y-86253000D01*
X93326250Y-86253000D01*
X93485000Y-86094250D01*
X93488072Y-85530000D01*
X93475812Y-85405518D01*
X93439502Y-85285820D01*
X93380537Y-85175506D01*
X93301185Y-85078815D01*
X93204494Y-84999463D01*
X93094180Y-84940498D01*
X92974482Y-84904188D01*
X92850000Y-84891928D01*
X92285750Y-84895000D01*
X92127000Y-85053750D01*
X91873000Y-85053750D01*
X91714250Y-84895000D01*
X91150000Y-84891928D01*
X91025518Y-84904188D01*
X90905820Y-84940498D01*
X90795506Y-84999463D01*
X90698815Y-85078815D01*
X90619463Y-85175506D01*
X90560498Y-85285820D01*
X90524188Y-85405518D01*
X90511928Y-85530000D01*
X83660000Y-85530000D01*
X83660000Y-60230000D01*
X90511928Y-60230000D01*
X90524188Y-60354482D01*
X90560498Y-60474180D01*
X90619463Y-60584494D01*
X90698815Y-60681185D01*
X90795506Y-60760537D01*
X90905820Y-60819502D01*
X90978380Y-60841513D01*
X90846525Y-60973368D01*
X90684010Y-61216589D01*
X90572068Y-61486842D01*
X90515000Y-61773740D01*
X90515000Y-62066260D01*
X90572068Y-62353158D01*
X90684010Y-62623411D01*
X90846525Y-62866632D01*
X91053368Y-63073475D01*
X91227760Y-63190000D01*
X91053368Y-63306525D01*
X90846525Y-63513368D01*
X90684010Y-63756589D01*
X90572068Y-64026842D01*
X90515000Y-64313740D01*
X90515000Y-64606260D01*
X90572068Y-64893158D01*
X90684010Y-65163411D01*
X90846525Y-65406632D01*
X91053368Y-65613475D01*
X91227760Y-65730000D01*
X91053368Y-65846525D01*
X90846525Y-66053368D01*
X90684010Y-66296589D01*
X90572068Y-66566842D01*
X90515000Y-66853740D01*
X90515000Y-67146260D01*
X90572068Y-67433158D01*
X90684010Y-67703411D01*
X90846525Y-67946632D01*
X91053368Y-68153475D01*
X91227760Y-68270000D01*
X91053368Y-68386525D01*
X90846525Y-68593368D01*
X90684010Y-68836589D01*
X90572068Y-69106842D01*
X90515000Y-69393740D01*
X90515000Y-69686260D01*
X90572068Y-69973158D01*
X90684010Y-70243411D01*
X90846525Y-70486632D01*
X91053368Y-70693475D01*
X91227760Y-70810000D01*
X91053368Y-70926525D01*
X90846525Y-71133368D01*
X90684010Y-71376589D01*
X90572068Y-71646842D01*
X90515000Y-71933740D01*
X90515000Y-72226260D01*
X90572068Y-72513158D01*
X90684010Y-72783411D01*
X90846525Y-73026632D01*
X91053368Y-73233475D01*
X91227760Y-73350000D01*
X91053368Y-73466525D01*
X90846525Y-73673368D01*
X90684010Y-73916589D01*
X90572068Y-74186842D01*
X90515000Y-74473740D01*
X90515000Y-74766260D01*
X90572068Y-75053158D01*
X90684010Y-75323411D01*
X90846525Y-75566632D01*
X91053368Y-75773475D01*
X91227760Y-75890000D01*
X91053368Y-76006525D01*
X90846525Y-76213368D01*
X90684010Y-76456589D01*
X90572068Y-76726842D01*
X90515000Y-77013740D01*
X90515000Y-77306260D01*
X90572068Y-77593158D01*
X90684010Y-77863411D01*
X90846525Y-78106632D01*
X91053368Y-78313475D01*
X91227760Y-78430000D01*
X91053368Y-78546525D01*
X90846525Y-78753368D01*
X90684010Y-78996589D01*
X90572068Y-79266842D01*
X90515000Y-79553740D01*
X90515000Y-79846260D01*
X90572068Y-80133158D01*
X90684010Y-80403411D01*
X90846525Y-80646632D01*
X91053368Y-80853475D01*
X91296589Y-81015990D01*
X91566842Y-81127932D01*
X91853740Y-81185000D01*
X92146260Y-81185000D01*
X92433158Y-81127932D01*
X92703411Y-81015990D01*
X92946632Y-80853475D01*
X93153475Y-80646632D01*
X93191983Y-80589000D01*
X96530740Y-80589000D01*
X96568320Y-80679727D01*
X96725363Y-80914759D01*
X96925241Y-81114637D01*
X97160273Y-81271680D01*
X97421426Y-81379853D01*
X97698665Y-81435000D01*
X97981335Y-81435000D01*
X98258574Y-81379853D01*
X98519727Y-81271680D01*
X98754759Y-81114637D01*
X98954637Y-80914759D01*
X99111680Y-80679727D01*
X99219853Y-80418574D01*
X99275000Y-80141335D01*
X99275000Y-79858665D01*
X99219853Y-79581426D01*
X99111680Y-79320273D01*
X98954637Y-79085241D01*
X98754759Y-78885363D01*
X98519727Y-78728320D01*
X98258574Y-78620147D01*
X97981335Y-78565000D01*
X97698665Y-78565000D01*
X97421426Y-78620147D01*
X97160273Y-78728320D01*
X97036533Y-78811000D01*
X93191983Y-78811000D01*
X93153475Y-78753368D01*
X92946632Y-78546525D01*
X92772240Y-78430000D01*
X92946632Y-78313475D01*
X93153475Y-78106632D01*
X93298892Y-77889000D01*
X96708151Y-77889000D01*
X96725363Y-77914759D01*
X96925241Y-78114637D01*
X97160273Y-78271680D01*
X97421426Y-78379853D01*
X97698665Y-78435000D01*
X97981335Y-78435000D01*
X98258574Y-78379853D01*
X98519727Y-78271680D01*
X98754759Y-78114637D01*
X98954637Y-77914759D01*
X99111680Y-77679727D01*
X99219853Y-77418574D01*
X99275000Y-77141335D01*
X99275000Y-76858665D01*
X99219853Y-76581426D01*
X99111680Y-76320273D01*
X98954637Y-76085241D01*
X98754759Y-75885363D01*
X98519727Y-75728320D01*
X98258574Y-75620147D01*
X97981335Y-75565000D01*
X97698665Y-75565000D01*
X97421426Y-75620147D01*
X97160273Y-75728320D01*
X96925241Y-75885363D01*
X96725363Y-76085241D01*
X96708151Y-76111000D01*
X93051107Y-76111000D01*
X92946632Y-76006525D01*
X92772240Y-75890000D01*
X92946632Y-75773475D01*
X93153475Y-75566632D01*
X93191983Y-75509000D01*
X97176340Y-75509000D01*
X97220000Y-75513300D01*
X97263660Y-75509000D01*
X97263667Y-75509000D01*
X97394274Y-75496136D01*
X97561851Y-75445303D01*
X97613005Y-75417961D01*
X97698665Y-75435000D01*
X97981335Y-75435000D01*
X98258574Y-75379853D01*
X98519727Y-75271680D01*
X98754759Y-75114637D01*
X98954637Y-74914759D01*
X99111680Y-74679727D01*
X99219853Y-74418574D01*
X99275000Y-74141335D01*
X99275000Y-73858665D01*
X99219853Y-73581426D01*
X99111680Y-73320273D01*
X98954637Y-73085241D01*
X98754759Y-72885363D01*
X98519727Y-72728320D01*
X98258574Y-72620147D01*
X97981335Y-72565000D01*
X97698665Y-72565000D01*
X97421426Y-72620147D01*
X97160273Y-72728320D01*
X96925241Y-72885363D01*
X96725363Y-73085241D01*
X96568320Y-73320273D01*
X96460147Y-73581426D01*
X96430394Y-73731000D01*
X93191983Y-73731000D01*
X93153475Y-73673368D01*
X92946632Y-73466525D01*
X92772240Y-73350000D01*
X92946632Y-73233475D01*
X93153475Y-73026632D01*
X93315990Y-72783411D01*
X93427932Y-72513158D01*
X93485000Y-72226260D01*
X93485000Y-71933740D01*
X93476101Y-71889000D01*
X96708151Y-71889000D01*
X96725363Y-71914759D01*
X96925241Y-72114637D01*
X97160273Y-72271680D01*
X97421426Y-72379853D01*
X97698665Y-72435000D01*
X97981335Y-72435000D01*
X98258574Y-72379853D01*
X98519727Y-72271680D01*
X98754759Y-72114637D01*
X98954637Y-71914759D01*
X99111680Y-71679727D01*
X99219853Y-71418574D01*
X99275000Y-71141335D01*
X99275000Y-70858665D01*
X99219853Y-70581426D01*
X99111680Y-70320273D01*
X98954637Y-70085241D01*
X98754759Y-69885363D01*
X98519727Y-69728320D01*
X98258574Y-69620147D01*
X97981335Y-69565000D01*
X97698665Y-69565000D01*
X97490910Y-69606326D01*
X97668280Y-69428956D01*
X97698665Y-69435000D01*
X97981335Y-69435000D01*
X98258574Y-69379853D01*
X98519727Y-69271680D01*
X98754759Y-69114637D01*
X98954637Y-68914759D01*
X99111680Y-68679727D01*
X99219853Y-68418574D01*
X99275000Y-68141335D01*
X99275000Y-67858665D01*
X99219853Y-67581426D01*
X99111680Y-67320273D01*
X98954637Y-67085241D01*
X98754759Y-66885363D01*
X98519727Y-66728320D01*
X98258574Y-66620147D01*
X97981335Y-66565000D01*
X97698665Y-66565000D01*
X97490910Y-66606326D01*
X97668280Y-66428956D01*
X97698665Y-66435000D01*
X97981335Y-66435000D01*
X98258574Y-66379853D01*
X98519727Y-66271680D01*
X98754759Y-66114637D01*
X98954637Y-65914759D01*
X99111680Y-65679727D01*
X99219853Y-65418574D01*
X99275000Y-65141335D01*
X99275000Y-64858665D01*
X99219853Y-64581426D01*
X99111680Y-64320273D01*
X98954637Y-64085241D01*
X98754759Y-63885363D01*
X98519727Y-63728320D01*
X98258574Y-63620147D01*
X97981335Y-63565000D01*
X97698665Y-63565000D01*
X97490909Y-63606326D01*
X97668279Y-63428956D01*
X97698665Y-63435000D01*
X97981335Y-63435000D01*
X98258574Y-63379853D01*
X98519727Y-63271680D01*
X98754759Y-63114637D01*
X98954637Y-62914759D01*
X99111680Y-62679727D01*
X99219853Y-62418574D01*
X99275000Y-62141335D01*
X99275000Y-61858665D01*
X99219853Y-61581426D01*
X99111680Y-61320273D01*
X98954637Y-61085241D01*
X98754759Y-60885363D01*
X98519727Y-60728320D01*
X98258574Y-60620147D01*
X97981335Y-60565000D01*
X97698665Y-60565000D01*
X97490910Y-60606326D01*
X97668280Y-60428956D01*
X97698665Y-60435000D01*
X97981335Y-60435000D01*
X98258574Y-60379853D01*
X98519727Y-60271680D01*
X98754759Y-60114637D01*
X98954637Y-59914759D01*
X99111680Y-59679727D01*
X99219853Y-59418574D01*
X99275000Y-59141335D01*
X99275000Y-58858665D01*
X106565000Y-58858665D01*
X106565000Y-59141335D01*
X106620147Y-59418574D01*
X106728320Y-59679727D01*
X106885363Y-59914759D01*
X107085241Y-60114637D01*
X107111000Y-60131849D01*
X107111001Y-60868151D01*
X107085241Y-60885363D01*
X106885363Y-61085241D01*
X106728320Y-61320273D01*
X106620147Y-61581426D01*
X106565000Y-61858665D01*
X106565000Y-62141335D01*
X106620147Y-62418574D01*
X106728320Y-62679727D01*
X106885363Y-62914759D01*
X107085241Y-63114637D01*
X107111000Y-63131849D01*
X107111001Y-63868151D01*
X107085241Y-63885363D01*
X106885363Y-64085241D01*
X106728320Y-64320273D01*
X106620147Y-64581426D01*
X106565000Y-64858665D01*
X106565000Y-65141335D01*
X106620147Y-65418574D01*
X106728320Y-65679727D01*
X106885363Y-65914759D01*
X107085241Y-66114637D01*
X107111000Y-66131849D01*
X107111001Y-66868151D01*
X107085241Y-66885363D01*
X106885363Y-67085241D01*
X106728320Y-67320273D01*
X106620147Y-67581426D01*
X106565000Y-67858665D01*
X106565000Y-68141335D01*
X106620147Y-68418574D01*
X106728320Y-68679727D01*
X106885363Y-68914759D01*
X107085241Y-69114637D01*
X107111000Y-69131849D01*
X107111001Y-69868151D01*
X107085241Y-69885363D01*
X106885363Y-70085241D01*
X106728320Y-70320273D01*
X106620147Y-70581426D01*
X106565000Y-70858665D01*
X106565000Y-71141335D01*
X106620147Y-71418574D01*
X106728320Y-71679727D01*
X106885363Y-71914759D01*
X107085241Y-72114637D01*
X107111000Y-72131849D01*
X107111001Y-72868151D01*
X107085241Y-72885363D01*
X106885363Y-73085241D01*
X106728320Y-73320273D01*
X106620147Y-73581426D01*
X106565000Y-73858665D01*
X106565000Y-74141335D01*
X106620147Y-74418574D01*
X106728320Y-74679727D01*
X106885363Y-74914759D01*
X107085241Y-75114637D01*
X107111000Y-75131849D01*
X107111001Y-75868151D01*
X107085241Y-75885363D01*
X106885363Y-76085241D01*
X106728320Y-76320273D01*
X106620147Y-76581426D01*
X106565000Y-76858665D01*
X106565000Y-77141335D01*
X106620147Y-77418574D01*
X106728320Y-77679727D01*
X106885363Y-77914759D01*
X107085241Y-78114637D01*
X107111000Y-78131849D01*
X107111001Y-78868151D01*
X107085241Y-78885363D01*
X106885363Y-79085241D01*
X106728320Y-79320273D01*
X106620147Y-79581426D01*
X106565000Y-79858665D01*
X106565000Y-80141335D01*
X106620147Y-80418574D01*
X106728320Y-80679727D01*
X106885363Y-80914759D01*
X107085241Y-81114637D01*
X107320273Y-81271680D01*
X107581426Y-81379853D01*
X107858665Y-81435000D01*
X108141335Y-81435000D01*
X108418574Y-81379853D01*
X108679727Y-81271680D01*
X108914759Y-81114637D01*
X109114637Y-80914759D01*
X109131849Y-80889000D01*
X112761243Y-80889000D01*
X112885363Y-81074759D01*
X113085241Y-81274637D01*
X113320273Y-81431680D01*
X113581426Y-81539853D01*
X113858665Y-81595000D01*
X114141335Y-81595000D01*
X114418574Y-81539853D01*
X114679727Y-81431680D01*
X114914759Y-81274637D01*
X115114637Y-81074759D01*
X115271680Y-80839727D01*
X115379853Y-80578574D01*
X115435000Y-80301335D01*
X115435000Y-80018665D01*
X115379853Y-79741426D01*
X115271680Y-79480273D01*
X115114637Y-79245241D01*
X114914759Y-79045363D01*
X114889000Y-79028151D01*
X114889000Y-78908235D01*
X117243489Y-76553747D01*
X117336285Y-76771646D01*
X117495500Y-77004895D01*
X117697161Y-77202601D01*
X117926741Y-77352735D01*
X117798899Y-77421068D01*
X117580392Y-77600392D01*
X117401068Y-77818899D01*
X117267818Y-78068192D01*
X117185764Y-78338691D01*
X117158057Y-78620000D01*
X117185764Y-78901309D01*
X117267818Y-79171808D01*
X117401068Y-79421101D01*
X117580392Y-79639608D01*
X117798899Y-79818932D01*
X117920500Y-79883929D01*
X117920501Y-82946961D01*
X117915277Y-83000000D01*
X117936120Y-83211618D01*
X117997847Y-83415104D01*
X117997848Y-83415106D01*
X118098087Y-83602640D01*
X118232986Y-83767015D01*
X118274179Y-83800821D01*
X118565000Y-84091643D01*
X118565000Y-84141335D01*
X118620147Y-84418574D01*
X118728320Y-84679727D01*
X118885363Y-84914759D01*
X119085241Y-85114637D01*
X119320273Y-85271680D01*
X119581426Y-85379853D01*
X119765010Y-85416371D01*
X119765011Y-92561928D01*
X118819163Y-92561928D01*
X118729000Y-92471765D01*
X118729000Y-90131849D01*
X118754759Y-90114637D01*
X118954637Y-89914759D01*
X119111680Y-89679727D01*
X119219853Y-89418574D01*
X119275000Y-89141335D01*
X119275000Y-88858665D01*
X119219853Y-88581426D01*
X119111680Y-88320273D01*
X118954637Y-88085241D01*
X118754759Y-87885363D01*
X118519727Y-87728320D01*
X118258574Y-87620147D01*
X117981335Y-87565000D01*
X117698665Y-87565000D01*
X117421426Y-87620147D01*
X117160273Y-87728320D01*
X116925241Y-87885363D01*
X116725363Y-88085241D01*
X116568320Y-88320273D01*
X116460147Y-88581426D01*
X116405000Y-88858665D01*
X116405000Y-89141335D01*
X116460147Y-89418574D01*
X116568320Y-89679727D01*
X116725363Y-89914759D01*
X116925241Y-90114637D01*
X116951000Y-90131849D01*
X116951001Y-92111000D01*
X115131849Y-92111000D01*
X115114637Y-92085241D01*
X114914759Y-91885363D01*
X114679727Y-91728320D01*
X114418574Y-91620147D01*
X114141335Y-91565000D01*
X113858665Y-91565000D01*
X113581426Y-91620147D01*
X113320273Y-91728320D01*
X113085241Y-91885363D01*
X112885363Y-92085241D01*
X112728320Y-92320273D01*
X112620147Y-92581426D01*
X112565000Y-92858665D01*
X112565000Y-93141335D01*
X112620147Y-93418574D01*
X112728320Y-93679727D01*
X112885363Y-93914759D01*
X113085241Y-94114637D01*
X113320273Y-94271680D01*
X113581426Y-94379853D01*
X113858665Y-94435000D01*
X114141335Y-94435000D01*
X114418574Y-94379853D01*
X114679727Y-94271680D01*
X114914759Y-94114637D01*
X115114637Y-93914759D01*
X115131849Y-93889000D01*
X117161928Y-93889000D01*
X117161928Y-94800000D01*
X117174188Y-94924482D01*
X117210498Y-95044180D01*
X117269463Y-95154494D01*
X117348815Y-95251185D01*
X117445506Y-95330537D01*
X117555820Y-95389502D01*
X117675518Y-95425812D01*
X117693482Y-95427581D01*
X117580392Y-95520392D01*
X117401068Y-95738899D01*
X117267818Y-95988192D01*
X117185764Y-96258691D01*
X117158057Y-96540000D01*
X117185764Y-96821309D01*
X117249929Y-97032835D01*
X113402264Y-100880501D01*
X113368341Y-100908341D01*
X113257247Y-101043710D01*
X113174697Y-101198150D01*
X113150430Y-101278148D01*
X113131107Y-101341851D01*
X113123864Y-101365727D01*
X113111000Y-101496334D01*
X113111000Y-101496340D01*
X113106700Y-101540000D01*
X113111000Y-101583660D01*
X113111000Y-102028151D01*
X113085241Y-102045363D01*
X112885363Y-102245241D01*
X112728320Y-102480273D01*
X112620147Y-102741426D01*
X112565000Y-103018665D01*
X112565000Y-103111000D01*
X109131849Y-103111000D01*
X109114637Y-103085241D01*
X108914759Y-102885363D01*
X108889000Y-102868151D01*
X108889000Y-102131849D01*
X108914759Y-102114637D01*
X109114637Y-101914759D01*
X109271680Y-101679727D01*
X109379853Y-101418574D01*
X109435000Y-101141335D01*
X109435000Y-100858665D01*
X109379853Y-100581426D01*
X109271680Y-100320273D01*
X109114637Y-100085241D01*
X108914759Y-99885363D01*
X108889000Y-99868151D01*
X108889000Y-99131849D01*
X108914759Y-99114637D01*
X109114637Y-98914759D01*
X109271680Y-98679727D01*
X109379853Y-98418574D01*
X109435000Y-98141335D01*
X109435000Y-97858665D01*
X109379853Y-97581426D01*
X109271680Y-97320273D01*
X109114637Y-97085241D01*
X108914759Y-96885363D01*
X108889000Y-96868151D01*
X108889000Y-96131849D01*
X108914759Y-96114637D01*
X109114637Y-95914759D01*
X109271680Y-95679727D01*
X109379853Y-95418574D01*
X109435000Y-95141335D01*
X109435000Y-94858665D01*
X109379853Y-94581426D01*
X109271680Y-94320273D01*
X109114637Y-94085241D01*
X108914759Y-93885363D01*
X108889000Y-93868151D01*
X108889000Y-93131849D01*
X108914759Y-93114637D01*
X109114637Y-92914759D01*
X109271680Y-92679727D01*
X109379853Y-92418574D01*
X109435000Y-92141335D01*
X109435000Y-91858665D01*
X109379853Y-91581426D01*
X109271680Y-91320273D01*
X109114637Y-91085241D01*
X108914759Y-90885363D01*
X108889000Y-90868151D01*
X108889000Y-90131849D01*
X108914759Y-90114637D01*
X109114637Y-89914759D01*
X109271680Y-89679727D01*
X109379853Y-89418574D01*
X109435000Y-89141335D01*
X109435000Y-88858665D01*
X109379853Y-88581426D01*
X109271680Y-88320273D01*
X109114637Y-88085241D01*
X108914759Y-87885363D01*
X108889000Y-87868151D01*
X108889000Y-87131849D01*
X108914759Y-87114637D01*
X109114637Y-86914759D01*
X109271680Y-86679727D01*
X109379853Y-86418574D01*
X109435000Y-86141335D01*
X109435000Y-85858665D01*
X109379853Y-85581426D01*
X109271680Y-85320273D01*
X109114637Y-85085241D01*
X108914759Y-84885363D01*
X108679727Y-84728320D01*
X108418574Y-84620147D01*
X108141335Y-84565000D01*
X107858665Y-84565000D01*
X107581426Y-84620147D01*
X107320273Y-84728320D01*
X107085241Y-84885363D01*
X106885363Y-85085241D01*
X106728320Y-85320273D01*
X106620147Y-85581426D01*
X106565000Y-85858665D01*
X106565000Y-86141335D01*
X106620147Y-86418574D01*
X106728320Y-86679727D01*
X106885363Y-86914759D01*
X107085241Y-87114637D01*
X107111000Y-87131849D01*
X107111001Y-87868151D01*
X107085241Y-87885363D01*
X106885363Y-88085241D01*
X106728320Y-88320273D01*
X106620147Y-88581426D01*
X106565000Y-88858665D01*
X106565000Y-89141335D01*
X106620147Y-89418574D01*
X106728320Y-89679727D01*
X106885363Y-89914759D01*
X107085241Y-90114637D01*
X107111000Y-90131849D01*
X107111001Y-90868151D01*
X107085241Y-90885363D01*
X106885363Y-91085241D01*
X106728320Y-91320273D01*
X106620147Y-91581426D01*
X106565000Y-91858665D01*
X106565000Y-92141335D01*
X106620147Y-92418574D01*
X106728320Y-92679727D01*
X106885363Y-92914759D01*
X107085241Y-93114637D01*
X107111000Y-93131849D01*
X107111001Y-93868151D01*
X107085241Y-93885363D01*
X106885363Y-94085241D01*
X106728320Y-94320273D01*
X106620147Y-94581426D01*
X106565000Y-94858665D01*
X106565000Y-95141335D01*
X106620147Y-95418574D01*
X106728320Y-95679727D01*
X106885363Y-95914759D01*
X107085241Y-96114637D01*
X107111000Y-96131849D01*
X107111001Y-96868151D01*
X107085241Y-96885363D01*
X106885363Y-97085241D01*
X106728320Y-97320273D01*
X106620147Y-97581426D01*
X106565000Y-97858665D01*
X106565000Y-98141335D01*
X106620147Y-98418574D01*
X106728320Y-98679727D01*
X106885363Y-98914759D01*
X107085241Y-99114637D01*
X107111000Y-99131849D01*
X107111001Y-99868151D01*
X107085241Y-99885363D01*
X106885363Y-100085241D01*
X106728320Y-100320273D01*
X106620147Y-100581426D01*
X106565000Y-100858665D01*
X106565000Y-101141335D01*
X106620147Y-101418574D01*
X106728320Y-101679727D01*
X106885363Y-101914759D01*
X107085241Y-102114637D01*
X107111000Y-102131849D01*
X107111001Y-102868151D01*
X107085241Y-102885363D01*
X106885363Y-103085241D01*
X106728320Y-103320273D01*
X106620147Y-103581426D01*
X106565000Y-103858665D01*
X106565000Y-104141335D01*
X106620147Y-104418574D01*
X106728320Y-104679727D01*
X106885363Y-104914759D01*
X107085241Y-105114637D01*
X107111000Y-105131849D01*
X107111001Y-105868151D01*
X107085241Y-105885363D01*
X106885363Y-106085241D01*
X106728320Y-106320273D01*
X106620147Y-106581426D01*
X106565000Y-106858665D01*
X106565000Y-107141335D01*
X106620147Y-107418574D01*
X106728320Y-107679727D01*
X106885363Y-107914759D01*
X107085241Y-108114637D01*
X107320273Y-108271680D01*
X107581426Y-108379853D01*
X107858665Y-108435000D01*
X108141335Y-108435000D01*
X108418574Y-108379853D01*
X108679727Y-108271680D01*
X108914759Y-108114637D01*
X109114637Y-107914759D01*
X109271680Y-107679727D01*
X109379853Y-107418574D01*
X109435000Y-107141335D01*
X109435000Y-106858665D01*
X109379853Y-106581426D01*
X109271680Y-106320273D01*
X109114637Y-106085241D01*
X108914759Y-105885363D01*
X108889000Y-105868151D01*
X108889000Y-105131849D01*
X108914759Y-105114637D01*
X109114637Y-104914759D01*
X109131849Y-104889000D01*
X113116340Y-104889000D01*
X113160000Y-104893300D01*
X113203660Y-104889000D01*
X113203667Y-104889000D01*
X113334274Y-104876136D01*
X113501851Y-104825303D01*
X113656291Y-104742753D01*
X113791659Y-104631659D01*
X113819499Y-104597736D01*
X113828279Y-104588956D01*
X113858665Y-104595000D01*
X114141335Y-104595000D01*
X114418574Y-104539853D01*
X114679727Y-104431680D01*
X114914759Y-104274637D01*
X115114637Y-104074759D01*
X115271680Y-103839727D01*
X115379853Y-103578574D01*
X115435000Y-103301335D01*
X115435000Y-103018665D01*
X115379853Y-102741426D01*
X115271680Y-102480273D01*
X115114637Y-102245241D01*
X114914759Y-102045363D01*
X114889000Y-102028151D01*
X114889000Y-101908235D01*
X117243489Y-99553747D01*
X117336285Y-99771646D01*
X117495500Y-100004895D01*
X117697161Y-100202601D01*
X117926741Y-100352735D01*
X117798899Y-100421068D01*
X117580392Y-100600392D01*
X117401068Y-100818899D01*
X117267818Y-101068192D01*
X117185764Y-101338691D01*
X117158057Y-101620000D01*
X117185764Y-101901309D01*
X117267818Y-102171808D01*
X117401068Y-102421101D01*
X117580392Y-102639608D01*
X117798899Y-102818932D01*
X117920500Y-102883929D01*
X117920501Y-105946961D01*
X117915277Y-106000000D01*
X117936120Y-106211618D01*
X117992465Y-106397361D01*
X117997848Y-106415106D01*
X118098087Y-106602640D01*
X118232986Y-106767015D01*
X118274179Y-106800821D01*
X118565000Y-107091643D01*
X118565000Y-107141335D01*
X118620147Y-107418574D01*
X118728320Y-107679727D01*
X118885363Y-107914759D01*
X119085241Y-108114637D01*
X119320273Y-108271680D01*
X119581426Y-108379853D01*
X119858665Y-108435000D01*
X120141335Y-108435000D01*
X120418574Y-108379853D01*
X120679727Y-108271680D01*
X120914759Y-108114637D01*
X121114637Y-107914759D01*
X121271680Y-107679727D01*
X121379853Y-107418574D01*
X121435000Y-107141335D01*
X121435000Y-106858665D01*
X121379853Y-106581426D01*
X121271680Y-106320273D01*
X121114637Y-106085241D01*
X120914759Y-105885363D01*
X120679727Y-105728320D01*
X120418574Y-105620147D01*
X120141335Y-105565000D01*
X120091643Y-105565000D01*
X120079500Y-105552857D01*
X120079500Y-102883929D01*
X120201101Y-102818932D01*
X120419608Y-102639608D01*
X120598932Y-102421101D01*
X120732182Y-102171808D01*
X120814236Y-101901309D01*
X120841943Y-101620000D01*
X120814236Y-101338691D01*
X120812773Y-101333869D01*
X121570331Y-100576312D01*
X121611525Y-100542505D01*
X121746424Y-100378130D01*
X121846663Y-100190596D01*
X121908390Y-99987109D01*
X121924010Y-99828519D01*
X121924010Y-99828512D01*
X121929232Y-99775491D01*
X121924010Y-99722469D01*
X121924010Y-84897528D01*
X121929232Y-84844509D01*
X121924010Y-84791490D01*
X121924010Y-84791481D01*
X121908390Y-84632891D01*
X121846663Y-84429404D01*
X121746424Y-84241870D01*
X121611525Y-84077495D01*
X121570330Y-84043687D01*
X121435000Y-83908357D01*
X121435000Y-83858665D01*
X123565000Y-83858665D01*
X123565000Y-84141335D01*
X123620147Y-84418574D01*
X123728320Y-84679727D01*
X123885363Y-84914759D01*
X123920501Y-84949897D01*
X123920500Y-90637971D01*
X123915277Y-90691000D01*
X123936120Y-90902618D01*
X123997847Y-91106105D01*
X124098086Y-91293640D01*
X124232985Y-91458015D01*
X124274184Y-91491827D01*
X125526116Y-92743759D01*
X125418899Y-92801068D01*
X125200392Y-92980392D01*
X125021068Y-93198899D01*
X124887818Y-93448192D01*
X124805764Y-93718691D01*
X124778057Y-94000000D01*
X124805764Y-94281309D01*
X124807227Y-94286131D01*
X124049674Y-95043683D01*
X124008475Y-95077495D01*
X123873576Y-95241870D01*
X123773337Y-95429405D01*
X123722273Y-95597740D01*
X123711610Y-95632892D01*
X123690767Y-95844510D01*
X123695990Y-95897539D01*
X123695991Y-106398322D01*
X123620147Y-106581426D01*
X123565000Y-106858665D01*
X123565000Y-107141335D01*
X123620147Y-107418574D01*
X123728320Y-107679727D01*
X123885363Y-107914759D01*
X124085241Y-108114637D01*
X124320273Y-108271680D01*
X124581426Y-108379853D01*
X124858665Y-108435000D01*
X125141335Y-108435000D01*
X125418574Y-108379853D01*
X125679727Y-108271680D01*
X125914759Y-108114637D01*
X126114637Y-107914759D01*
X126271680Y-107679727D01*
X126379853Y-107418574D01*
X126435000Y-107141335D01*
X126435000Y-106858665D01*
X126379853Y-106581426D01*
X126271680Y-106320273D01*
X126114637Y-106085241D01*
X125914759Y-105885363D01*
X125854990Y-105845427D01*
X125854990Y-103010102D01*
X126093000Y-103055000D01*
X126493000Y-103055000D01*
X126493000Y-101747000D01*
X126747000Y-101747000D01*
X126747000Y-103055000D01*
X127147000Y-103055000D01*
X127424514Y-103002650D01*
X127686483Y-102897166D01*
X127922839Y-102742601D01*
X128124500Y-102544895D01*
X128283715Y-102311646D01*
X128394367Y-102051818D01*
X128411904Y-101969039D01*
X128289915Y-101747000D01*
X126747000Y-101747000D01*
X126493000Y-101747000D01*
X126473000Y-101747000D01*
X126473000Y-101493000D01*
X126493000Y-101493000D01*
X126493000Y-101473000D01*
X126747000Y-101473000D01*
X126747000Y-101493000D01*
X128289915Y-101493000D01*
X128411904Y-101270961D01*
X128394367Y-101188182D01*
X128283715Y-100928354D01*
X128124500Y-100695105D01*
X127922839Y-100497399D01*
X127693259Y-100347265D01*
X127821101Y-100278932D01*
X127843398Y-100260633D01*
X130571044Y-102988279D01*
X130565000Y-103018665D01*
X130565000Y-103301335D01*
X130620147Y-103578574D01*
X130728320Y-103839727D01*
X130885363Y-104074759D01*
X131085241Y-104274637D01*
X131320273Y-104431680D01*
X131581426Y-104539853D01*
X131858665Y-104595000D01*
X132141335Y-104595000D01*
X132418574Y-104539853D01*
X132679727Y-104431680D01*
X132914759Y-104274637D01*
X133114637Y-104074759D01*
X133271680Y-103839727D01*
X133379853Y-103578574D01*
X133435000Y-103301335D01*
X133435000Y-103018665D01*
X133379853Y-102741426D01*
X133271680Y-102480273D01*
X133114637Y-102245241D01*
X132914759Y-102045363D01*
X132679727Y-101888320D01*
X132418574Y-101780147D01*
X132141335Y-101725000D01*
X131858665Y-101725000D01*
X131828279Y-101731044D01*
X128955900Y-98858665D01*
X137405000Y-98858665D01*
X137405000Y-99141335D01*
X137460147Y-99418574D01*
X137568320Y-99679727D01*
X137725363Y-99914759D01*
X137925241Y-100114637D01*
X138160273Y-100271680D01*
X138421426Y-100379853D01*
X138698665Y-100435000D01*
X138981335Y-100435000D01*
X139258574Y-100379853D01*
X139519727Y-100271680D01*
X139754759Y-100114637D01*
X139954637Y-99914759D01*
X140111680Y-99679727D01*
X140219853Y-99418574D01*
X140275000Y-99141335D01*
X140275000Y-98858665D01*
X140219853Y-98581426D01*
X140111680Y-98320273D01*
X139954637Y-98085241D01*
X139754759Y-97885363D01*
X139519727Y-97728320D01*
X139258574Y-97620147D01*
X138981335Y-97565000D01*
X138698665Y-97565000D01*
X138421426Y-97620147D01*
X138160273Y-97728320D01*
X137925241Y-97885363D01*
X137725363Y-98085241D01*
X137568320Y-98320273D01*
X137460147Y-98581426D01*
X137405000Y-98858665D01*
X128955900Y-98858665D01*
X128579499Y-98482264D01*
X128551659Y-98448341D01*
X128416291Y-98337247D01*
X128261851Y-98254697D01*
X128178260Y-98229341D01*
X128039608Y-98060392D01*
X127821101Y-97881068D01*
X127688142Y-97810000D01*
X127821101Y-97738932D01*
X128039608Y-97559608D01*
X128146795Y-97429000D01*
X128416340Y-97429000D01*
X128460000Y-97433300D01*
X128503660Y-97429000D01*
X128503667Y-97429000D01*
X128634274Y-97416136D01*
X128801851Y-97365303D01*
X128956291Y-97282753D01*
X129091659Y-97171659D01*
X129119499Y-97137736D01*
X131828280Y-94428956D01*
X131858665Y-94435000D01*
X132141335Y-94435000D01*
X132171720Y-94428956D01*
X133340504Y-95597740D01*
X133368341Y-95631659D01*
X133503709Y-95742753D01*
X133658149Y-95825303D01*
X133695355Y-95836589D01*
X133825724Y-95876136D01*
X133858924Y-95879406D01*
X133956333Y-95889000D01*
X133956339Y-95889000D01*
X133999999Y-95893300D01*
X134043659Y-95889000D01*
X137708151Y-95889000D01*
X137725363Y-95914759D01*
X137925241Y-96114637D01*
X138160273Y-96271680D01*
X138421426Y-96379853D01*
X138698665Y-96435000D01*
X138981335Y-96435000D01*
X139258574Y-96379853D01*
X139519727Y-96271680D01*
X139754759Y-96114637D01*
X139954637Y-95914759D01*
X140111680Y-95679727D01*
X140219853Y-95418574D01*
X140275000Y-95141335D01*
X140275000Y-94858665D01*
X147565000Y-94858665D01*
X147565000Y-95141335D01*
X147620147Y-95418574D01*
X147728320Y-95679727D01*
X147885363Y-95914759D01*
X148085241Y-96114637D01*
X148320273Y-96271680D01*
X148581426Y-96379853D01*
X148858665Y-96435000D01*
X149141335Y-96435000D01*
X149171720Y-96428956D01*
X149880505Y-97137741D01*
X149908341Y-97171659D01*
X150043709Y-97282753D01*
X150198149Y-97365303D01*
X150292758Y-97394002D01*
X150365725Y-97416136D01*
X150382325Y-97417771D01*
X150496333Y-97429000D01*
X150496340Y-97429000D01*
X150540000Y-97433300D01*
X150583660Y-97429000D01*
X153808017Y-97429000D01*
X153846525Y-97486632D01*
X154053368Y-97693475D01*
X154227760Y-97810000D01*
X154053368Y-97926525D01*
X153846525Y-98133368D01*
X153808017Y-98191000D01*
X150185303Y-98191000D01*
X150114637Y-98085241D01*
X149914759Y-97885363D01*
X149679727Y-97728320D01*
X149418574Y-97620147D01*
X149141335Y-97565000D01*
X148858665Y-97565000D01*
X148581426Y-97620147D01*
X148320273Y-97728320D01*
X148085241Y-97885363D01*
X147885363Y-98085241D01*
X147728320Y-98320273D01*
X147620147Y-98581426D01*
X147565000Y-98858665D01*
X147565000Y-99141335D01*
X147620147Y-99418574D01*
X147728320Y-99679727D01*
X147885363Y-99914759D01*
X148085241Y-100114637D01*
X148320273Y-100271680D01*
X148581426Y-100379853D01*
X148858665Y-100435000D01*
X149141335Y-100435000D01*
X149418574Y-100379853D01*
X149679727Y-100271680D01*
X149914759Y-100114637D01*
X150060396Y-99969000D01*
X153808017Y-99969000D01*
X153846525Y-100026632D01*
X154053368Y-100233475D01*
X154296589Y-100395990D01*
X154566842Y-100507932D01*
X154853740Y-100565000D01*
X155146260Y-100565000D01*
X155433158Y-100507932D01*
X155703411Y-100395990D01*
X155946632Y-100233475D01*
X156153475Y-100026632D01*
X156315990Y-99783411D01*
X156427932Y-99513158D01*
X156485000Y-99226260D01*
X156485000Y-98933740D01*
X156427932Y-98646842D01*
X156315990Y-98376589D01*
X156153475Y-98133368D01*
X155946632Y-97926525D01*
X155772240Y-97810000D01*
X155946632Y-97693475D01*
X156153475Y-97486632D01*
X156315990Y-97243411D01*
X156427932Y-96973158D01*
X156485000Y-96686260D01*
X156485000Y-96393740D01*
X156427932Y-96106842D01*
X156315990Y-95836589D01*
X156153475Y-95593368D01*
X156021620Y-95461513D01*
X156094180Y-95439502D01*
X156204494Y-95380537D01*
X156301185Y-95301185D01*
X156380537Y-95204494D01*
X156439502Y-95094180D01*
X156475812Y-94974482D01*
X156488072Y-94850000D01*
X156485000Y-94285750D01*
X156326250Y-94127000D01*
X155127000Y-94127000D01*
X155127000Y-94147000D01*
X154873000Y-94147000D01*
X154873000Y-94127000D01*
X153673750Y-94127000D01*
X153515000Y-94285750D01*
X153511928Y-94850000D01*
X153524188Y-94974482D01*
X153560498Y-95094180D01*
X153619463Y-95204494D01*
X153698815Y-95301185D01*
X153795506Y-95380537D01*
X153905820Y-95439502D01*
X153978380Y-95461513D01*
X153846525Y-95593368D01*
X153808017Y-95651000D01*
X150908236Y-95651000D01*
X150428956Y-95171720D01*
X150435000Y-95141335D01*
X150435000Y-94858665D01*
X150379853Y-94581426D01*
X150271680Y-94320273D01*
X150114637Y-94085241D01*
X149914759Y-93885363D01*
X149679727Y-93728320D01*
X149418574Y-93620147D01*
X149141335Y-93565000D01*
X148858665Y-93565000D01*
X148581426Y-93620147D01*
X148320273Y-93728320D01*
X148085241Y-93885363D01*
X147885363Y-94085241D01*
X147728320Y-94320273D01*
X147620147Y-94581426D01*
X147565000Y-94858665D01*
X140275000Y-94858665D01*
X140219853Y-94581426D01*
X140111680Y-94320273D01*
X139954637Y-94085241D01*
X139754759Y-93885363D01*
X139519727Y-93728320D01*
X139258574Y-93620147D01*
X138981335Y-93565000D01*
X138698665Y-93565000D01*
X138421426Y-93620147D01*
X138160273Y-93728320D01*
X137925241Y-93885363D01*
X137725363Y-94085241D01*
X137708151Y-94111000D01*
X134368236Y-94111000D01*
X133428956Y-93171720D01*
X133433276Y-93150000D01*
X153511928Y-93150000D01*
X153515000Y-93714250D01*
X153673750Y-93873000D01*
X154873000Y-93873000D01*
X154873000Y-92673750D01*
X155127000Y-92673750D01*
X155127000Y-93873000D01*
X156326250Y-93873000D01*
X156485000Y-93714250D01*
X156488072Y-93150000D01*
X156475812Y-93025518D01*
X156439502Y-92905820D01*
X156380537Y-92795506D01*
X156301185Y-92698815D01*
X156204494Y-92619463D01*
X156094180Y-92560498D01*
X155974482Y-92524188D01*
X155850000Y-92511928D01*
X155285750Y-92515000D01*
X155127000Y-92673750D01*
X154873000Y-92673750D01*
X154714250Y-92515000D01*
X154150000Y-92511928D01*
X154025518Y-92524188D01*
X153905820Y-92560498D01*
X153795506Y-92619463D01*
X153698815Y-92698815D01*
X153619463Y-92795506D01*
X153560498Y-92905820D01*
X153524188Y-93025518D01*
X153511928Y-93150000D01*
X133433276Y-93150000D01*
X133435000Y-93141335D01*
X133435000Y-92858665D01*
X133379853Y-92581426D01*
X133271680Y-92320273D01*
X133114637Y-92085241D01*
X132914759Y-91885363D01*
X132679727Y-91728320D01*
X132418574Y-91620147D01*
X132141335Y-91565000D01*
X131858665Y-91565000D01*
X131581426Y-91620147D01*
X131320273Y-91728320D01*
X131085241Y-91885363D01*
X130885363Y-92085241D01*
X130728320Y-92320273D01*
X130620147Y-92581426D01*
X130565000Y-92858665D01*
X130565000Y-93141335D01*
X130571044Y-93171720D01*
X128121990Y-95620775D01*
X128039608Y-95520392D01*
X127821101Y-95341068D01*
X127688142Y-95270000D01*
X127821101Y-95198932D01*
X128039608Y-95019608D01*
X128218932Y-94801101D01*
X128352182Y-94551808D01*
X128434236Y-94281309D01*
X128461943Y-94000000D01*
X128434236Y-93718691D01*
X128352182Y-93448192D01*
X128218932Y-93198899D01*
X128039608Y-92980392D01*
X127821101Y-92801068D01*
X127699500Y-92736071D01*
X127699500Y-92364029D01*
X127704723Y-92311000D01*
X127683880Y-92099381D01*
X127622153Y-91895895D01*
X127622153Y-91895894D01*
X127521914Y-91708360D01*
X127387015Y-91543985D01*
X127345821Y-91510178D01*
X126079500Y-90243858D01*
X126079500Y-88858665D01*
X126565000Y-88858665D01*
X126565000Y-89141335D01*
X126620147Y-89418574D01*
X126728320Y-89679727D01*
X126885363Y-89914759D01*
X127085241Y-90114637D01*
X127320273Y-90271680D01*
X127581426Y-90379853D01*
X127858665Y-90435000D01*
X128141335Y-90435000D01*
X128418574Y-90379853D01*
X128679727Y-90271680D01*
X128914759Y-90114637D01*
X129114637Y-89914759D01*
X129271680Y-89679727D01*
X129379853Y-89418574D01*
X129435000Y-89141335D01*
X129435000Y-88858665D01*
X129379853Y-88581426D01*
X129271680Y-88320273D01*
X129114637Y-88085241D01*
X128914759Y-87885363D01*
X128874803Y-87858665D01*
X137405000Y-87858665D01*
X137405000Y-88141335D01*
X137460147Y-88418574D01*
X137568320Y-88679727D01*
X137725363Y-88914759D01*
X137925241Y-89114637D01*
X138160273Y-89271680D01*
X138421426Y-89379853D01*
X138698665Y-89435000D01*
X138981335Y-89435000D01*
X139258574Y-89379853D01*
X139519727Y-89271680D01*
X139754759Y-89114637D01*
X139954637Y-88914759D01*
X140111680Y-88679727D01*
X140219853Y-88418574D01*
X140275000Y-88141335D01*
X140275000Y-87858665D01*
X140219853Y-87581426D01*
X140111680Y-87320273D01*
X139954637Y-87085241D01*
X139754759Y-86885363D01*
X139519727Y-86728320D01*
X139258574Y-86620147D01*
X138981335Y-86565000D01*
X138698665Y-86565000D01*
X138421426Y-86620147D01*
X138160273Y-86728320D01*
X137925241Y-86885363D01*
X137725363Y-87085241D01*
X137568320Y-87320273D01*
X137460147Y-87581426D01*
X137405000Y-87858665D01*
X128874803Y-87858665D01*
X128679727Y-87728320D01*
X128418574Y-87620147D01*
X128141335Y-87565000D01*
X127858665Y-87565000D01*
X127581426Y-87620147D01*
X127320273Y-87728320D01*
X127085241Y-87885363D01*
X126885363Y-88085241D01*
X126728320Y-88320273D01*
X126620147Y-88581426D01*
X126565000Y-88858665D01*
X126079500Y-88858665D01*
X126079500Y-84949896D01*
X126114637Y-84914759D01*
X126271680Y-84679727D01*
X126379853Y-84418574D01*
X126435000Y-84141335D01*
X126435000Y-83858665D01*
X126379853Y-83581426D01*
X126271680Y-83320273D01*
X126114637Y-83085241D01*
X125914759Y-82885363D01*
X125854990Y-82845427D01*
X125854990Y-80010102D01*
X126093000Y-80055000D01*
X126493000Y-80055000D01*
X126493000Y-78747000D01*
X126747000Y-78747000D01*
X126747000Y-80055000D01*
X127147000Y-80055000D01*
X127424514Y-80002650D01*
X127686483Y-79897166D01*
X127922839Y-79742601D01*
X128124500Y-79544895D01*
X128283715Y-79311646D01*
X128394367Y-79051818D01*
X128411904Y-78969039D01*
X128289915Y-78747000D01*
X126747000Y-78747000D01*
X126493000Y-78747000D01*
X126473000Y-78747000D01*
X126473000Y-78493000D01*
X126493000Y-78493000D01*
X126493000Y-78473000D01*
X126747000Y-78473000D01*
X126747000Y-78493000D01*
X128289915Y-78493000D01*
X128411904Y-78270961D01*
X128394367Y-78188182D01*
X128283715Y-77928354D01*
X128124500Y-77695105D01*
X127922839Y-77497399D01*
X127693259Y-77347265D01*
X127821101Y-77278932D01*
X127843398Y-77260633D01*
X130571044Y-79988279D01*
X130565000Y-80018665D01*
X130565000Y-80301335D01*
X130620147Y-80578574D01*
X130728320Y-80839727D01*
X130885363Y-81074759D01*
X131085241Y-81274637D01*
X131320273Y-81431680D01*
X131581426Y-81539853D01*
X131858665Y-81595000D01*
X132141335Y-81595000D01*
X132418574Y-81539853D01*
X132679727Y-81431680D01*
X132914759Y-81274637D01*
X133114637Y-81074759D01*
X133271680Y-80839727D01*
X133379853Y-80578574D01*
X133435000Y-80301335D01*
X133435000Y-80018665D01*
X133393674Y-79810910D01*
X137411044Y-83828280D01*
X137405000Y-83858665D01*
X137405000Y-84141335D01*
X137460147Y-84418574D01*
X137568320Y-84679727D01*
X137725363Y-84914759D01*
X137925241Y-85114637D01*
X138160273Y-85271680D01*
X138421426Y-85379853D01*
X138698665Y-85435000D01*
X138981335Y-85435000D01*
X139258574Y-85379853D01*
X139519727Y-85271680D01*
X139754759Y-85114637D01*
X139954637Y-84914759D01*
X140111680Y-84679727D01*
X140219853Y-84418574D01*
X140275000Y-84141335D01*
X140275000Y-83858665D01*
X147565000Y-83858665D01*
X147565000Y-84141335D01*
X147620147Y-84418574D01*
X147728320Y-84679727D01*
X147885363Y-84914759D01*
X148085241Y-85114637D01*
X148320273Y-85271680D01*
X148581426Y-85379853D01*
X148858665Y-85435000D01*
X149141335Y-85435000D01*
X149171720Y-85428956D01*
X149880506Y-86137742D01*
X149908341Y-86171659D01*
X150043709Y-86282753D01*
X150198149Y-86365303D01*
X150292758Y-86394002D01*
X150365725Y-86416136D01*
X150382325Y-86417771D01*
X150496333Y-86429000D01*
X150496340Y-86429000D01*
X150540000Y-86433300D01*
X150583660Y-86429000D01*
X153808017Y-86429000D01*
X153846525Y-86486632D01*
X154053368Y-86693475D01*
X154227760Y-86810000D01*
X154053368Y-86926525D01*
X153846525Y-87133368D01*
X153808017Y-87191000D01*
X150185303Y-87191000D01*
X150114637Y-87085241D01*
X149914759Y-86885363D01*
X149679727Y-86728320D01*
X149418574Y-86620147D01*
X149141335Y-86565000D01*
X148858665Y-86565000D01*
X148581426Y-86620147D01*
X148320273Y-86728320D01*
X148085241Y-86885363D01*
X147885363Y-87085241D01*
X147728320Y-87320273D01*
X147620147Y-87581426D01*
X147565000Y-87858665D01*
X147565000Y-88141335D01*
X147620147Y-88418574D01*
X147728320Y-88679727D01*
X147885363Y-88914759D01*
X148085241Y-89114637D01*
X148320273Y-89271680D01*
X148581426Y-89379853D01*
X148858665Y-89435000D01*
X149141335Y-89435000D01*
X149418574Y-89379853D01*
X149679727Y-89271680D01*
X149914759Y-89114637D01*
X150060396Y-88969000D01*
X153808017Y-88969000D01*
X153846525Y-89026632D01*
X154053368Y-89233475D01*
X154296589Y-89395990D01*
X154566842Y-89507932D01*
X154853740Y-89565000D01*
X155146260Y-89565000D01*
X155433158Y-89507932D01*
X155703411Y-89395990D01*
X155946632Y-89233475D01*
X156153475Y-89026632D01*
X156315990Y-88783411D01*
X156427932Y-88513158D01*
X156485000Y-88226260D01*
X156485000Y-87933740D01*
X156427932Y-87646842D01*
X156315990Y-87376589D01*
X156153475Y-87133368D01*
X155946632Y-86926525D01*
X155772240Y-86810000D01*
X155946632Y-86693475D01*
X156153475Y-86486632D01*
X156315990Y-86243411D01*
X156427932Y-85973158D01*
X156485000Y-85686260D01*
X156485000Y-85393740D01*
X156427932Y-85106842D01*
X156315990Y-84836589D01*
X156153475Y-84593368D01*
X156021620Y-84461513D01*
X156094180Y-84439502D01*
X156204494Y-84380537D01*
X156301185Y-84301185D01*
X156380537Y-84204494D01*
X156439502Y-84094180D01*
X156475812Y-83974482D01*
X156488072Y-83850000D01*
X156485000Y-83285750D01*
X156326250Y-83127000D01*
X155127000Y-83127000D01*
X155127000Y-83147000D01*
X154873000Y-83147000D01*
X154873000Y-83127000D01*
X153673750Y-83127000D01*
X153515000Y-83285750D01*
X153511928Y-83850000D01*
X153524188Y-83974482D01*
X153560498Y-84094180D01*
X153619463Y-84204494D01*
X153698815Y-84301185D01*
X153795506Y-84380537D01*
X153905820Y-84439502D01*
X153978380Y-84461513D01*
X153846525Y-84593368D01*
X153808017Y-84651000D01*
X150908236Y-84651000D01*
X150428956Y-84171720D01*
X150435000Y-84141335D01*
X150435000Y-83858665D01*
X150379853Y-83581426D01*
X150271680Y-83320273D01*
X150114637Y-83085241D01*
X149914759Y-82885363D01*
X149679727Y-82728320D01*
X149418574Y-82620147D01*
X149141335Y-82565000D01*
X148858665Y-82565000D01*
X148581426Y-82620147D01*
X148320273Y-82728320D01*
X148085241Y-82885363D01*
X147885363Y-83085241D01*
X147728320Y-83320273D01*
X147620147Y-83581426D01*
X147565000Y-83858665D01*
X140275000Y-83858665D01*
X140219853Y-83581426D01*
X140111680Y-83320273D01*
X139954637Y-83085241D01*
X139754759Y-82885363D01*
X139519727Y-82728320D01*
X139258574Y-82620147D01*
X138981335Y-82565000D01*
X138698665Y-82565000D01*
X138668280Y-82571044D01*
X138247236Y-82150000D01*
X153511928Y-82150000D01*
X153515000Y-82714250D01*
X153673750Y-82873000D01*
X154873000Y-82873000D01*
X154873000Y-81673750D01*
X155127000Y-81673750D01*
X155127000Y-82873000D01*
X156326250Y-82873000D01*
X156485000Y-82714250D01*
X156488072Y-82150000D01*
X156475812Y-82025518D01*
X156439502Y-81905820D01*
X156380537Y-81795506D01*
X156301185Y-81698815D01*
X156204494Y-81619463D01*
X156094180Y-81560498D01*
X155974482Y-81524188D01*
X155850000Y-81511928D01*
X155285750Y-81515000D01*
X155127000Y-81673750D01*
X154873000Y-81673750D01*
X154714250Y-81515000D01*
X154150000Y-81511928D01*
X154025518Y-81524188D01*
X153905820Y-81560498D01*
X153795506Y-81619463D01*
X153698815Y-81698815D01*
X153619463Y-81795506D01*
X153560498Y-81905820D01*
X153524188Y-82025518D01*
X153511928Y-82150000D01*
X138247236Y-82150000D01*
X129677235Y-73580000D01*
X131828280Y-71428956D01*
X131858665Y-71435000D01*
X132141335Y-71435000D01*
X132418574Y-71379853D01*
X132679727Y-71271680D01*
X132914759Y-71114637D01*
X133114637Y-70914759D01*
X133271680Y-70679727D01*
X133379853Y-70418574D01*
X133435000Y-70141335D01*
X133435000Y-69858665D01*
X133379853Y-69581426D01*
X133271680Y-69320273D01*
X133114637Y-69085241D01*
X132914759Y-68885363D01*
X132679727Y-68728320D01*
X132418574Y-68620147D01*
X132141335Y-68565000D01*
X131858665Y-68565000D01*
X131581426Y-68620147D01*
X131320273Y-68728320D01*
X131085241Y-68885363D01*
X130885363Y-69085241D01*
X130728320Y-69320273D01*
X130620147Y-69581426D01*
X130565000Y-69858665D01*
X130565000Y-70141335D01*
X130571044Y-70171720D01*
X128121990Y-72620775D01*
X128039608Y-72520392D01*
X127821101Y-72341068D01*
X127688142Y-72270000D01*
X127821101Y-72198932D01*
X128039608Y-72019608D01*
X128218932Y-71801101D01*
X128352182Y-71551808D01*
X128434236Y-71281309D01*
X128461943Y-71000000D01*
X128434236Y-70718691D01*
X128352182Y-70448192D01*
X128218932Y-70198899D01*
X128039608Y-69980392D01*
X127821101Y-69801068D01*
X127571808Y-69667818D01*
X127301309Y-69585764D01*
X127090492Y-69565000D01*
X126149508Y-69565000D01*
X125938691Y-69585764D01*
X125668192Y-69667818D01*
X125418899Y-69801068D01*
X125200392Y-69980392D01*
X125021068Y-70198899D01*
X124887818Y-70448192D01*
X124805764Y-70718691D01*
X124778057Y-71000000D01*
X124805764Y-71281309D01*
X124807227Y-71286131D01*
X124049674Y-72043683D01*
X124008475Y-72077495D01*
X123873576Y-72241870D01*
X123773337Y-72429405D01*
X123732205Y-72565000D01*
X123711610Y-72632892D01*
X123690767Y-72844510D01*
X123695990Y-72897539D01*
X123695991Y-83398322D01*
X123620147Y-83581426D01*
X123565000Y-83858665D01*
X121435000Y-83858665D01*
X121379853Y-83581426D01*
X121271680Y-83320273D01*
X121114637Y-83085241D01*
X120914759Y-82885363D01*
X120679727Y-82728320D01*
X120418574Y-82620147D01*
X120141335Y-82565000D01*
X120091643Y-82565000D01*
X120079500Y-82552857D01*
X120079500Y-79883929D01*
X120201101Y-79818932D01*
X120419608Y-79639608D01*
X120598932Y-79421101D01*
X120732182Y-79171808D01*
X120814236Y-78901309D01*
X120841943Y-78620000D01*
X120814236Y-78338691D01*
X120812773Y-78333869D01*
X122670322Y-76476321D01*
X122711516Y-76442514D01*
X122846415Y-76278139D01*
X122946654Y-76090605D01*
X123008381Y-75887118D01*
X123024001Y-75728528D01*
X123024001Y-75728521D01*
X123029223Y-75675500D01*
X123024001Y-75622478D01*
X123024001Y-65858665D01*
X126565000Y-65858665D01*
X126565000Y-66141335D01*
X126620147Y-66418574D01*
X126728320Y-66679727D01*
X126885363Y-66914759D01*
X127085241Y-67114637D01*
X127320273Y-67271680D01*
X127581426Y-67379853D01*
X127858665Y-67435000D01*
X128141335Y-67435000D01*
X128418574Y-67379853D01*
X128679727Y-67271680D01*
X128914759Y-67114637D01*
X129114637Y-66914759D01*
X129271680Y-66679727D01*
X129379853Y-66418574D01*
X129435000Y-66141335D01*
X129435000Y-65858665D01*
X129379853Y-65581426D01*
X129271680Y-65320273D01*
X129114637Y-65085241D01*
X128914759Y-64885363D01*
X128679727Y-64728320D01*
X128418574Y-64620147D01*
X128141335Y-64565000D01*
X127858665Y-64565000D01*
X127581426Y-64620147D01*
X127320273Y-64728320D01*
X127085241Y-64885363D01*
X126885363Y-65085241D01*
X126728320Y-65320273D01*
X126620147Y-65581426D01*
X126565000Y-65858665D01*
X123024001Y-65858665D01*
X123024001Y-62524001D01*
X126997359Y-62524001D01*
X134316000Y-69842643D01*
X134315999Y-74502470D01*
X134310776Y-74555499D01*
X134317129Y-74620000D01*
X134331619Y-74767117D01*
X134393346Y-74970604D01*
X134493585Y-75158139D01*
X134628484Y-75322514D01*
X134669683Y-75356325D01*
X135405000Y-76091643D01*
X135405000Y-76141335D01*
X135460147Y-76418574D01*
X135568320Y-76679727D01*
X135725363Y-76914759D01*
X135925241Y-77114637D01*
X136160273Y-77271680D01*
X136421426Y-77379853D01*
X136698665Y-77435000D01*
X136981335Y-77435000D01*
X137258574Y-77379853D01*
X137519727Y-77271680D01*
X137754759Y-77114637D01*
X137954637Y-76914759D01*
X138111680Y-76679727D01*
X138219853Y-76418574D01*
X138275000Y-76141335D01*
X138275000Y-75858665D01*
X138219853Y-75581426D01*
X138111680Y-75320273D01*
X137954637Y-75085241D01*
X137754759Y-74885363D01*
X137519727Y-74728320D01*
X137258574Y-74620147D01*
X136981335Y-74565000D01*
X136931643Y-74565000D01*
X136474999Y-74108357D01*
X136474999Y-73390509D01*
X136698665Y-73435000D01*
X136981335Y-73435000D01*
X137258574Y-73379853D01*
X137519727Y-73271680D01*
X137754759Y-73114637D01*
X137954637Y-72914759D01*
X138111680Y-72679727D01*
X138219853Y-72418574D01*
X138275000Y-72141335D01*
X138275000Y-71858665D01*
X138219853Y-71581426D01*
X138111680Y-71320273D01*
X137954637Y-71085241D01*
X137919500Y-71050104D01*
X137919500Y-68893029D01*
X137924723Y-68840000D01*
X137903880Y-68628381D01*
X137860386Y-68485000D01*
X137842153Y-68424894D01*
X137777736Y-68304378D01*
X145565000Y-76091643D01*
X145565000Y-76141335D01*
X145620147Y-76418574D01*
X145728320Y-76679727D01*
X145885363Y-76914759D01*
X146085241Y-77114637D01*
X146320273Y-77271680D01*
X146581426Y-77379853D01*
X146858665Y-77435000D01*
X147141335Y-77435000D01*
X147418574Y-77379853D01*
X147679727Y-77271680D01*
X147914759Y-77114637D01*
X148114637Y-76914759D01*
X148271680Y-76679727D01*
X148379853Y-76418574D01*
X148435000Y-76141335D01*
X148435000Y-75858665D01*
X148379853Y-75581426D01*
X148271680Y-75320273D01*
X148114637Y-75085241D01*
X147914759Y-74885363D01*
X147679727Y-74728320D01*
X147418574Y-74620147D01*
X147141335Y-74565000D01*
X147091643Y-74565000D01*
X144385308Y-71858665D01*
X145565000Y-71858665D01*
X145565000Y-72141335D01*
X145620147Y-72418574D01*
X145728320Y-72679727D01*
X145885363Y-72914759D01*
X146085241Y-73114637D01*
X146320273Y-73271680D01*
X146581426Y-73379853D01*
X146858665Y-73435000D01*
X147141335Y-73435000D01*
X147418574Y-73379853D01*
X147679727Y-73271680D01*
X147914759Y-73114637D01*
X148114637Y-72914759D01*
X148271680Y-72679727D01*
X148379853Y-72418574D01*
X148435000Y-72141335D01*
X148435000Y-72091643D01*
X148885826Y-71640818D01*
X148927015Y-71607015D01*
X149061914Y-71442640D01*
X149162153Y-71255106D01*
X149223880Y-71051619D01*
X149239500Y-70893029D01*
X149244723Y-70840000D01*
X149239500Y-70786971D01*
X149239500Y-64020607D01*
X149313475Y-63946632D01*
X149475990Y-63703411D01*
X149587932Y-63433158D01*
X149645000Y-63146260D01*
X149645000Y-62853740D01*
X149587932Y-62566842D01*
X149475990Y-62296589D01*
X149313475Y-62053368D01*
X149239500Y-61979393D01*
X149239500Y-61480607D01*
X149313475Y-61406632D01*
X149475990Y-61163411D01*
X149587932Y-60893158D01*
X149645000Y-60606260D01*
X149645000Y-60313740D01*
X149587932Y-60026842D01*
X149475990Y-59756589D01*
X149313475Y-59513368D01*
X149106632Y-59306525D01*
X148863411Y-59144010D01*
X148593158Y-59032068D01*
X148306260Y-58975000D01*
X148013740Y-58975000D01*
X147726842Y-59032068D01*
X147456589Y-59144010D01*
X147213368Y-59306525D01*
X147006525Y-59513368D01*
X146890689Y-59686729D01*
X146648397Y-59611208D01*
X145799605Y-60460000D01*
X146648397Y-61308792D01*
X146890689Y-61233271D01*
X147006525Y-61406632D01*
X147080500Y-61480607D01*
X147080501Y-61979392D01*
X147006525Y-62053368D01*
X146890689Y-62226729D01*
X146648397Y-62151208D01*
X145799605Y-63000000D01*
X146648397Y-63848792D01*
X146890689Y-63773271D01*
X147006525Y-63946632D01*
X147080500Y-64020607D01*
X147080501Y-70392856D01*
X146908357Y-70565000D01*
X146858665Y-70565000D01*
X146581426Y-70620147D01*
X146320273Y-70728320D01*
X146085241Y-70885363D01*
X145885363Y-71085241D01*
X145728320Y-71320273D01*
X145620147Y-71581426D01*
X145565000Y-71858665D01*
X144385308Y-71858665D01*
X139079500Y-66552858D01*
X139079500Y-64345827D01*
X139093386Y-64338405D01*
X139227962Y-64227962D01*
X139338405Y-64093386D01*
X139373142Y-64028397D01*
X139691208Y-64028397D01*
X139768843Y-64277472D01*
X140032883Y-64403371D01*
X140316411Y-64475339D01*
X140608531Y-64490611D01*
X140898019Y-64448599D01*
X141173747Y-64350919D01*
X141311157Y-64277472D01*
X141388792Y-64028397D01*
X142231208Y-64028397D01*
X142308843Y-64277472D01*
X142572883Y-64403371D01*
X142856411Y-64475339D01*
X143148531Y-64490611D01*
X143438019Y-64448599D01*
X143713747Y-64350919D01*
X143851157Y-64277472D01*
X143928792Y-64028397D01*
X144771208Y-64028397D01*
X144848843Y-64277472D01*
X145112883Y-64403371D01*
X145396411Y-64475339D01*
X145688531Y-64490611D01*
X145978019Y-64448599D01*
X146253747Y-64350919D01*
X146391157Y-64277472D01*
X146468792Y-64028397D01*
X145620000Y-63179605D01*
X144771208Y-64028397D01*
X143928792Y-64028397D01*
X143080000Y-63179605D01*
X142231208Y-64028397D01*
X141388792Y-64028397D01*
X140540000Y-63179605D01*
X139691208Y-64028397D01*
X139373142Y-64028397D01*
X139420472Y-63939850D01*
X139453580Y-63830707D01*
X139511603Y-63848792D01*
X140360395Y-63000000D01*
X140719605Y-63000000D01*
X141568397Y-63848792D01*
X141810000Y-63773486D01*
X142051603Y-63848792D01*
X142900395Y-63000000D01*
X143259605Y-63000000D01*
X144108397Y-63848792D01*
X144350000Y-63773486D01*
X144591603Y-63848792D01*
X145440395Y-63000000D01*
X144591603Y-62151208D01*
X144350000Y-62226514D01*
X144108397Y-62151208D01*
X143259605Y-63000000D01*
X142900395Y-63000000D01*
X142051603Y-62151208D01*
X141810000Y-62226514D01*
X141568397Y-62151208D01*
X140719605Y-63000000D01*
X140360395Y-63000000D01*
X139511603Y-62151208D01*
X139453580Y-62169293D01*
X139420472Y-62060150D01*
X139338405Y-61906614D01*
X139227962Y-61772038D01*
X139093386Y-61661595D01*
X139079500Y-61654173D01*
X139079500Y-61488397D01*
X139691208Y-61488397D01*
X139766514Y-61730000D01*
X139691208Y-61971603D01*
X140540000Y-62820395D01*
X141388792Y-61971603D01*
X141313486Y-61730000D01*
X141388792Y-61488397D01*
X142231208Y-61488397D01*
X142306514Y-61730000D01*
X142231208Y-61971603D01*
X143080000Y-62820395D01*
X143928792Y-61971603D01*
X143853486Y-61730000D01*
X143928792Y-61488397D01*
X144771208Y-61488397D01*
X144846514Y-61730000D01*
X144771208Y-61971603D01*
X145620000Y-62820395D01*
X146468792Y-61971603D01*
X146393486Y-61730000D01*
X146468792Y-61488397D01*
X145620000Y-60639605D01*
X144771208Y-61488397D01*
X143928792Y-61488397D01*
X143080000Y-60639605D01*
X142231208Y-61488397D01*
X141388792Y-61488397D01*
X140540000Y-60639605D01*
X139691208Y-61488397D01*
X139079500Y-61488397D01*
X139079500Y-61480607D01*
X139153475Y-61406632D01*
X139269311Y-61233271D01*
X139511603Y-61308792D01*
X140360395Y-60460000D01*
X140719605Y-60460000D01*
X141568397Y-61308792D01*
X141810000Y-61233486D01*
X142051603Y-61308792D01*
X142900395Y-60460000D01*
X143259605Y-60460000D01*
X144108397Y-61308792D01*
X144350000Y-61233486D01*
X144591603Y-61308792D01*
X145440395Y-60460000D01*
X144591603Y-59611208D01*
X144350000Y-59686514D01*
X144108397Y-59611208D01*
X143259605Y-60460000D01*
X142900395Y-60460000D01*
X142051603Y-59611208D01*
X141810000Y-59686514D01*
X141568397Y-59611208D01*
X140719605Y-60460000D01*
X140360395Y-60460000D01*
X139511603Y-59611208D01*
X139269311Y-59686729D01*
X139153475Y-59513368D01*
X139071710Y-59431603D01*
X139691208Y-59431603D01*
X140540000Y-60280395D01*
X141388792Y-59431603D01*
X142231208Y-59431603D01*
X143080000Y-60280395D01*
X143928792Y-59431603D01*
X144771208Y-59431603D01*
X145620000Y-60280395D01*
X146468792Y-59431603D01*
X146391157Y-59182528D01*
X146127117Y-59056629D01*
X145843589Y-58984661D01*
X145551469Y-58969389D01*
X145261981Y-59011401D01*
X144986253Y-59109081D01*
X144848843Y-59182528D01*
X144771208Y-59431603D01*
X143928792Y-59431603D01*
X143851157Y-59182528D01*
X143587117Y-59056629D01*
X143303589Y-58984661D01*
X143011469Y-58969389D01*
X142721981Y-59011401D01*
X142446253Y-59109081D01*
X142308843Y-59182528D01*
X142231208Y-59431603D01*
X141388792Y-59431603D01*
X141311157Y-59182528D01*
X141047117Y-59056629D01*
X140763589Y-58984661D01*
X140471469Y-58969389D01*
X140181981Y-59011401D01*
X139906253Y-59109081D01*
X139768843Y-59182528D01*
X139691208Y-59431603D01*
X139071710Y-59431603D01*
X138946632Y-59306525D01*
X138703411Y-59144010D01*
X138433158Y-59032068D01*
X138146260Y-58975000D01*
X137853740Y-58975000D01*
X137566842Y-59032068D01*
X137296589Y-59144010D01*
X137053368Y-59306525D01*
X136846525Y-59513368D01*
X136684010Y-59756589D01*
X136572068Y-60026842D01*
X136515000Y-60313740D01*
X136515000Y-60606260D01*
X136572068Y-60893158D01*
X136684010Y-61163411D01*
X136846525Y-61406632D01*
X136920500Y-61480607D01*
X136920500Y-61654172D01*
X136906614Y-61661595D01*
X136772038Y-61772038D01*
X136661595Y-61906614D01*
X136579528Y-62060150D01*
X136528992Y-62226746D01*
X136511928Y-62400000D01*
X136511928Y-63600000D01*
X136528992Y-63773254D01*
X136579528Y-63939850D01*
X136661595Y-64093386D01*
X136772038Y-64227962D01*
X136906614Y-64338405D01*
X136920500Y-64345827D01*
X136920501Y-66946961D01*
X136915277Y-67000000D01*
X136936120Y-67211618D01*
X136983662Y-67368341D01*
X136997848Y-67415106D01*
X137062264Y-67535620D01*
X129438072Y-59911430D01*
X129438072Y-59200000D01*
X129425812Y-59075518D01*
X129389502Y-58955820D01*
X129330537Y-58845506D01*
X129251185Y-58748815D01*
X129154494Y-58669463D01*
X129044180Y-58610498D01*
X128924482Y-58574188D01*
X128800000Y-58561928D01*
X127200000Y-58561928D01*
X127075518Y-58574188D01*
X126955820Y-58610498D01*
X126845506Y-58669463D01*
X126748815Y-58748815D01*
X126669463Y-58845506D01*
X126610498Y-58955820D01*
X126574188Y-59075518D01*
X126561928Y-59200000D01*
X126561928Y-59207215D01*
X126492702Y-59186903D01*
X125679605Y-60000000D01*
X125693748Y-60014143D01*
X125514143Y-60193748D01*
X125500000Y-60179605D01*
X125485858Y-60193748D01*
X125306253Y-60014143D01*
X125320395Y-60000000D01*
X124507298Y-59186903D01*
X124263329Y-59258486D01*
X124142429Y-59513996D01*
X124073700Y-59788184D01*
X124059783Y-60070512D01*
X124101213Y-60350130D01*
X124106531Y-60365001D01*
X122391645Y-60365001D01*
X121935000Y-59908357D01*
X121935000Y-59858665D01*
X121879853Y-59581426D01*
X121771680Y-59320273D01*
X121614637Y-59085241D01*
X121536694Y-59007298D01*
X124686903Y-59007298D01*
X125500000Y-59820395D01*
X126313097Y-59007298D01*
X126241514Y-58763329D01*
X125986004Y-58642429D01*
X125711816Y-58573700D01*
X125429488Y-58559783D01*
X125149870Y-58601213D01*
X124883708Y-58696397D01*
X124758486Y-58763329D01*
X124686903Y-59007298D01*
X121536694Y-59007298D01*
X121414759Y-58885363D01*
X121179727Y-58728320D01*
X120918574Y-58620147D01*
X120641335Y-58565000D01*
X120358665Y-58565000D01*
X120081426Y-58620147D01*
X119820273Y-58728320D01*
X119585241Y-58885363D01*
X119418661Y-59051943D01*
X119389502Y-58955820D01*
X119330537Y-58845506D01*
X119251185Y-58748815D01*
X119154494Y-58669463D01*
X119044180Y-58610498D01*
X118924482Y-58574188D01*
X118800000Y-58561928D01*
X118285750Y-58565000D01*
X118127000Y-58723750D01*
X118127000Y-59873000D01*
X118147000Y-59873000D01*
X118147000Y-60127000D01*
X118127000Y-60127000D01*
X118127000Y-61276250D01*
X118285750Y-61435000D01*
X118800000Y-61438072D01*
X118924482Y-61425812D01*
X119044180Y-61389502D01*
X119154494Y-61330537D01*
X119251185Y-61251185D01*
X119330537Y-61154494D01*
X119389502Y-61044180D01*
X119418661Y-60948057D01*
X119585241Y-61114637D01*
X119820273Y-61271680D01*
X120081426Y-61379853D01*
X120358665Y-61435000D01*
X120408357Y-61435000D01*
X120865001Y-61891645D01*
X120865002Y-75228355D01*
X120676047Y-75417311D01*
X120663715Y-75388354D01*
X120504500Y-75155105D01*
X120302839Y-74957399D01*
X120073259Y-74807265D01*
X120201101Y-74738932D01*
X120419608Y-74559608D01*
X120598932Y-74341101D01*
X120732182Y-74091808D01*
X120814236Y-73821309D01*
X120841943Y-73540000D01*
X120814236Y-73258691D01*
X120732182Y-72988192D01*
X120598932Y-72738899D01*
X120419608Y-72520392D01*
X120306518Y-72427581D01*
X120324482Y-72425812D01*
X120444180Y-72389502D01*
X120554494Y-72330537D01*
X120651185Y-72251185D01*
X120730537Y-72154494D01*
X120789502Y-72044180D01*
X120825812Y-71924482D01*
X120838072Y-71800000D01*
X120838072Y-70200000D01*
X120825812Y-70075518D01*
X120789502Y-69955820D01*
X120730537Y-69845506D01*
X120651185Y-69748815D01*
X120554494Y-69669463D01*
X120444180Y-69610498D01*
X120324482Y-69574188D01*
X120200000Y-69561928D01*
X118819163Y-69561928D01*
X118729000Y-69471765D01*
X118729000Y-67131849D01*
X118754759Y-67114637D01*
X118954637Y-66914759D01*
X119111680Y-66679727D01*
X119219853Y-66418574D01*
X119275000Y-66141335D01*
X119275000Y-65858665D01*
X119219853Y-65581426D01*
X119111680Y-65320273D01*
X118954637Y-65085241D01*
X118754759Y-64885363D01*
X118519727Y-64728320D01*
X118258574Y-64620147D01*
X117981335Y-64565000D01*
X117698665Y-64565000D01*
X117421426Y-64620147D01*
X117160273Y-64728320D01*
X116925241Y-64885363D01*
X116725363Y-65085241D01*
X116568320Y-65320273D01*
X116460147Y-65581426D01*
X116405000Y-65858665D01*
X116405000Y-66141335D01*
X116460147Y-66418574D01*
X116568320Y-66679727D01*
X116725363Y-66914759D01*
X116925241Y-67114637D01*
X116951000Y-67131849D01*
X116951001Y-69111000D01*
X115131849Y-69111000D01*
X115114637Y-69085241D01*
X114914759Y-68885363D01*
X114679727Y-68728320D01*
X114418574Y-68620147D01*
X114141335Y-68565000D01*
X113858665Y-68565000D01*
X113581426Y-68620147D01*
X113320273Y-68728320D01*
X113085241Y-68885363D01*
X112885363Y-69085241D01*
X112728320Y-69320273D01*
X112620147Y-69581426D01*
X112565000Y-69858665D01*
X112565000Y-70141335D01*
X112620147Y-70418574D01*
X112728320Y-70679727D01*
X112885363Y-70914759D01*
X113085241Y-71114637D01*
X113320273Y-71271680D01*
X113581426Y-71379853D01*
X113858665Y-71435000D01*
X114141335Y-71435000D01*
X114418574Y-71379853D01*
X114679727Y-71271680D01*
X114914759Y-71114637D01*
X115114637Y-70914759D01*
X115131849Y-70889000D01*
X117161928Y-70889000D01*
X117161928Y-71800000D01*
X117174188Y-71924482D01*
X117210498Y-72044180D01*
X117269463Y-72154494D01*
X117348815Y-72251185D01*
X117445506Y-72330537D01*
X117555820Y-72389502D01*
X117675518Y-72425812D01*
X117693482Y-72427581D01*
X117580392Y-72520392D01*
X117401068Y-72738899D01*
X117267818Y-72988192D01*
X117185764Y-73258691D01*
X117158057Y-73540000D01*
X117185764Y-73821309D01*
X117249929Y-74032835D01*
X113402259Y-77880506D01*
X113368342Y-77908341D01*
X113340507Y-77942258D01*
X113340505Y-77942260D01*
X113257248Y-78043709D01*
X113174698Y-78198148D01*
X113123864Y-78365726D01*
X113106700Y-78540000D01*
X113111001Y-78583670D01*
X113111001Y-79028151D01*
X113085241Y-79045363D01*
X113019604Y-79111000D01*
X109131849Y-79111000D01*
X109114637Y-79085241D01*
X108914759Y-78885363D01*
X108889000Y-78868151D01*
X108889000Y-78131849D01*
X108914759Y-78114637D01*
X109114637Y-77914759D01*
X109271680Y-77679727D01*
X109379853Y-77418574D01*
X109435000Y-77141335D01*
X109435000Y-76858665D01*
X109379853Y-76581426D01*
X109271680Y-76320273D01*
X109114637Y-76085241D01*
X108914759Y-75885363D01*
X108889000Y-75868151D01*
X108889000Y-75131849D01*
X108914759Y-75114637D01*
X109114637Y-74914759D01*
X109271680Y-74679727D01*
X109379853Y-74418574D01*
X109435000Y-74141335D01*
X109435000Y-73858665D01*
X109379853Y-73581426D01*
X109271680Y-73320273D01*
X109114637Y-73085241D01*
X108914759Y-72885363D01*
X108889000Y-72868151D01*
X108889000Y-72131849D01*
X108914759Y-72114637D01*
X109114637Y-71914759D01*
X109271680Y-71679727D01*
X109379853Y-71418574D01*
X109435000Y-71141335D01*
X109435000Y-70858665D01*
X109379853Y-70581426D01*
X109271680Y-70320273D01*
X109114637Y-70085241D01*
X108914759Y-69885363D01*
X108889000Y-69868151D01*
X108889000Y-69131849D01*
X108914759Y-69114637D01*
X109114637Y-68914759D01*
X109271680Y-68679727D01*
X109379853Y-68418574D01*
X109435000Y-68141335D01*
X109435000Y-67858665D01*
X109379853Y-67581426D01*
X109271680Y-67320273D01*
X109114637Y-67085241D01*
X108914759Y-66885363D01*
X108889000Y-66868151D01*
X108889000Y-66131849D01*
X108914759Y-66114637D01*
X109114637Y-65914759D01*
X109271680Y-65679727D01*
X109379853Y-65418574D01*
X109435000Y-65141335D01*
X109435000Y-64858665D01*
X109379853Y-64581426D01*
X109271680Y-64320273D01*
X109114637Y-64085241D01*
X108914759Y-63885363D01*
X108889000Y-63868151D01*
X108889000Y-63131849D01*
X108914759Y-63114637D01*
X109114637Y-62914759D01*
X109271680Y-62679727D01*
X109379853Y-62418574D01*
X109435000Y-62141335D01*
X109435000Y-61858665D01*
X109379853Y-61581426D01*
X109271680Y-61320273D01*
X109114637Y-61085241D01*
X108914759Y-60885363D01*
X108889000Y-60868151D01*
X108889000Y-60800000D01*
X116561928Y-60800000D01*
X116574188Y-60924482D01*
X116610498Y-61044180D01*
X116669463Y-61154494D01*
X116748815Y-61251185D01*
X116845506Y-61330537D01*
X116955820Y-61389502D01*
X117075518Y-61425812D01*
X117200000Y-61438072D01*
X117714250Y-61435000D01*
X117873000Y-61276250D01*
X117873000Y-60127000D01*
X116723750Y-60127000D01*
X116565000Y-60285750D01*
X116561928Y-60800000D01*
X108889000Y-60800000D01*
X108889000Y-60131849D01*
X108914759Y-60114637D01*
X109114637Y-59914759D01*
X109271680Y-59679727D01*
X109379853Y-59418574D01*
X109423330Y-59200000D01*
X116561928Y-59200000D01*
X116565000Y-59714250D01*
X116723750Y-59873000D01*
X117873000Y-59873000D01*
X117873000Y-58723750D01*
X117714250Y-58565000D01*
X117200000Y-58561928D01*
X117075518Y-58574188D01*
X116955820Y-58610498D01*
X116845506Y-58669463D01*
X116748815Y-58748815D01*
X116669463Y-58845506D01*
X116610498Y-58955820D01*
X116574188Y-59075518D01*
X116561928Y-59200000D01*
X109423330Y-59200000D01*
X109435000Y-59141335D01*
X109435000Y-58858665D01*
X109379853Y-58581426D01*
X109271680Y-58320273D01*
X109114637Y-58085241D01*
X108914759Y-57885363D01*
X108679727Y-57728320D01*
X108418574Y-57620147D01*
X108141335Y-57565000D01*
X107858665Y-57565000D01*
X107581426Y-57620147D01*
X107320273Y-57728320D01*
X107085241Y-57885363D01*
X106885363Y-58085241D01*
X106728320Y-58320273D01*
X106620147Y-58581426D01*
X106565000Y-58858665D01*
X99275000Y-58858665D01*
X99219853Y-58581426D01*
X99111680Y-58320273D01*
X98954637Y-58085241D01*
X98754759Y-57885363D01*
X98519727Y-57728320D01*
X98258574Y-57620147D01*
X97981335Y-57565000D01*
X97698665Y-57565000D01*
X97421426Y-57620147D01*
X97160273Y-57728320D01*
X96925241Y-57885363D01*
X96725363Y-58085241D01*
X96568320Y-58320273D01*
X96460147Y-58581426D01*
X96405000Y-58858665D01*
X96405000Y-59141335D01*
X96411044Y-59171720D01*
X94551765Y-61031000D01*
X93191983Y-61031000D01*
X93153475Y-60973368D01*
X93021620Y-60841513D01*
X93094180Y-60819502D01*
X93204494Y-60760537D01*
X93301185Y-60681185D01*
X93380537Y-60584494D01*
X93439502Y-60474180D01*
X93475812Y-60354482D01*
X93488072Y-60230000D01*
X93485000Y-59665750D01*
X93326250Y-59507000D01*
X92127000Y-59507000D01*
X92127000Y-59527000D01*
X91873000Y-59527000D01*
X91873000Y-59507000D01*
X90673750Y-59507000D01*
X90515000Y-59665750D01*
X90511928Y-60230000D01*
X83660000Y-60230000D01*
X83660000Y-58530000D01*
X90511928Y-58530000D01*
X90515000Y-59094250D01*
X90673750Y-59253000D01*
X91873000Y-59253000D01*
X91873000Y-58053750D01*
X92127000Y-58053750D01*
X92127000Y-59253000D01*
X93326250Y-59253000D01*
X93485000Y-59094250D01*
X93488072Y-58530000D01*
X93475812Y-58405518D01*
X93439502Y-58285820D01*
X93380537Y-58175506D01*
X93301185Y-58078815D01*
X93204494Y-57999463D01*
X93094180Y-57940498D01*
X92974482Y-57904188D01*
X92850000Y-57891928D01*
X92285750Y-57895000D01*
X92127000Y-58053750D01*
X91873000Y-58053750D01*
X91714250Y-57895000D01*
X91150000Y-57891928D01*
X91025518Y-57904188D01*
X90905820Y-57940498D01*
X90795506Y-57999463D01*
X90698815Y-58078815D01*
X90619463Y-58175506D01*
X90560498Y-58285820D01*
X90524188Y-58405518D01*
X90511928Y-58530000D01*
X83660000Y-58530000D01*
X83660000Y-55660000D01*
X159340000Y-55660000D01*
X159340001Y-109340000D01*
G37*
%TD.AperFunction*%
D21*
X119127000Y-98953000D02*
X119147000Y-98953000D01*
X119147000Y-99207000D01*
X119127000Y-99207000D01*
X119127000Y-99227000D01*
X118873000Y-99227000D01*
X118873000Y-99207000D01*
X118853000Y-99207000D01*
X118853000Y-98953000D01*
X118873000Y-98953000D01*
X118873000Y-98933000D01*
X119127000Y-98933000D01*
X119127000Y-98953000D01*
%TA.AperFunction,Conductor*%
D22*
G36*
X119127000Y-98953000D02*
G01*
X119147000Y-98953000D01*
X119147000Y-99207000D01*
X119127000Y-99207000D01*
X119127000Y-99227000D01*
X118873000Y-99227000D01*
X118873000Y-99207000D01*
X118853000Y-99207000D01*
X118853000Y-98953000D01*
X118873000Y-98953000D01*
X118873000Y-98933000D01*
X119127000Y-98933000D01*
X119127000Y-98953000D01*
G37*
%TD.AperFunction*%
D21*
X119127000Y-75953000D02*
X119147000Y-75953000D01*
X119147000Y-76207000D01*
X119127000Y-76207000D01*
X119127000Y-76227000D01*
X118873000Y-76227000D01*
X118873000Y-76207000D01*
X118853000Y-76207000D01*
X118853000Y-75953000D01*
X118873000Y-75953000D01*
X118873000Y-75933000D01*
X119127000Y-75933000D01*
X119127000Y-75953000D01*
%TA.AperFunction,Conductor*%
D22*
G36*
X119127000Y-75953000D02*
G01*
X119147000Y-75953000D01*
X119147000Y-76207000D01*
X119127000Y-76207000D01*
X119127000Y-76227000D01*
X118873000Y-76227000D01*
X118873000Y-76207000D01*
X118853000Y-76207000D01*
X118853000Y-75953000D01*
X118873000Y-75953000D01*
X118873000Y-75933000D01*
X119127000Y-75933000D01*
X119127000Y-75953000D01*
G37*
%TD.AperFunction*%
%TD*%
M02*
