M48
; DRILL file {KiCad 5.1.8-db9833491~88~ubuntu16.04.1} date Tue Jan 19 23:32:30 2021
; FORMAT={-:-/ absolute / inch / decimal}
; #@! TF.CreationDate,2021-01-19T23:32:30+01:00
; #@! TF.GenerationSoftware,Kicad,Pcbnew,5.1.8-db9833491~88~ubuntu16.04.1
FMAT,2
INCH
T1C0.0315
T2C0.0394
T3C0.1181
%
G90
G05
T1
X3.852Y-2.5591
X4.252Y-2.5591
X3.852Y-2.6772
X4.252Y-2.6772
X4.685Y-2.7953
X4.685Y-2.8953
X4.685Y-2.9953
X4.685Y-3.0953
X4.985Y-2.7953
X4.985Y-2.8953
X4.985Y-2.9953
X4.985Y-3.0953
X4.6457Y-2.3622
X4.7441Y-2.3622
X5.3874Y-2.9921
X5.7874Y-2.9921
X3.852Y-2.4409
X4.252Y-2.4409
X3.852Y-2.3228
X4.252Y-2.3228
X5.3874Y-2.8346
X5.7874Y-2.8346
X3.852Y-3.8583
X4.252Y-3.8583
X4.7244Y-3.3071
X4.9213Y-3.3071
X5.1969Y-3.6614
X5.1969Y-4.0614
X5.1969Y-2.7559
X5.1969Y-3.1559
X3.852Y-3.5039
X4.252Y-3.5039
X3.852Y-3.0315
X4.252Y-3.0315
X4.4882Y-3.6614
X4.4882Y-4.0614
X4.685Y-3.7008
X4.685Y-3.8008
X4.685Y-3.9008
X4.685Y-4.0008
X4.985Y-3.7008
X4.985Y-3.8008
X4.985Y-3.9008
X4.985Y-4.0008
X4.4882Y-2.7559
X4.4882Y-3.1559
X5.4661Y-3.7402
X5.8661Y-3.7402
X3.852Y-3.7402
X4.252Y-3.7402
X3.852Y-3.9764
X4.252Y-3.9764
X3.852Y-3.1496
X4.252Y-3.1496
X3.852Y-2.9134
X4.252Y-2.9134
X3.852Y-2.7953
X4.252Y-2.7953
X4.6394Y-2.5984
X5.0394Y-2.5984
X4.6394Y-3.5039
X5.0394Y-3.5039
X3.852Y-4.0945
X4.252Y-4.0945
X5.4661Y-3.4646
X5.8661Y-3.4646
X5.4661Y-3.3071
X5.8661Y-3.3071
X5.4661Y-3.8976
X5.8661Y-3.8976
X3.852Y-4.2126
X4.252Y-4.2126
X4.9409Y-2.3622
X5.0394Y-2.3622
X3.852Y-3.3858
X4.252Y-3.3858
X4.7244Y-4.2126
X4.9213Y-4.2126
X3.852Y-3.622
X4.252Y-3.622
T2
X3.622Y-3.4008
X3.622Y-3.5008
X3.622Y-3.6008
X3.622Y-3.7008
X3.622Y-3.8008
X3.622Y-3.9008
X3.622Y-4.0008
X3.622Y-4.1008
X3.622Y-4.2008
X6.1024Y-3.2677
X6.1024Y-3.3677
X6.1024Y-3.4677
X3.622Y-2.3378
X3.622Y-2.4378
X3.622Y-2.5378
X3.622Y-2.6378
X3.622Y-2.7378
X3.622Y-2.8378
X3.622Y-2.9378
X3.622Y-3.0378
X3.622Y-3.1378
X5.4331Y-2.3803
X5.4331Y-2.4803
X5.5331Y-2.3803
X5.5331Y-2.4803
X5.6331Y-2.3803
X5.6331Y-2.4803
X5.7331Y-2.3803
X5.7331Y-2.4803
X5.8331Y-2.3803
X5.8331Y-2.4803
X6.1024Y-3.7008
X6.1024Y-3.8008
X6.1024Y-3.9008
T3
X3.3858Y-2.2835
X3.3858Y-4.2126
X6.1811Y-2.2835
X6.1811Y-4.2126
T0
M30
